{"glyphs":{"0":{"ha":821,"x_min":87,"x_max":739,"o":"m 271 624 q 413 54 271 54 q 555 624 555 54 q 480 961 555 899 q 413 983 453 983 q 278 781 300 983 q 271 624 271 713 m 413 -14 q 167 163 254 -14 q 87 585 87 323 q 263 1016 87 917 q 413 1051 325 1051 q 665 920 581 1051 q 739 585 739 800 q 596 68 739 225 q 413 -14 521 -14 z "},"1":{"ha":494,"x_min":45,"x_max":380,"o":"m 176 850 q 111 835 142 835 q 45 861 54 835 q 137 922 91 880 q 236 1038 220 998 l 362 1038 l 355 1008 q 345 907 347 965 q 340 802 342 848 q 338 707 338 756 q 335 496 335 590 q 357 61 335 140 q 380 0 366 32 l 139 0 l 151 31 q 182 500 182 113 q 176 850 182 722 z "},"2":{"ha":695,"x_min":48,"x_max":650,"o":"m 387 1051 q 605 867 605 1051 q 429 430 605 713 l 308 240 q 252 121 252 150 q 268 85 252 94 q 351 68 296 68 q 447 80 406 68 q 524 114 488 92 q 621 237 597 161 q 650 134 650 197 q 637 46 650 71 q 555 0 612 0 l 48 0 q 101 123 55 37 q 322 530 284 455 q 387 669 359 606 q 446 890 446 810 q 428 950 446 930 q 371 970 410 970 q 303 956 332 970 q 248 917 273 941 q 202 861 222 892 q 165 793 181 829 q 127 651 135 722 q 75 827 75 677 q 114 1061 75 989 q 138 1085 124 1079 q 170 1048 159 1055 q 213 1038 189 1038 q 255 1040 238 1038 q 292 1044 273 1042 q 387 1051 342 1051 z "},"3":{"ha":696,"x_min":37,"x_max":636,"o":"m 555 1002 q 567 991 555 1002 q 589 955 578 981 q 599 898 599 928 q 586 838 599 868 q 551 782 572 807 q 447 703 511 734 q 623 570 583 671 q 636 485 636 537 q 613 367 636 432 q 551 245 591 302 q 458 141 511 189 q 343 59 404 94 q 88 -14 216 -14 q 51 17 62 -4 q 37 54 39 37 q 239 114 141 54 q 389 265 330 171 q 448 465 448 361 q 412 589 448 547 q 242 644 364 644 q 218 705 218 671 q 359 764 290 710 q 434 903 434 824 q 416 954 434 938 q 353 970 398 970 q 272 958 307 970 q 210 918 237 945 q 130 746 157 866 q 93 804 102 760 q 83 886 83 849 q 85 938 83 923 q 91 970 87 952 q 99 1006 94 987 q 110 1042 104 1025 q 140 1085 124 1078 q 172 1048 161 1055 q 223 1038 191 1038 q 300 1044 255 1038 q 402 1051 346 1051 q 495 1037 458 1051 q 555 1002 532 1023 z "},"4":{"ha":768,"x_min":45,"x_max":712,"o":"m 439 414 q 441 610 441 484 q 420 834 441 736 l 607 834 l 602 804 q 589 698 595 761 q 579 444 579 579 l 579 415 q 712 448 650 419 l 712 305 l 684 313 q 581 332 630 328 q 609 31 587 98 q 621 0 614 16 l 380 0 q 413 80 406 40 q 425 155 421 121 q 437 339 433 240 l 45 339 q 163 806 123 496 q 175 964 175 894 q 171 1038 175 1034 l 389 1038 q 379 1008 384 1022 l 369 979 q 346 903 357 945 l 262 582 q 236 467 241 499 q 254 424 231 435 q 328 414 278 412 l 439 414 z "},"5":{"ha":684,"x_min":65,"x_max":623,"o":"m 210 726 q 338 746 267 746 q 461 726 409 746 q 547 671 513 706 q 613 489 613 604 q 541 244 613 363 q 362 60 473 130 q 128 -14 248 -14 q 83 34 98 -7 q 77 54 78 45 q 332 170 227 54 q 441 458 441 288 q 338 640 441 593 q 240 658 300 658 q 99 631 181 658 l 99 860 q 81 1003 99 956 q 65 1038 75 1020 l 562 1038 q 618 958 606 1038 q 623 906 623 934 q 618 856 623 878 q 609 817 614 834 q 597 788 603 800 l 587 766 q 499 913 545 875 q 344 956 447 956 l 309 956 q 233 943 248 956 q 209 846 209 920 l 209 774 q 209 750 209 761 q 210 726 210 739 z "},"6":{"ha":736,"x_min":68,"x_max":684,"o":"m 320 709 q 410 719 357 719 q 516 697 463 719 q 606 633 569 676 q 684 380 684 547 q 597 105 684 218 q 363 -14 506 -14 q 153 88 231 -14 q 68 394 68 197 q 158 751 68 589 q 361 977 236 892 q 581 1053 477 1055 q 627 1005 610 1044 q 631 983 631 994 q 443 894 533 979 q 320 709 366 820 m 243 384 q 380 54 243 54 q 481 159 448 54 q 511 391 511 248 q 438 616 511 551 q 380 637 414 637 q 277 576 310 637 q 243 384 243 515 z "},"7":{"ha":665,"x_min":58,"x_max":652,"o":"m 411 153 q 409 128 411 153 q 408 74 408 102 q 419 0 408 46 l 174 0 q 219 126 193 19 q 269 317 245 234 q 355 613 330 534 l 425 833 q 438 885 435 869 q 435 916 441 901 q 415 943 429 932 q 336 963 388 963 l 301 963 q 164 881 224 963 q 95 712 112 810 q 58 893 58 785 q 115 1038 58 1038 l 652 1038 q 618 981 634 1016 l 578 888 q 446 369 514 734 q 411 153 414 204 z "},"8":{"ha":816,"x_min":91,"x_max":723,"o":"m 509 4 q 407 -14 463 -14 q 304 4 350 -14 q 224 53 259 22 q 164 126 189 84 q 122 216 138 168 q 91 392 91 310 q 103 519 91 474 q 138 597 115 565 q 271 684 182 660 q 163 763 200 709 q 132 864 132 809 q 155 955 132 920 q 218 1010 179 989 q 407 1051 292 1051 q 659 955 593 1051 q 682 881 682 920 q 675 815 682 842 q 651 764 667 789 q 545 685 615 711 q 675 602 633 663 q 723 414 723 534 q 650 126 723 249 q 509 4 598 40 m 407 645 q 298 572 338 645 q 263 420 263 506 q 272 269 263 334 q 298 156 280 203 q 407 54 336 54 q 515 156 477 54 q 551 411 551 249 q 515 572 551 506 q 407 645 476 645 m 407 983 q 320 944 348 983 q 297 879 297 913 q 304 820 297 844 q 324 773 311 795 q 407 724 356 724 q 490 773 458 724 q 517 851 517 817 q 512 906 517 886 q 494 944 507 927 q 407 983 466 983 z "},"9":{"ha":732,"x_min":69,"x_max":665,"o":"m 488 593 q 330 529 430 529 q 132 616 204 529 q 69 795 69 691 q 155 983 69 911 q 363 1051 236 1051 q 591 958 518 1051 q 665 679 665 865 q 582 317 665 488 q 392 75 509 169 q 186 -14 281 -14 q 154 7 166 -9 q 136 54 132 36 q 314 157 231 75 q 475 469 436 279 q 488 593 488 530 m 410 970 q 357 983 388 983 q 302 970 326 983 q 262 933 277 956 q 230 811 230 886 q 307 638 230 682 q 360 624 332 624 q 408 633 388 624 q 444 665 428 643 q 477 811 477 713 q 410 970 477 930 z "},"\u0001":{"ha":0,"x_min":0,"x_max":0,"o":""},"\u0002":{"ha":0,"x_min":0,"x_max":0,"o":""},"\u0003":{"ha":0,"x_min":0,"x_max":0,"o":""},"\u0004":{"ha":0,"x_min":0,"x_max":0,"o":""},"\u0005":{"ha":0,"x_min":0,"x_max":0,"o":""},"\u0006":{"ha":0,"x_min":0,"x_max":0,"o":""},"\u0007":{"ha":0,"x_min":0,"x_max":0,"o":""},"\b":{"ha":0,"x_min":0,"x_max":0,"o":""},"\t":{"ha":0,"x_min":0,"x_max":0,"o":""},"\u0010":{"ha":0,"x_min":0,"x_max":0,"o":""},"\u0011":{"ha":0,"x_min":0,"x_max":0,"o":""},"\u0012":{"ha":0,"x_min":0,"x_max":0,"o":""},"\u0013":{"ha":0,"x_min":0,"x_max":0,"o":""},"\u0014":{"ha":0,"x_min":0,"x_max":0,"o":""},"\u0015":{"ha":0,"x_min":0,"x_max":0,"o":""},"\u0016":{"ha":0,"x_min":0,"x_max":0,"o":""},"\u0017":{"ha":0,"x_min":0,"x_max":0,"o":""},"\u0018":{"ha":0,"x_min":0,"x_max":0,"o":""},"\u0019":{"ha":0,"x_min":0,"x_max":0,"o":""}," ":{"ha":458,"x_min":0,"x_max":0,"o":""},"!":{"ha":463,"x_min":109,"x_max":364,"o":"m 177 319 q 163 619 177 458 l 144 841 q 109 1025 135 937 l 237 1074 l 364 1025 q 305 624 329 905 q 294 427 294 496 q 296 319 294 358 l 177 319 m 124 109 q 156 191 124 157 q 233 225 188 225 q 311 191 279 225 q 342 109 342 157 q 311 27 342 60 q 233 -7 278 -7 q 156 27 189 -7 q 124 109 124 60 z "},"\"":{"ha":657,"x_min":96,"x_max":561,"o":"m 414 637 q 401 828 414 734 q 385 942 389 923 q 377 974 380 960 q 371 999 374 988 q 366 1019 369 1010 l 360 1038 l 561 1038 l 555 1019 q 550 999 552 1010 q 544 974 547 988 q 536 942 541 960 q 527 886 532 923 q 517 804 522 848 q 507 637 507 705 l 414 637 m 150 637 q 137 828 150 734 q 120 942 124 923 q 113 974 116 960 q 107 999 109 988 q 102 1019 104 1010 l 96 1038 l 296 1038 l 290 1019 q 285 999 288 1010 q 279 974 283 988 q 272 942 276 960 q 263 886 268 923 q 253 804 258 848 q 242 637 242 705 l 150 637 z "},"#":{"ha":1046,"x_min":66,"x_max":977,"o":"m 332 735 q 346 945 346 899 q 333 1039 346 990 l 506 1039 q 447 732 473 955 l 650 732 q 665 944 665 899 q 652 1039 665 990 l 825 1039 q 766 735 792 958 q 977 753 899 740 l 956 610 q 754 627 877 623 q 734 424 741 496 q 936 441 867 429 l 916 298 q 724 315 845 310 l 717 224 q 710 91 710 138 q 723 0 710 44 l 550 0 q 610 318 585 87 q 551 319 579 319 l 406 319 l 398 225 q 391 91 391 138 q 404 0 391 44 l 231 0 q 264 120 254 58 q 291 317 281 230 q 66 298 134 312 l 87 441 q 302 423 155 428 l 322 628 q 107 610 184 625 l 127 753 q 332 735 193 740 m 621 420 q 642 630 635 553 q 587 631 614 631 q 499 631 537 631 q 435 630 461 631 q 425 526 430 579 l 415 420 l 621 420 z "},"$":{"ha":674,"x_min":46,"x_max":628,"o":"m 206 359 q 197 237 197 289 q 218 139 197 186 q 279 71 239 92 q 296 198 289 127 q 320 439 313 357 l 237 520 q 85 836 85 671 q 138 980 85 922 q 321 1051 201 1051 q 357 1050 341 1051 q 355 1124 357 1099 l 351 1161 l 463 1161 q 441 1038 451 1127 q 449 1038 445 1038 l 458 1038 q 519 1062 497 1038 q 536 1085 527 1071 q 586 881 586 1057 q 564 715 586 768 q 547 692 556 696 q 475 882 535 796 q 429 931 454 911 l 415 781 q 401 601 408 695 l 481 518 q 628 234 628 365 q 557 69 628 137 q 370 -12 486 1 q 367 -115 368 -73 l 248 -115 q 267 -9 256 -91 q 113 58 173 5 q 46 203 46 117 q 161 342 73 298 q 206 359 185 354 m 356 967 q 321 970 342 970 q 281 961 300 970 q 250 937 262 951 q 228 874 228 909 q 236 814 228 839 q 259 764 245 789 q 338 665 286 720 q 356 967 354 878 m 384 374 q 370 69 370 163 l 370 56 q 473 186 473 69 q 448 286 473 240 q 384 374 422 331 z "},"%":{"ha":1394,"x_min":81,"x_max":1318,"o":"m 326 997 q 260 947 280 997 q 240 779 240 897 q 326 529 240 529 q 392 595 372 529 q 412 779 412 662 q 392 947 412 897 q 326 997 372 997 m 326 1051 q 571 800 571 1051 q 503 560 571 648 q 326 475 437 475 q 149 560 215 475 q 81 800 81 648 q 326 1051 81 1051 m 747 899 q 762 978 762 950 q 753 1038 762 1006 l 920 1038 q 907 1009 914 1024 q 862 890 876 932 l 661 252 q 632 155 642 192 q 613 58 613 90 q 621 0 613 27 l 455 0 q 467 28 460 14 l 481 60 q 512 146 498 101 l 747 899 m 1074 508 q 1007 458 1027 508 q 987 290 987 408 q 1074 40 987 40 q 1139 106 1119 40 q 1160 290 1160 173 q 1140 458 1160 408 q 1074 508 1120 508 m 1074 562 q 1318 311 1318 562 q 1251 72 1318 159 q 1074 -14 1185 -14 q 897 72 962 -14 q 829 311 829 159 q 1074 562 829 562 z "},"&":{"ha":977,"x_min":151,"x_max":970,"o":"m 425 977 q 317 897 317 977 q 373 785 317 827 q 515 746 427 746 l 910 746 q 970 623 970 736 q 949 524 970 564 q 890 638 911 609 q 810 692 851 692 q 766 670 774 692 q 756 581 756 644 l 756 503 q 758 394 756 461 l 761 275 q 764 162 762 223 q 788 0 766 61 q 770 -1 779 -1 l 754 -1 q 416 85 560 -1 q 217 290 288 161 q 151 536 151 409 q 225 701 151 646 q 269 726 246 718 q 168 858 194 776 q 158 918 158 887 q 167 972 158 948 q 197 1013 176 996 q 335 1051 243 1051 q 410 1046 369 1051 q 510 1038 484 1038 q 585 1085 576 1038 q 625 1009 608 1075 q 641 903 641 952 q 608 787 641 817 q 553 913 599 858 q 425 977 499 977 m 612 349 l 611 404 l 611 528 q 598 646 611 627 q 567 668 586 664 q 517 671 549 671 l 441 671 q 325 560 325 671 q 349 366 325 448 q 409 227 373 283 q 486 143 445 172 q 560 115 528 115 q 603 138 593 115 q 612 199 612 161 l 612 301 l 612 349 z "},"'":{"ha":394,"x_min":96,"x_max":296,"o":"m 150 637 q 137 828 150 734 q 120 942 124 923 q 113 974 116 960 q 107 999 109 988 q 102 1019 104 1010 l 96 1038 l 296 1038 l 290 1019 q 285 999 288 1010 q 279 974 283 988 q 272 942 276 960 q 263 886 268 923 q 253 804 258 848 q 242 637 242 705 l 150 637 z "},"(":{"ha":463,"x_min":75,"x_max":400,"o":"m 400 -109 q 359 -142 387 -128 q 168 122 251 -63 q 75 563 75 330 q 359 1200 75 1008 q 400 1166 387 1186 q 285 928 330 1090 q 237 563 237 760 q 336 3 237 233 q 400 -109 366 -66 z "},")":{"ha":463,"x_min":62,"x_max":388,"o":"m 62 -109 q 103 -142 75 -128 q 295 122 212 -63 q 388 563 388 330 q 103 1200 388 1008 q 62 1166 75 1186 q 178 928 132 1090 q 225 563 225 760 q 126 3 225 233 q 62 -109 97 -66 z "},"*":{"ha":687,"x_min":68,"x_max":619,"o":"m 387 831 q 569 931 494 869 l 619 777 q 604 777 612 777 l 588 777 q 412 749 505 777 q 563 608 483 657 l 431 512 q 340 701 408 605 q 253 513 277 609 l 121 609 q 272 753 201 660 q 99 780 179 780 l 83 780 q 68 779 75 780 l 118 934 q 300 834 191 872 q 263 1038 298 951 l 426 1038 q 387 831 390 946 z "},"+":{"ha":872,"x_min":121,"x_max":753,"o":"m 386 387 q 121 366 207 387 l 121 509 q 386 488 207 488 q 366 753 386 672 l 508 753 q 488 488 488 672 q 753 509 671 488 l 753 366 q 488 387 671 387 q 508 121 488 208 l 366 121 q 386 387 386 208 z "},",":{"ha":482,"x_min":104,"x_max":340,"o":"m 325 231 q 340 145 340 172 q 317 -17 340 47 q 267 -122 293 -80 q 160 -237 214 -205 q 138 -222 152 -233 l 111 -203 q 180 45 180 -104 q 131 200 180 130 q 104 231 117 220 l 325 231 z "},"-":{"ha":663,"x_min":60,"x_max":604,"o":"m 60 481 q 330 462 134 462 q 604 481 525 462 l 604 332 q 338 352 525 352 l 307 352 q 60 332 125 352 l 60 481 z "},".":{"ha":463,"x_min":124,"x_max":342,"o":"m 124 109 q 156 191 124 157 q 233 225 188 225 q 311 191 279 225 q 342 109 342 157 q 311 27 342 60 q 233 -7 278 -7 q 156 27 189 -7 q 124 109 124 60 z "},"/":{"ha":501,"x_min":32,"x_max":442,"o":"m 194 69 q 182 -20 182 12 q 191 -81 182 -52 l 32 -81 l 43 -54 q 79 52 68 5 l 280 1009 q 292 1099 292 1069 q 283 1160 292 1128 l 442 1160 l 431 1132 q 391 1009 406 1074 l 194 69 z "},":":{"ha":463,"x_min":124,"x_max":342,"o":"m 124 109 q 156 191 124 157 q 233 225 188 225 q 311 191 279 225 q 342 109 342 157 q 311 27 342 60 q 233 -7 278 -7 q 156 27 189 -7 q 124 109 124 60 m 124 584 q 156 666 124 631 q 233 700 188 700 q 311 666 279 700 q 342 584 342 631 q 311 502 342 535 q 233 468 278 468 q 156 502 189 468 q 124 584 124 535 z "},";":{"ha":482,"x_min":104,"x_max":342,"o":"m 325 231 q 340 145 340 172 q 317 -17 340 47 q 267 -122 293 -80 q 160 -237 214 -205 q 138 -222 152 -233 l 111 -203 q 180 45 180 -104 q 131 200 180 130 q 104 231 117 220 l 325 231 m 124 584 q 156 666 124 631 q 233 700 188 700 q 311 666 279 700 q 342 584 342 631 q 311 502 342 535 q 233 468 278 468 q 156 502 189 468 q 124 584 124 535 z "},"<":{"ha":660,"x_min":56,"x_max":626,"o":"m 625 651 q 626 627 626 639 q 621 590 626 603 q 553 533 591 564 q 281 349 387 410 q 621 109 471 239 q 626 81 626 96 q 625 47 626 60 l 225 233 l 148 267 q 56 298 72 298 l 56 400 q 127 423 72 400 l 313 505 l 625 651 z "},"=":{"ha":872,"x_min":121,"x_max":753,"o":"m 121 644 q 436 624 204 624 q 753 644 667 624 l 753 502 q 436 522 667 522 q 121 502 204 522 l 121 644 m 121 373 q 436 353 204 353 q 753 373 667 353 l 753 231 q 436 251 667 251 q 121 231 204 251 l 121 373 z "},">":{"ha":660,"x_min":34,"x_max":604,"o":"m 35 651 q 34 627 34 639 q 39 590 34 603 q 107 533 68 564 q 379 349 273 410 q 39 109 189 239 q 34 81 34 96 q 35 47 34 60 l 435 233 l 512 267 q 604 298 588 298 l 604 400 q 532 423 588 400 l 347 505 l 35 651 z "},"?":{"ha":695,"x_min":83,"x_max":644,"o":"m 130 653 q 83 866 83 676 q 119 1064 83 1006 q 140 1083 128 1078 q 172 1048 161 1054 q 215 1038 190 1038 q 258 1040 240 1038 l 294 1046 q 398 1055 349 1055 q 492 1042 446 1055 q 572 1002 538 1029 q 643 831 640 947 q 500 586 644 713 q 382 466 409 505 q 355 399 355 427 q 356 358 355 371 q 361 335 358 345 q 369 317 364 325 l 381 298 l 227 298 q 277 492 221 401 q 320 559 297 526 l 368 625 q 454 858 454 741 q 374 974 454 974 q 254 920 311 974 q 143 723 178 850 q 130 653 133 686 m 192 109 q 224 191 192 157 q 301 225 256 225 q 378 191 347 225 q 410 109 410 157 q 378 27 410 60 q 301 -7 346 -7 q 224 27 256 -7 q 192 109 192 60 z "},"@":{"ha":1298,"x_min":68,"x_max":1229,"o":"m 846 184 q 901 98 846 98 q 966 126 932 98 q 1028 209 1000 154 q 1092 537 1092 335 q 1006 804 1092 703 q 742 916 913 916 q 452 808 577 916 q 282 553 343 714 q 226 278 226 408 q 254 66 226 149 q 335 -75 282 -16 q 637 -213 439 -191 q 595 -263 630 -238 q 577 -275 585 -271 q 212 -134 351 -275 q 68 257 68 12 q 158 629 68 462 q 400 887 246 793 q 751 983 559 983 q 1189 755 1088 983 q 1229 540 1229 665 q 1134 183 1229 331 q 983 50 1072 87 q 886 31 937 31 q 736 134 774 31 q 554 31 659 31 q 429 87 476 31 q 381 239 381 144 q 414 413 381 334 q 503 549 446 492 q 807 671 624 671 l 953 671 q 922 593 934 635 l 903 521 q 846 184 846 319 m 722 345 q 734 406 726 372 q 777 606 768 568 q 597 486 667 593 q 524 212 524 373 q 555 114 524 137 q 581 106 566 106 q 660 166 623 106 q 722 345 698 227 z "},"A":{"ha":787,"x_min":45,"x_max":788,"o":"m 551 0 q 560 68 560 43 q 559 106 560 94 q 556 134 558 119 q 552 166 555 149 q 548 208 550 184 q 437 475 532 370 q 347 545 395 521 q 266 569 298 569 q 218 565 235 569 q 180 327 180 451 q 191 163 180 217 q 248 -1 210 81 l 45 -1 q 61 171 61 40 q 81 415 61 301 q 132 617 100 528 q 202 773 163 706 q 280 889 241 840 q 354 975 319 939 q 412 1038 389 1010 l 625 1038 q 596 945 596 1004 q 605 856 596 918 l 622 732 q 788 0 715 92 l 551 0 m 245 637 q 301 647 272 647 q 354 643 330 647 q 400 629 377 639 q 483 569 450 610 q 442 782 450 743 l 418 901 l 380 854 q 245 637 298 757 z "},"B":{"ha":783,"x_min":40,"x_max":741,"o":"m 713 889 q 547 702 713 775 q 727 576 685 676 q 741 489 741 543 q 725 371 741 434 q 674 251 709 307 q 587 149 640 195 q 460 70 534 103 q 77 0 305 0 q 102 86 98 52 q 109 160 106 121 q 114 375 114 240 q 109 673 114 538 l 101 860 q 89 958 98 930 q 40 1038 74 1002 l 399 1038 q 636 1005 563 1038 q 713 889 713 971 m 272 538 l 273 193 q 281 135 273 155 q 315 115 290 115 q 490 214 420 115 q 562 479 562 316 q 526 599 562 559 q 355 651 478 651 q 311 649 328 651 q 286 635 295 646 q 272 538 272 618 m 496 773 q 506 783 496 773 q 526 817 517 793 q 534 860 534 840 q 529 900 534 880 q 506 936 523 920 q 376 970 468 970 q 292 956 306 970 q 275 919 279 942 q 272 860 272 896 q 274 799 272 823 q 285 759 276 775 q 354 726 302 726 q 441 739 407 726 q 496 773 475 753 z "},"C":{"ha":696,"x_min":37,"x_max":656,"o":"m 636 1085 q 656 1000 656 1057 q 652 907 656 943 q 641 838 648 871 q 595 726 625 764 q 530 913 570 857 q 421 970 488 970 q 315 944 353 970 q 257 876 277 918 q 223 670 223 806 q 254 421 223 534 q 342 227 285 309 q 654 54 462 54 q 623 1 652 24 q 604 -7 614 -5 q 202 174 357 -7 q 37 699 37 367 q 139 960 37 873 q 386 1038 229 1038 l 499 1036 q 612 1059 579 1036 q 636 1085 625 1069 z "},"D":{"ha":810,"x_min":43,"x_max":743,"o":"m 268 855 l 269 180 q 277 121 269 141 q 311 102 286 102 q 499 255 432 102 q 564 669 564 404 q 532 880 564 808 q 378 977 488 977 q 293 960 309 977 q 272 920 277 944 q 268 855 268 896 m 79 0 q 105 86 101 52 q 111 160 109 121 q 117 375 117 240 q 111 673 117 538 l 104 860 q 92 958 101 930 q 43 1038 77 1002 l 415 1038 q 718 855 647 1038 q 743 699 743 791 q 396 47 743 187 q 120 -1 279 -1 q 100 -1 110 -1 q 79 0 90 -1 z "},"E":{"ha":668,"x_min":16,"x_max":635,"o":"m 617 251 q 635 178 635 226 q 631 103 635 131 q 618 52 627 75 q 565 0 598 0 l 16 0 q 85 54 68 28 q 117 176 117 102 q 116 503 116 357 l 116 860 q 84 1006 116 961 q 55 1038 72 1023 l 565 1038 q 628 924 611 1021 q 633 871 633 897 q 617 787 633 818 l 581 860 q 475 956 544 932 q 390 970 437 970 q 322 967 342 970 q 291 952 302 964 q 273 877 273 932 q 276 801 273 822 q 289 766 279 779 q 378 739 310 739 l 591 739 q 559 684 575 700 q 471 651 526 651 q 429 656 449 651 q 365 665 393 665 q 319 660 337 665 q 291 644 301 654 q 273 575 273 625 l 273 252 q 288 100 273 124 q 322 72 302 77 q 390 68 342 68 q 476 81 437 68 q 541 119 515 95 q 584 177 567 144 q 617 251 601 211 z "},"F":{"ha":649,"x_min":20,"x_max":637,"o":"m 277 575 l 277 435 q 282 169 277 219 q 292 98 288 119 q 307 59 297 76 q 363 0 321 31 l 20 0 q 90 58 73 33 q 121 177 121 104 q 120 504 120 357 l 120 860 q 88 1006 120 961 q 59 1038 76 1023 l 569 1038 q 632 924 615 1021 q 637 871 637 897 q 621 787 637 818 l 585 860 q 479 956 548 932 q 394 970 441 970 q 326 967 347 970 q 295 952 306 964 q 277 877 277 932 q 280 801 277 822 q 293 766 283 779 q 382 739 314 739 l 595 739 q 563 684 579 700 q 475 651 530 651 q 433 656 453 651 q 369 665 397 665 q 323 660 341 665 q 295 644 305 654 q 277 575 277 625 z "},"G":{"ha":771,"x_min":63,"x_max":736,"o":"m 526 332 l 525 420 q 510 522 525 496 q 479 559 495 547 q 439 583 463 571 l 736 583 q 682 483 694 544 q 671 302 671 425 q 700 -14 671 65 q 681 -14 690 -14 l 663 -14 q 210 178 364 -14 q 63 699 63 361 q 161 955 63 866 q 405 1038 252 1038 l 524 1036 q 656 1059 618 1036 q 682 1085 671 1069 q 699 996 699 1053 q 696 904 699 939 q 686 836 692 869 q 642 726 671 765 q 577 913 616 861 q 441 970 534 970 q 277 876 325 970 q 242 669 242 808 q 301 303 242 478 q 404 129 342 180 q 470 102 436 102 q 514 121 505 102 q 524 189 524 141 q 526 332 526 282 z "},"H":{"ha":846,"x_min":85,"x_max":768,"o":"m 576 404 l 575 589 q 563 641 575 627 q 480 666 541 666 l 373 666 q 281 618 289 666 q 279 589 279 605 l 278 386 q 305 56 278 123 q 339 0 316 31 l 85 0 q 110 86 106 52 q 118 172 114 121 q 125 415 125 278 q 125 604 125 552 q 123 705 124 656 q 111 952 119 911 q 97 1007 102 993 l 85 1038 l 339 1038 q 285 891 290 983 q 283 833 283 863 q 289 785 283 802 q 308 760 294 768 q 394 747 326 747 l 458 747 q 544 758 528 747 q 571 834 571 775 q 514 1038 571 979 l 768 1038 q 744 955 748 993 q 737 882 739 917 q 733 801 735 847 q 730 705 731 755 q 728 496 728 590 q 756 31 728 116 q 768 0 761 16 l 514 0 q 555 78 548 45 q 567 156 563 111 q 576 404 576 242 z "},"I":{"ha":452,"x_min":110,"x_max":344,"o":"m 344 1038 q 315 911 319 975 q 309 802 311 848 q 305 708 307 757 q 303 500 303 594 q 332 30 303 117 q 344 0 336 15 l 110 0 q 135 83 131 46 q 142 172 139 121 q 151 418 151 279 q 150 608 151 557 q 148 708 149 659 q 119 1010 143 946 l 110 1038 l 344 1038 z "},"J":{"ha":593,"x_min":18,"x_max":537,"o":"m 499 548 l 500 292 q 438 84 500 169 q 236 -14 366 -14 q 73 54 134 -14 q 18 203 18 116 q 83 311 48 274 q 178 380 140 373 q 167 267 167 318 q 171 179 167 215 q 186 116 176 144 q 256 54 208 54 q 320 109 298 54 q 338 229 338 153 l 338 391 q 334 887 338 686 q 318 976 333 941 q 269 1038 304 1010 l 537 1038 q 512 959 517 1001 q 505 867 508 917 q 499 548 499 771 z "},"K":{"ha":781,"x_min":77,"x_max":836,"o":"m 553 888 q 560 902 553 888 q 573 944 566 916 q 581 998 581 972 q 570 1038 581 1024 l 780 1038 q 753 989 764 1016 l 728 927 q 549 703 667 778 q 646 275 556 476 q 836 0 726 92 l 602 0 q 468 365 507 100 q 443 593 453 462 q 422 646 440 627 q 372 665 404 665 q 326 659 339 665 q 307 640 313 652 q 295 543 295 619 q 317 28 295 101 q 327 0 321 15 l 100 0 q 125 86 121 52 q 132 160 129 121 q 137 375 137 240 q 132 672 137 537 l 124 859 q 98 1003 120 961 q 77 1038 90 1020 l 342 1038 q 307 972 315 1002 q 295 873 295 922 q 297 802 295 824 q 307 766 299 781 q 362 739 322 739 q 429 751 402 739 q 479 785 456 764 q 521 832 502 806 q 553 888 540 859 z "},"L":{"ha":618,"x_min":20,"x_max":636,"o":"m 618 251 q 636 187 636 224 q 631 123 636 150 q 617 71 626 96 q 566 0 597 18 l 20 0 q 90 58 74 33 q 121 177 121 104 q 121 503 121 357 l 121 859 q 88 1003 121 957 q 60 1038 77 1020 l 338 1038 q 293 919 298 980 q 292 874 292 899 l 292 253 q 305 101 292 126 q 338 72 319 77 q 395 68 357 68 q 469 81 434 68 q 530 119 503 95 q 618 251 576 161 z "},"M":{"ha":1010,"x_min":59,"x_max":967,"o":"m 238 802 q 235 597 235 703 q 240 286 235 453 q 247 97 245 119 q 254 57 250 74 q 278 0 261 26 l 89 0 q 120 79 115 37 q 127 160 125 121 q 133 375 133 240 q 127 673 133 538 l 120 860 q 87 1006 116 963 q 59 1038 76 1023 l 324 1038 q 390 791 351 922 l 513 397 l 703 1038 l 967 1038 q 924 978 934 1008 q 907 869 909 931 l 902 749 q 893 375 893 538 q 918 27 893 101 q 930 0 923 14 l 717 0 q 738 78 735 36 q 742 193 740 119 q 750 543 750 433 q 747 812 750 724 l 497 0 l 365 416 l 238 802 z "},"N":{"ha":858,"x_min":64,"x_max":795,"o":"m 243 739 q 242 578 242 668 q 247 284 242 450 q 254 97 252 119 q 261 57 257 74 q 282 0 268 29 l 100 0 q 125 81 121 41 q 132 160 130 121 q 138 375 138 240 q 132 673 138 538 l 125 860 q 92 1006 121 963 q 64 1038 81 1023 l 275 1038 q 359 854 315 945 l 452 674 l 650 310 q 650 401 650 353 l 650 507 q 609 997 650 846 q 591 1038 601 1025 l 795 1038 q 753 656 762 970 q 751 563 751 608 l 752 506 l 752 229 q 755 0 752 54 l 645 0 l 448 366 l 243 739 z "},"O":{"ha":894,"x_min":87,"x_max":807,"o":"m 448 54 q 616 372 578 54 q 629 624 629 479 q 447 983 629 983 q 264 624 264 983 q 374 89 264 200 q 448 54 408 54 m 447 -14 q 175 156 267 -14 q 87 624 87 319 q 281 1023 87 941 q 447 1051 350 1051 q 787 804 725 1051 q 807 600 807 725 q 785 357 807 475 q 719 156 764 239 q 447 -14 627 -14 z "},"P":{"ha":722,"x_min":45,"x_max":718,"o":"m 328 644 q 277 551 277 644 l 277 466 q 282 175 277 230 q 292 98 287 119 q 306 59 297 76 q 363 0 320 31 l 75 0 q 105 85 100 50 q 113 160 111 121 q 119 375 119 240 q 113 673 119 538 l 106 860 q 94 958 103 930 q 45 1038 79 1002 l 424 1038 q 646 1005 577 1038 q 718 889 718 971 q 632 723 718 789 q 328 644 530 644 m 497 769 q 508 779 497 769 q 529 814 519 790 q 539 859 539 838 q 533 900 539 880 q 511 936 528 920 q 380 970 473 970 q 308 956 325 970 q 277 855 277 930 q 290 750 277 770 q 321 725 304 730 q 375 719 339 719 q 444 733 412 719 q 497 769 476 747 z "},"Q":{"ha":894,"x_min":87,"x_max":822,"o":"m 807 624 q 645 60 807 208 q 822 -231 722 -132 l 581 -231 q 511 -7 548 -180 q 447 -14 481 -14 q 175 156 267 -14 q 87 624 87 319 q 281 1023 87 941 q 447 1051 350 1051 q 787 804 725 1051 q 807 624 807 725 m 590 229 q 629 624 629 374 q 447 983 629 983 q 264 624 264 983 q 290 296 264 430 q 343 388 306 355 q 421 420 381 420 q 486 406 462 420 q 528 366 509 392 q 590 229 564 319 m 448 54 q 496 68 473 54 l 492 95 q 485 140 490 109 q 471 210 480 172 q 452 275 463 249 q 398 331 429 331 q 350 297 368 331 q 332 229 332 267 q 356 110 332 160 q 448 54 395 54 z "},"R":{"ha":800,"x_min":63,"x_max":849,"o":"m 367 644 q 288 551 288 644 q 301 98 288 166 q 320 36 309 56 l 340 0 l 100 0 q 125 86 121 52 q 132 160 129 121 q 137 375 137 240 q 132 673 137 538 l 124 860 q 112 958 121 930 q 63 1038 97 1002 l 422 1038 q 659 1005 586 1038 q 736 889 736 971 q 683 754 736 817 q 551 661 633 696 q 715 161 562 401 q 849 0 781 58 l 595 0 q 472 368 528 91 q 447 528 453 465 q 438 605 441 592 q 426 627 434 618 q 367 644 410 644 m 523 765 q 533 775 523 765 q 550 808 542 785 q 557 853 557 831 q 552 896 557 874 q 529 933 546 917 q 399 970 492 970 q 343 967 364 970 q 309 952 321 964 q 288 848 288 932 q 304 755 288 775 q 388 719 332 719 q 474 732 444 719 q 523 765 505 745 z "},"S":{"ha":699,"x_min":73,"x_max":655,"o":"m 233 359 q 224 247 224 289 q 235 170 224 205 q 264 109 245 135 q 367 54 304 54 q 486 186 486 54 q 363 410 486 292 l 293 479 q 166 623 200 568 q 99 836 99 730 q 155 980 99 922 q 348 1051 222 1051 q 422 1046 397 1051 q 485 1038 469 1038 q 546 1062 524 1038 q 564 1085 554 1071 q 613 881 613 1057 q 591 715 613 768 q 574 692 583 696 q 507 875 563 794 q 357 970 442 970 q 267 903 283 970 q 262 856 262 884 q 279 791 262 827 q 323 720 296 755 q 387 648 351 684 q 531 498 495 537 q 594 416 566 458 q 655 234 655 322 q 572 58 655 127 q 353 -14 487 -14 q 161 42 241 -14 q 73 203 73 103 q 189 342 100 298 q 233 359 212 354 z "},"T":{"ha":728,"x_min":8,"x_max":717,"o":"m 24 732 q 8 825 8 772 q 12 913 8 879 q 23 975 16 947 q 63 1038 39 1038 l 661 1038 q 713 921 700 1038 q 717 854 717 888 q 699 732 717 772 q 548 964 641 913 q 507 977 527 977 q 475 966 486 977 q 456 932 463 956 q 444 835 444 892 l 444 581 l 444 373 l 444 176 q 461 78 444 110 q 497 31 479 47 q 539 0 515 14 l 193 0 q 255 66 241 40 q 280 176 280 113 l 280 787 q 272 925 280 894 q 252 966 264 956 q 220 977 241 977 q 179 965 200 977 q 138 933 158 953 q 100 889 118 914 q 67 836 82 863 q 24 732 38 783 z "},"U":{"ha":813,"x_min":76,"x_max":774,"o":"m 612 348 l 616 608 q 595 958 616 882 q 573 1011 586 994 q 551 1038 559 1028 l 774 1038 l 760 1019 q 726 918 729 974 q 721 804 722 861 q 718 689 719 746 q 716 475 716 593 l 716 393 q 646 79 716 174 q 418 -14 576 -14 q 113 379 112 -14 l 114 887 q 76 1038 114 994 l 333 1038 q 293 901 293 989 q 292 795 293 849 l 290 578 q 289 467 289 524 q 301 209 289 263 q 331 123 313 154 q 452 54 372 54 q 604 235 575 54 q 612 348 612 288 z "},"V":{"ha":766,"x_min":-1,"x_max":749,"o":"m 236 1038 q 224 967 224 1000 q 244 804 224 911 q 340 324 327 389 q 375 163 369 191 q 387 109 382 135 q 562 518 513 259 q 579 697 579 613 q 576 827 579 781 q 564 911 572 873 q 513 1038 548 987 l 749 1038 q 734 957 735 998 q 732 833 734 916 q 711 635 730 750 q 663 431 692 521 q 600 272 635 340 q 531 152 566 203 q 465 64 496 100 l 412 0 l 199 0 q 209 50 209 26 q 198 168 209 90 q -1 1038 82 942 l 236 1038 z "},"W":{"ha":1096,"x_min":-22,"x_max":1133,"o":"m 935 932 q 892 1038 935 998 l 1133 1038 q 1066 937 1092 1002 q 1048 890 1057 916 q 1028 819 1040 865 l 1004 713 q 975 581 989 652 q 887 164 897 208 q 877 80 877 120 q 895 -1 877 41 l 657 0 q 676 47 673 25 q 680 101 680 69 q 669 196 680 133 q 640 340 658 259 l 554 706 q 437 186 451 252 q 423 81 423 120 q 440 -1 423 41 l 203 0 q 225 96 225 36 q 136 563 225 197 q -22 1038 43 947 l 218 1038 q 206 966 206 1008 q 213 875 206 924 q 232 763 220 825 q 259 629 244 701 l 351 224 q 377 340 363 276 q 429 599 415 525 l 452 728 q 472 890 472 848 q 467 970 472 932 q 441 1038 462 1009 l 694 1038 q 666 915 666 984 q 699 706 666 863 l 777 338 l 806 215 l 863 486 q 890 631 877 559 l 913 762 q 935 932 935 892 z "},"X":{"ha":693,"x_min":-22,"x_max":721,"o":"m 369 668 q 470 886 437 777 q 486 969 486 941 q 473 1038 486 998 l 677 1038 q 644 986 658 1011 l 463 646 l 420 564 q 624 160 602 199 l 657 99 q 680 61 669 78 l 721 0 l 439 0 q 456 71 456 49 q 393 286 456 142 q 319 446 359 363 q 177 73 177 199 q 192 0 177 42 l -22 0 q 14 54 -5 17 l 264 551 l 119 814 q 82 885 98 853 q 54 940 66 918 l 31 979 q -9 1038 13 1010 l 272 1038 q 256 973 256 998 q 286 837 256 907 q 311 784 297 811 l 369 668 z "},"Y":{"ha":586,"x_min":-45,"x_max":637,"o":"m 233 261 l 233 403 l 233 480 q 183 654 233 541 q 131 766 144 739 l 109 810 q -45 1038 21 994 l 229 1038 q 224 1003 224 1024 q 227 959 224 982 q 236 911 231 935 q 262 825 246 864 l 295 746 q 337 666 312 707 q 388 760 369 714 l 414 824 q 452 1011 452 922 q 450 1038 452 1026 l 637 1038 q 559 923 600 998 q 502 814 518 848 l 467 739 q 397 489 397 583 l 397 179 q 413 79 397 110 q 448 32 429 49 q 492 0 466 15 l 145 0 q 233 163 233 45 l 233 261 z "},"Z":{"ha":633,"x_min":7,"x_max":613,"o":"m 589 251 q 604 177 604 220 q 600 106 604 135 q 586 53 595 77 q 536 0 567 0 l 7 0 q 81 122 49 44 l 138 263 q 355 853 335 793 q 374 934 374 913 q 351 962 374 955 q 282 970 328 970 q 207 954 237 970 q 153 911 176 939 q 77 760 113 864 q 58 831 58 778 q 63 916 58 884 q 76 976 67 949 q 129 1038 95 1038 l 613 1038 q 550 914 580 987 l 498 783 q 359 403 387 482 q 278 168 290 205 q 266 115 266 130 q 342 68 266 68 q 484 109 429 68 q 589 251 538 149 z "},"[":{"ha":625,"x_min":109,"x_max":529,"o":"m 122 1010 q 117 1102 122 1082 q 109 1133 111 1122 l 509 1133 q 529 1058 524 1109 l 502 1064 q 368 1072 469 1072 q 301 1056 324 1072 q 278 998 278 1040 l 278 26 q 301 -32 278 -16 q 367 -47 324 -47 q 433 -47 409 -47 q 474 -44 458 -46 q 502 -40 490 -43 l 529 -34 q 509 -109 524 -85 l 109 -109 l 114 -88 q 122 14 122 -58 l 122 1010 z "},"\\":{"ha":501,"x_min":59,"x_max":469,"o":"m 218 1160 q 209 1105 209 1128 q 218 1024 209 1069 q 415 84 405 128 q 431 18 425 40 q 445 -22 438 -4 q 458 -54 452 -39 l 469 -81 l 310 -81 q 319 -28 319 -52 q 307 69 319 12 q 132 913 146 848 l 111 1009 q 80 1110 96 1074 q 59 1160 64 1146 l 218 1160 z "},"]":{"ha":625,"x_min":96,"x_max":516,"o":"m 503 1010 q 508 1102 503 1082 q 516 1133 513 1122 l 116 1133 q 96 1058 100 1109 l 123 1064 q 256 1072 156 1072 q 323 1056 300 1072 q 347 998 347 1040 l 347 26 q 323 -32 347 -16 q 258 -47 300 -47 q 191 -47 216 -47 q 151 -44 167 -46 q 123 -40 135 -43 l 96 -34 q 116 -109 100 -85 l 516 -109 l 511 -88 q 503 14 503 -58 l 503 1010 z "},"^":{"ha":634,"x_min":68,"x_max":567,"o":"m 490 366 q 317 743 394 542 q 240 559 277 636 q 145 366 168 409 l 68 366 q 219 900 202 831 q 248 1038 248 1020 l 387 1038 q 416 896 387 1006 q 542 450 524 508 l 567 366 l 490 366 z "},"_":{"ha":820,"x_min":-15,"x_max":834,"o":"m 834 -54 l 834 -149 l -15 -149 l -15 -54 l 834 -54 z "},"`":{"ha":442,"x_min":34,"x_max":319,"o":"m 208 1038 q 223 987 208 1031 q 273 859 258 895 q 300 799 273 859 q 319 760 311 774 l 242 760 q 161 841 207 785 q 34 1038 75 947 l 208 1038 z "},"a":{"ha":690,"x_min":54,"x_max":663,"o":"m 579 362 l 577 232 q 600 66 577 111 q 631 26 613 40 l 663 0 l 467 0 l 446 79 q 227 -14 369 -14 q 97 41 146 -14 q 54 156 54 90 q 85 272 54 222 q 168 354 117 321 q 424 420 270 417 l 424 427 q 373 621 424 592 q 326 631 355 631 q 269 612 297 631 q 217 563 240 593 q 151 420 171 503 q 91 558 91 456 q 102 651 91 600 q 151 659 127 651 l 203 675 q 353 699 279 699 q 470 677 426 699 q 538 612 513 655 q 579 362 579 540 m 200 142 q 219 77 200 100 q 268 54 239 54 q 324 70 297 54 q 373 111 351 85 q 424 253 424 172 l 424 353 q 267 290 329 345 q 200 142 200 232 z "},"b":{"ha":709,"x_min":45,"x_max":641,"o":"m 260 664 q 396 699 328 699 q 507 683 465 699 q 578 639 549 668 q 641 463 641 577 q 522 111 641 236 q 256 0 416 0 l 72 0 l 85 31 q 109 133 105 81 q 114 230 112 186 q 117 324 115 273 q 120 504 120 416 q 119 637 120 592 q 118 726 119 683 q 105 922 114 887 q 87 974 96 957 q 68 1006 79 991 l 45 1038 l 292 1038 q 260 664 267 948 m 261 486 l 259 236 q 266 52 259 105 q 415 176 359 73 q 471 429 471 279 q 457 559 471 522 q 424 614 444 597 q 378 631 405 631 q 331 621 351 631 q 295 593 311 612 q 261 486 261 553 z "},"c":{"ha":591,"x_min":41,"x_max":533,"o":"m 516 726 q 533 636 533 685 q 530 556 533 588 q 519 494 526 524 q 475 393 505 431 q 378 617 446 578 q 327 631 355 631 q 279 618 300 631 q 245 581 259 605 q 216 454 216 532 q 231 320 216 376 q 272 220 247 264 q 330 143 298 176 q 395 90 362 111 q 511 47 460 47 q 494 13 509 30 q 461 -14 479 -4 q 296 35 389 -14 q 63 302 123 127 q 41 434 41 367 q 56 548 41 502 q 102 628 72 595 q 271 699 163 699 q 342 694 308 699 q 434 685 408 685 q 480 692 460 685 q 516 726 500 699 z "},"d":{"ha":689,"x_min":51,"x_max":651,"o":"m 466 54 q 278 -14 392 -14 q 113 47 174 -14 q 51 223 51 109 q 84 421 51 336 q 172 564 117 507 q 435 684 279 678 q 421 924 429 893 q 404 973 412 955 q 385 1006 395 991 l 361 1038 l 609 1038 q 587 905 590 969 q 583 791 584 840 q 581 689 581 743 q 578 511 578 600 q 579 377 578 422 q 581 291 579 332 q 592 110 584 138 q 609 63 600 81 q 628 31 617 46 l 651 0 l 475 0 l 466 54 m 436 249 q 437 301 436 249 q 439 445 439 353 q 437 618 439 536 q 279 503 338 604 q 220 250 220 402 q 234 123 220 159 q 268 71 248 87 q 314 54 287 54 q 362 65 342 54 q 399 98 383 77 q 436 249 433 144 z "},"e":{"ha":648,"x_min":51,"x_max":581,"o":"m 549 231 q 574 174 574 214 q 563 103 574 134 q 525 46 552 73 q 339 -14 464 -14 q 118 94 194 -14 q 51 352 51 189 q 142 610 51 516 q 375 699 228 699 q 535 639 477 699 q 581 529 581 591 q 556 417 581 467 q 486 332 532 368 q 216 253 389 257 q 302 71 231 117 q 370 54 328 54 q 461 99 413 54 q 549 231 509 144 m 212 317 q 427 525 427 332 q 383 623 427 597 q 344 631 368 631 q 295 616 319 631 q 252 567 270 601 q 212 338 212 493 l 212 317 z "},"f":{"ha":500,"x_min":52,"x_max":532,"o":"m 92 0 q 124 441 124 109 q 123 516 124 499 q 111 536 121 534 q 57 587 66 546 q 52 610 55 598 l 95 610 q 118 619 114 610 q 123 667 123 627 q 117 817 123 743 q 123 929 111 891 q 159 994 134 967 q 304 1051 210 1051 q 369 1044 340 1051 q 425 1038 398 1038 q 473 1045 452 1038 q 509 1078 493 1053 q 525 1042 517 1068 q 532 985 532 1016 q 528 920 532 954 q 515 853 524 886 q 468 745 498 785 q 438 918 452 884 q 407 964 424 951 q 358 977 391 977 q 300 942 326 977 q 275 848 275 908 l 275 827 q 282 663 275 691 q 302 626 290 635 q 339 617 315 617 l 464 617 q 422 538 447 556 q 394 529 410 529 q 370 531 379 529 q 353 536 361 533 q 316 543 333 543 q 291 538 300 543 q 277 526 282 534 q 269 482 269 512 l 269 366 q 283 102 269 155 q 311 40 294 63 l 340 0 l 92 0 z "},"g":{"ha":665,"x_min":52,"x_max":606,"o":"m 422 16 q 292 -14 356 -14 q 186 3 229 -14 q 115 50 144 19 q 52 230 52 115 q 179 574 52 451 q 452 685 292 685 l 606 685 q 585 559 587 619 q 581 460 582 498 q 579 382 580 422 q 578 222 578 304 q 565 63 578 140 q 531 -72 552 -14 q 482 -170 509 -130 q 425 -239 454 -211 q 311 -305 376 -284 q 285 -286 298 -300 q 270 -258 273 -271 q 393 -102 347 -227 q 422 16 410 -54 m 437 227 l 439 430 q 430 616 439 553 q 278 502 334 597 q 222 257 222 405 q 236 127 222 165 q 269 72 250 90 q 316 54 288 54 q 364 65 343 54 q 401 98 385 76 q 437 227 437 144 z "},"h":{"ha":771,"x_min":52,"x_max":673,"o":"m 473 0 q 505 368 505 107 q 493 514 505 477 q 464 567 481 550 q 418 583 447 583 q 366 572 389 583 q 324 544 342 562 q 268 457 290 511 l 268 328 q 275 92 268 137 q 294 0 284 32 l 94 0 q 115 151 110 57 q 127 499 127 387 q 127 651 127 610 q 125 733 126 692 q 112 919 121 881 q 93 974 102 956 q 75 1005 85 991 l 52 1037 l 299 1037 q 277 909 280 968 q 273 813 274 850 q 270 736 271 777 q 268 568 268 641 q 410 688 321 659 q 479 699 441 699 q 550 682 518 699 q 602 635 581 665 q 646 466 646 573 l 646 393 q 651 133 646 186 q 659 64 657 81 q 673 0 664 34 l 473 0 z "},"i":{"ha":404,"x_min":63,"x_max":318,"o":"m 289 867 q 282 856 289 867 q 256 830 275 845 q 211 814 236 814 q 166 830 186 814 q 133 867 146 845 q 105 965 105 913 q 162 1048 105 1027 q 212 1056 182 1056 q 312 999 292 1056 q 318 963 318 983 q 311 916 318 943 q 289 867 303 890 m 105 0 q 136 368 136 107 q 104 621 136 552 q 85 654 96 639 l 63 685 l 304 685 q 274 340 274 573 q 305 0 274 107 l 105 0 z "},"j":{"ha":395,"x_min":-40,"x_max":323,"o":"m 294 867 q 287 856 294 867 q 260 830 280 845 q 216 814 241 814 q 171 830 191 814 q 138 867 151 845 q 110 965 110 913 q 167 1048 110 1027 q 216 1056 187 1056 q 317 999 297 1056 q 323 963 323 983 q 315 916 323 943 q 294 867 308 890 m 145 224 l 147 379 q 96 658 147 585 q 73 685 87 672 l 314 685 q 295 604 298 648 q 291 528 292 560 q 289 456 290 496 q 287 376 288 416 q 286 216 286 293 q 273 67 286 140 q 238 -63 260 -5 q 189 -167 217 -122 q 129 -243 160 -212 q 5 -305 67 -304 q -19 -292 -7 -304 q -36 -258 -40 -269 q 35 -205 8 -237 q 80 -138 61 -173 q 113 -52 98 -102 q 145 224 145 61 z "},"k":{"ha":661,"x_min":36,"x_max":711,"o":"m 252 288 q 278 0 252 91 l 78 0 q 102 155 97 66 q 112 491 112 372 q 111 651 112 610 q 110 734 111 692 q 96 919 106 880 q 77 977 86 959 q 36 1038 64 1005 l 283 1038 q 261 908 264 969 l 256 810 q 252 640 252 698 q 253 561 252 581 q 258 528 254 541 q 299 502 266 500 q 358 516 332 503 q 401 548 385 528 q 435 629 435 586 q 425 685 435 671 l 621 685 q 607 652 613 669 q 593 618 600 635 q 441 463 545 511 q 533 182 448 323 q 711 0 614 51 l 484 0 q 374 218 416 33 q 355 340 359 281 q 340 416 350 398 q 303 434 330 434 q 252 338 252 434 l 252 288 z "},"l":{"ha":381,"x_min":47,"x_max":294,"o":"m 262 311 q 289 0 262 91 l 89 0 q 113 155 108 66 q 123 491 123 372 q 122 651 123 610 q 121 734 121 692 q 107 919 117 881 q 89 975 97 958 q 69 1006 80 992 l 47 1038 l 294 1038 q 272 906 275 969 q 268 795 269 844 q 264 695 266 747 q 263 488 263 608 l 262 311 z "},"m":{"ha":1128,"x_min":56,"x_max":1038,"o":"m 98 0 q 130 368 130 107 q 97 622 130 554 q 79 654 89 639 l 56 685 l 292 685 q 278 621 281 645 l 273 581 q 474 699 352 699 q 631 566 595 699 q 773 688 685 658 q 843 699 804 699 q 914 682 882 699 q 967 635 945 665 q 1010 466 1010 573 l 1010 393 q 1016 133 1010 186 q 1024 64 1021 81 q 1038 0 1028 34 l 838 0 q 867 368 867 102 q 857 513 867 476 q 828 567 846 550 q 781 583 811 583 q 642 480 694 583 l 642 393 q 648 133 642 186 q 656 64 654 81 q 670 0 661 34 l 470 0 q 500 368 500 104 q 490 514 500 479 q 462 567 479 550 q 415 583 445 583 q 362 572 386 583 q 319 541 338 560 q 263 450 283 506 q 262 410 262 431 l 262 368 q 293 0 262 107 l 98 0 m 620 420 l 617 408 l 620 420 z "},"n":{"ha":762,"x_min":39,"x_max":665,"o":"m 81 0 q 113 368 113 107 q 80 622 113 554 q 62 654 72 639 l 39 685 l 275 685 q 261 621 264 651 l 256 572 q 465 699 338 699 q 593 635 547 699 q 637 466 637 572 l 637 393 q 641 165 637 207 q 646 102 644 124 q 651 64 648 81 q 665 0 656 32 l 467 0 q 498 368 498 107 q 485 511 498 473 q 453 567 471 550 q 405 583 435 583 q 305 540 350 583 q 246 445 267 503 q 245 407 245 427 l 245 368 q 276 0 245 107 l 81 0 z "},"o":{"ha":749,"x_min":89,"x_max":660,"o":"m 374 631 q 287 570 313 631 q 260 364 260 509 q 374 54 260 54 q 462 137 435 54 q 489 364 489 220 q 462 570 489 509 q 374 631 435 631 m 89 390 q 374 699 89 699 q 660 390 660 699 q 581 94 660 203 q 374 -14 505 -14 q 168 94 244 -14 q 89 390 89 203 z "},"p":{"ha":715,"x_min":40,"x_max":640,"o":"m 223 642 q 413 699 299 699 q 624 565 574 699 q 640 454 640 521 q 625 324 640 387 q 583 210 610 260 q 518 120 555 159 q 438 56 481 81 q 254 1 351 3 q 258 -71 255 -36 l 264 -143 q 307 -267 271 -216 l 330 -298 l 82 -298 q 104 -168 101 -233 q 109 -57 107 -103 q 111 39 111 -10 q 114 241 114 155 q 96 583 114 521 q 68 645 85 622 l 40 685 l 222 685 q 223 642 218 671 m 471 436 q 372 631 471 631 q 291 587 323 631 q 256 459 256 541 l 251 138 l 251 100 q 252 63 251 82 q 411 181 350 78 q 471 436 471 283 z "},"q":{"ha":693,"x_min":54,"x_max":656,"o":"m 444 26 q 281 -14 371 -14 q 117 47 177 -14 q 54 222 54 109 q 180 571 54 444 q 454 685 295 685 l 629 685 q 600 598 606 634 q 592 531 594 562 q 587 461 589 500 q 583 383 585 422 q 580 236 580 296 q 581 116 580 176 q 583 5 582 56 q 591 -135 586 -96 q 602 -196 595 -174 q 616 -235 608 -218 q 656 -298 628 -261 l 415 -298 q 439 -175 436 -235 q 446 -56 446 -81 q 444 26 446 -6 m 439 227 l 441 433 q 432 620 441 557 q 280 499 336 600 q 224 250 224 399 q 238 123 224 159 q 271 71 252 87 q 318 54 290 54 q 366 65 345 54 q 404 98 387 76 q 439 227 439 144 z "},"r":{"ha":557,"x_min":49,"x_max":541,"o":"m 91 0 q 122 368 122 107 q 92 622 122 554 q 49 685 80 650 l 290 685 q 270 568 277 642 q 448 681 334 648 q 519 726 496 695 q 541 633 541 672 q 537 562 541 595 q 525 498 533 529 q 478 393 507 431 q 400 548 453 526 q 281 476 339 574 q 260 433 269 456 q 260 401 260 417 q 260 368 260 385 q 291 0 260 107 l 91 0 z "},"s":{"ha":612,"x_min":38,"x_max":534,"o":"m 500 725 q 519 643 519 684 q 515 574 519 602 q 504 522 511 547 q 456 435 487 465 q 410 571 435 540 q 360 613 385 602 q 308 624 336 624 q 262 618 280 624 q 232 603 245 613 q 203 552 203 581 q 217 503 203 524 q 255 464 231 482 q 308 429 278 446 l 369 395 q 477 321 448 351 q 534 200 534 264 q 477 60 534 117 q 262 -14 406 -14 q 65 47 131 -14 q 38 83 46 65 q 83 178 43 134 q 159 229 122 222 q 156 202 156 220 q 166 158 156 184 q 195 110 176 132 q 292 58 238 58 q 370 83 345 58 q 395 138 395 107 q 381 191 395 170 q 343 230 367 212 q 290 265 320 248 l 229 300 q 122 378 151 346 q 64 520 64 444 q 132 651 64 601 q 292 699 196 699 l 412 690 q 472 701 455 690 q 500 725 489 711 z "},"t":{"ha":501,"x_min":47,"x_max":505,"o":"m 274 956 q 260 831 260 904 q 263 738 260 758 q 273 705 266 718 q 323 685 286 685 l 505 685 q 486 627 505 647 q 405 590 453 590 q 363 597 381 590 q 311 610 330 610 q 281 603 293 610 q 263 583 270 596 q 251 476 251 558 q 256 308 251 394 q 281 164 261 222 q 343 77 302 106 q 457 47 385 47 q 429 -3 457 26 q 416 -14 421 -11 q 236 15 296 -14 q 138 136 168 49 q 109 397 109 224 q 101 575 109 548 q 86 612 93 603 q 47 637 78 622 q 130 755 89 669 l 164 827 q 225 932 200 908 q 274 956 251 956 z "},"u":{"ha":755,"x_min":58,"x_max":693,"o":"m 630 621 l 620 318 q 652 64 620 133 q 693 0 664 39 l 505 0 q 484 117 489 46 q 281 -14 406 -14 q 151 50 196 -14 q 106 220 106 112 l 106 311 q 106 374 106 342 l 104 435 q 101 527 104 494 q 94 582 98 560 q 85 622 90 604 q 73 654 79 639 l 58 685 l 254 685 q 254 665 254 674 l 254 645 q 243 304 254 645 q 256 169 243 205 q 287 117 269 133 q 334 102 304 102 q 465 190 415 102 q 488 241 479 215 q 489 327 489 279 q 452 654 489 574 l 437 685 l 631 685 q 630 654 630 668 l 630 621 z "},"v":{"ha":698,"x_min":-14,"x_max":669,"o":"m 236 685 q 224 620 224 655 q 229 556 224 584 q 244 492 235 529 l 317 232 l 343 149 q 396 311 383 269 l 420 393 q 460 562 460 530 q 457 610 460 595 q 449 637 454 625 q 422 685 442 656 l 669 685 q 602 581 619 616 l 577 530 q 560 494 571 517 q 427 88 427 191 q 445 0 427 41 l 201 0 q 220 48 217 26 q 223 95 223 71 q 211 165 223 119 q 179 268 199 210 q 134 390 159 326 q 82 512 109 454 q -14 685 22 643 l 236 685 z "},"w":{"ha":1005,"x_min":-12,"x_max":1010,"o":"m 629 685 q 601 545 601 638 q 614 474 601 522 q 661 321 647 365 l 712 174 q 758 315 744 268 q 825 566 825 538 q 823 609 825 594 q 815 636 820 623 q 783 685 807 654 l 1010 685 q 952 599 968 640 q 928 538 936 559 l 844 302 q 799 161 812 207 q 791 83 791 124 q 808 -1 791 41 l 557 0 q 577 48 574 26 q 580 93 580 71 q 573 146 580 115 q 555 220 566 178 q 496 404 532 306 q 417 181 431 235 q 404 84 404 126 q 422 -1 404 43 l 171 0 q 190 48 187 26 q 193 95 193 71 q 183 165 193 119 q 157 268 174 210 q 120 390 141 326 q 76 512 99 454 q -12 685 24 644 l 238 685 q 226 619 226 655 q 231 556 226 583 q 244 494 236 530 q 264 418 253 459 l 332 180 q 440 473 429 426 q 451 534 451 520 q 406 685 451 621 l 629 685 z "},"x":{"ha":673,"x_min":19,"x_max":640,"o":"m 433 567 q 439 620 439 594 q 426 685 439 645 l 626 685 q 590 633 597 644 l 433 389 l 408 347 q 538 149 503 199 l 586 81 q 606 50 597 64 l 621 26 q 640 0 629 15 l 358 0 q 373 41 366 21 q 381 82 381 60 q 372 130 381 104 q 350 181 363 155 q 321 233 336 208 l 292 281 q 208 80 208 163 q 226 0 208 53 l 19 0 l 184 275 q 237 370 218 330 q 128 544 156 503 q 53 656 61 646 l 34 685 l 315 685 q 298 595 298 632 q 359 426 298 534 q 433 567 413 486 z "},"y":{"ha":693,"x_min":34,"x_max":607,"o":"m 449 224 l 450 375 q 442 560 450 517 q 430 621 435 604 q 420 653 426 638 l 407 685 l 607 685 l 604 654 q 598 559 600 621 l 595 456 q 592 234 592 337 q 579 58 592 131 q 546 -71 567 -16 q 498 -167 525 -127 q 441 -235 471 -208 q 326 -305 389 -283 q 299 -285 312 -300 q 284 -258 287 -271 q 380 -164 344 -227 q 444 94 431 -75 q 251 -14 366 -14 q 125 50 170 -14 q 82 220 82 112 l 82 311 q 81 374 82 342 l 81 435 q 77 527 80 494 q 70 582 74 560 q 61 622 66 604 q 49 654 56 639 l 34 685 l 241 685 q 223 318 223 588 q 235 172 223 208 q 263 118 246 135 q 308 102 281 102 q 356 110 335 102 q 393 133 376 119 q 449 204 427 159 l 449 224 m 475 278 l 471 262 l 475 278 z "},"z":{"ha":599,"x_min":21,"x_max":562,"o":"m 540 228 q 558 150 558 190 q 554 87 558 110 q 543 46 551 64 q 498 0 527 5 l 21 0 q 82 98 67 73 q 319 534 303 503 q 334 585 334 565 q 267 624 334 624 q 153 572 199 624 q 73 420 106 519 q 54 511 54 464 q 58 585 54 558 q 71 634 62 612 q 123 685 90 682 l 562 685 q 293 186 320 243 q 265 109 265 128 q 334 68 265 68 q 457 106 410 68 q 540 228 498 140 z "},"{":{"ha":519,"x_min":45,"x_max":509,"o":"m 136 461 q 45 597 136 599 l 45 644 q 136 808 133 642 q 136 882 136 833 q 157 995 136 931 q 218 1104 178 1059 q 454 1200 304 1200 q 476 1177 466 1195 q 488 1153 486 1159 q 339 1089 382 1153 q 298 882 298 1029 q 182 623 298 675 q 285 522 258 596 q 298 396 298 485 q 308 225 298 307 q 340 87 317 144 q 404 -6 363 31 q 509 -68 445 -43 q 475 -109 497 -92 q 250 20 347 -109 q 136 461 136 172 z "},"|":{"ha":413,"x_min":127,"x_max":286,"o":"m 286 1160 q 269 1032 271 1116 q 267 891 267 948 q 266 770 266 835 l 264 633 q 264 498 264 563 l 264 374 q 270 24 264 80 q 286 -81 278 -56 l 127 -81 q 142 13 140 -35 q 144 92 143 60 q 146 168 146 123 q 148 265 147 213 q 149 374 149 317 l 149 492 q 148 633 149 563 l 148 770 q 146 891 147 835 q 144 984 145 948 q 143 1044 144 1020 q 140 1088 142 1068 q 127 1160 137 1124 l 286 1160 z "},"}":{"ha":519,"x_min":11,"x_max":475,"o":"m 384 461 q 475 597 384 599 l 475 644 q 384 808 387 642 q 384 882 384 833 q 363 995 384 931 q 301 1104 342 1059 q 65 1200 216 1200 q 43 1177 54 1195 q 31 1153 33 1159 q 180 1089 138 1153 q 221 882 221 1029 q 337 623 221 675 q 235 522 261 596 q 221 396 221 485 q 212 225 221 307 q 179 87 203 144 q 115 -6 156 31 q 11 -68 75 -43 q 45 -109 22 -92 q 269 20 173 -109 q 384 461 384 172 z "},"~":{"ha":866,"x_min":45,"x_max":838,"o":"m 45 312 q 170 496 93 427 q 327 563 245 563 q 488 481 421 563 l 521 442 q 592 400 559 400 q 652 414 625 400 q 700 449 679 428 q 739 495 722 471 l 770 543 l 838 502 q 712 318 789 387 q 555 251 637 251 q 395 332 461 251 l 361 372 q 290 414 323 414 q 230 400 257 414 q 182 365 203 386 q 144 319 161 343 l 113 271 l 45 312 z "}," ":{"ha":458,"x_min":0,"x_max":0,"o":""},"¡":{"ha":463,"x_min":109,"x_max":364,"o":"m 177 426 q 163 125 177 286 l 144 -96 q 109 -281 135 -192 l 237 -330 l 364 -281 q 305 121 329 -160 q 294 318 294 249 q 296 426 294 387 l 177 426 m 124 635 q 156 553 124 588 q 233 519 188 519 q 311 553 279 519 q 342 635 342 588 q 311 718 342 684 q 233 751 278 751 q 156 718 189 751 q 124 635 124 684 z "},"¢":{"ha":591,"x_min":41,"x_max":533,"o":"m 256 -81 q 283 42 271 -37 q 62 307 118 137 q 41 436 41 370 q 56 548 41 502 q 102 628 72 595 q 271 699 163 699 q 320 696 297 699 q 303 814 318 765 l 435 814 q 414 686 425 783 q 425 685 419 685 l 435 685 q 480 692 460 685 q 516 726 500 699 q 533 636 533 685 q 530 556 533 588 q 519 494 526 524 q 475 393 505 431 q 404 596 451 543 q 378 96 393 486 q 511 47 452 47 q 494 13 509 30 q 461 -14 479 -4 q 376 1 425 -14 q 388 -81 377 -43 l 256 -81 m 298 166 q 321 631 321 427 q 204 525 232 627 q 195 449 195 492 q 203 363 195 405 q 225 286 211 322 q 298 166 252 218 z "},"£":{"ha":699,"x_min":20,"x_max":667,"o":"m 189 541 q 60 522 109 538 l 60 631 q 183 612 100 617 q 180 634 182 614 q 170 685 178 654 l 153 746 q 132 872 132 824 q 148 952 132 921 q 193 1005 163 983 q 351 1051 254 1051 q 436 1046 412 1051 l 469 1040 q 496 1038 479 1038 q 525 1040 513 1038 q 545 1047 536 1042 q 581 1085 559 1055 q 628 884 613 1061 q 630 840 630 865 q 628 789 630 815 q 623 745 627 762 q 591 699 614 711 q 525 882 582 797 q 380 977 461 977 q 291 921 309 977 q 286 885 286 904 q 290 842 286 867 q 300 789 294 817 l 312 730 q 331 610 326 663 q 529 631 466 610 l 529 522 q 334 543 468 543 q 304 201 334 415 q 298 140 298 159 q 304 106 298 121 q 324 84 310 92 q 416 68 351 68 q 516 81 481 68 q 575 119 551 95 q 614 178 598 144 l 652 251 q 667 182 667 220 q 663 118 667 144 q 649 68 658 92 q 600 0 630 17 l 20 0 q 138 218 78 37 q 168 324 163 290 q 177 376 174 358 q 183 414 180 395 q 189 486 189 458 l 189 522 q 189 541 189 531 z "},"¤":{"ha":686,"x_min":56,"x_max":632,"o":"m 542 583 q 595 432 595 525 q 545 274 595 339 l 585 226 q 628 177 605 201 l 573 122 l 520 169 q 468 210 494 191 q 342 183 412 183 q 219 210 273 183 q 167 168 193 191 l 115 122 l 60 177 q 141 273 106 227 q 92 432 92 338 q 145 584 92 526 q 56 691 105 636 l 111 746 q 237 641 178 682 q 343 658 286 658 q 450 641 401 658 q 577 746 511 684 l 632 691 q 584 636 606 663 l 542 583 m 343 258 q 417 303 391 258 q 443 429 443 348 q 343 583 443 583 q 270 546 296 583 q 243 429 243 509 q 270 303 243 348 q 343 258 296 258 z "},"¥":{"ha":699,"x_min":16,"x_max":684,"o":"m 280 258 q 33 239 104 258 l 33 347 q 171 330 96 332 q 280 327 246 328 l 280 381 l 281 463 l 281 479 q 33 459 104 479 l 33 568 q 164 550 92 553 q 269 547 237 548 q 224 668 253 608 l 126 873 q 16 1038 64 1006 l 298 1038 q 291 982 291 1018 q 321 824 291 897 l 351 755 q 393 679 368 718 q 431 751 416 713 l 461 824 q 500 1011 500 922 q 498 1038 500 1026 l 684 1038 q 551 817 625 975 l 522 753 q 450 548 465 631 q 665 568 589 551 l 665 459 q 444 479 587 475 l 444 328 q 665 347 593 331 l 665 239 q 444 258 587 255 l 444 179 q 460 82 444 112 q 495 35 477 52 q 539 0 513 18 l 193 0 q 261 71 248 42 q 280 163 280 110 l 280 258 z "},"¦":{"ha":399,"x_min":127,"x_max":273,"o":"m 273 1160 q 262 989 262 1102 l 260 796 q 266 631 260 683 l 134 631 q 139 796 139 682 l 138 989 q 127 1160 138 1103 l 273 1160 m 260 282 l 262 90 q 273 -81 262 -24 l 127 -81 q 138 90 138 -24 l 139 282 q 134 448 139 397 l 266 448 q 260 282 260 395 z "},"§":{"ha":743,"x_min":80,"x_max":646,"o":"m 263 728 q 161 941 161 840 q 205 1051 161 1008 q 338 1099 252 1099 q 398 1094 376 1099 q 454 1085 439 1085 q 479 1087 469 1085 q 496 1093 489 1088 q 526 1131 509 1102 q 575 976 554 1112 q 583 904 583 930 q 581 857 583 878 q 574 820 578 836 q 536 775 562 784 q 486 943 529 866 q 374 1031 436 1031 q 321 1002 337 1031 q 313 940 308 978 q 345 865 318 903 q 409 787 372 827 l 488 705 q 646 436 646 546 q 542 250 646 320 q 473 214 510 228 q 556 44 556 119 q 499 -104 556 -47 q 342 -163 440 -163 q 152 -79 222 -163 q 117 -16 129 -52 q 174 83 146 54 q 270 144 218 127 q 251 45 251 86 q 258 -21 251 3 q 279 -62 266 -45 q 342 -95 305 -95 q 391 -79 376 -95 q 414 -13 414 -51 q 390 67 414 26 q 328 149 365 108 q 247 231 290 189 q 167 316 204 272 q 80 511 80 420 q 129 648 80 589 q 263 728 179 707 m 416 273 q 496 403 496 309 q 382 608 496 497 l 318 671 q 233 587 254 655 q 227 537 227 566 q 244 475 227 509 q 288 408 261 441 q 349 340 315 374 l 416 273 z "},"¨":{"ha":682,"x_min":98,"x_max":585,"o":"m 263 858 q 257 848 263 858 q 233 824 250 838 q 193 810 215 810 q 153 824 170 810 q 123 858 135 838 q 98 946 98 900 q 149 1021 98 1002 q 193 1027 167 1027 q 283 977 267 1027 q 289 944 289 962 q 282 902 289 926 q 263 858 275 878 m 558 858 q 552 848 558 858 q 528 824 546 838 q 488 810 511 810 q 448 824 466 810 q 418 858 431 838 q 393 946 393 900 q 444 1021 393 1002 q 489 1027 463 1027 q 579 977 562 1027 q 585 944 585 962 q 578 902 585 926 q 558 858 571 878 z "},"©":{"ha":1096,"x_min":68,"x_max":1025,"o":"m 205 146 q 173 181 205 146 q 104 311 141 216 q 68 499 68 406 q 84 661 68 593 q 132 786 101 728 q 206 891 163 844 q 302 970 249 937 q 547 1038 413 1038 q 791 970 680 1038 q 962 787 899 904 q 1025 536 1025 666 q 989 311 1025 406 q 888 146 952 216 q 736 39 823 77 q 547 0 648 0 q 357 39 445 0 q 205 146 270 77 m 173 518 q 280 209 173 330 q 547 88 387 88 q 813 209 707 88 q 920 518 920 330 q 813 827 920 705 q 547 949 707 949 q 280 827 387 949 q 173 518 173 705 m 734 827 q 751 751 751 792 q 747 686 751 710 q 736 640 744 663 q 692 563 721 591 q 659 694 675 665 q 624 733 642 723 q 579 744 606 744 q 528 729 551 744 q 488 688 505 715 q 454 536 454 632 q 525 293 454 355 q 583 271 549 271 q 653 301 617 271 q 716 400 688 331 q 740 347 740 382 q 719 258 740 289 l 692 241 q 563 203 631 203 q 449 229 494 203 q 372 300 404 255 q 305 529 305 392 q 366 735 305 659 q 539 814 430 814 q 597 807 570 814 q 650 800 624 800 q 697 805 676 800 q 734 827 718 809 z "},"ª":{"ha":650,"x_min":88,"x_max":580,"o":"m 403 535 q 226 461 344 461 q 122 505 160 461 q 88 598 88 545 q 113 691 88 652 q 178 758 137 731 q 380 812 255 808 l 380 817 q 367 932 380 905 q 341 968 355 960 q 303 977 327 977 q 254 962 279 977 q 208 924 229 947 q 149 814 165 875 q 123 921 123 842 q 129 997 123 954 q 168 1004 150 997 q 209 1017 168 1004 q 326 1038 270 1038 q 416 1023 381 1038 q 472 979 451 1009 q 512 792 512 924 l 511 765 q 510 702 510 735 q 510 649 510 669 q 511 612 511 630 q 518 556 514 573 q 528 527 522 538 q 542 507 534 515 q 559 491 549 498 l 580 475 l 420 475 l 403 535 m 378 673 l 380 747 q 229 656 266 738 q 216 595 216 629 q 264 529 216 529 q 339 570 304 529 q 378 673 378 614 z "},"«":{"ha":888,"x_min":163,"x_max":725,"o":"m 440 624 q 338 349 416 492 q 440 75 416 207 q 408 109 429 87 l 301 212 q 163 312 193 312 l 163 387 q 301 487 193 387 q 440 624 410 590 m 725 624 q 623 349 701 492 q 725 75 701 207 q 692 109 714 87 l 586 212 q 448 312 478 312 l 448 387 q 586 487 478 387 q 725 624 694 590 z "},"¬":{"ha":968,"x_min":121,"x_max":868,"o":"m 848 446 q 868 54 848 153 l 726 54 q 746 387 746 163 q 432 393 644 393 q 121 373 219 393 l 121 516 q 485 496 219 496 q 848 516 751 496 l 848 446 z "},"­":{"ha":833,"x_min":0,"x_max":0,"o":""},"®":{"ha":821,"x_min":60,"x_max":762,"o":"m 60 644 q 161 930 60 820 q 411 1038 259 1038 q 661 930 562 1038 q 762 644 762 821 q 661 357 762 467 q 411 250 562 250 q 161 357 259 250 q 60 644 60 467 m 147 644 q 223 413 147 504 q 411 324 298 324 q 599 413 524 324 q 675 644 675 504 q 599 874 675 783 q 411 963 524 963 q 223 874 298 963 q 147 644 147 783 m 245 434 q 267 578 267 484 q 264 654 267 621 l 261 707 q 259 746 260 728 q 256 779 258 764 q 250 804 254 793 q 224 841 244 823 l 418 841 q 547 822 505 841 q 589 753 589 802 q 511 650 589 688 q 558 469 513 537 q 593 434 573 447 l 463 434 q 438 534 444 477 q 431 604 433 592 q 424 623 429 615 q 387 637 414 637 q 359 580 359 637 q 379 434 359 488 l 245 434 m 484 746 q 406 793 484 793 q 369 788 374 793 q 359 755 359 781 q 361 718 359 730 q 367 696 362 705 q 402 678 377 678 q 442 685 427 678 q 467 703 457 692 q 484 746 484 722 z "},"¯":{"ha":684,"x_min":107,"x_max":576,"o":"m 107 943 q 343 929 171 929 q 576 943 515 929 l 576 814 q 343 827 515 827 q 107 814 171 827 l 107 943 z "},"°":{"ha":619,"x_min":79,"x_max":541,"o":"m 310 963 q 236 926 262 963 q 210 835 210 889 q 218 754 210 781 q 239 709 226 727 q 310 671 266 671 q 401 754 378 671 q 410 835 410 781 q 384 926 410 889 q 310 963 357 963 m 541 817 q 476 654 541 713 q 310 597 412 597 q 144 654 208 597 q 79 817 79 713 q 144 981 79 920 q 310 1038 207 1038 q 476 981 413 1038 q 541 817 541 920 z "},"±":{"ha":873,"x_min":121,"x_max":753,"o":"m 386 481 q 121 461 207 481 l 121 604 q 386 583 207 583 q 366 848 386 767 l 508 848 q 488 583 488 767 q 753 604 671 583 l 753 461 q 488 481 671 481 q 508 216 488 302 l 366 216 q 386 481 386 302 m 121 129 q 436 109 204 109 q 753 129 667 109 l 753 -14 q 436 7 667 7 q 121 -14 204 7 l 121 129 z "},"²":{"ha":614,"x_min":71,"x_max":536,"o":"m 522 556 q 536 481 536 521 q 530 420 536 441 q 515 380 525 399 q 456 326 492 340 l 71 326 q 96 370 79 341 l 236 611 l 285 703 q 366 904 366 859 q 353 966 366 949 q 307 983 340 983 q 246 959 273 983 q 198 898 219 935 q 150 732 156 823 q 95 902 95 757 q 109 985 95 939 q 156 1085 134 1073 q 184 1049 174 1057 q 226 1038 202 1038 q 273 1044 250 1038 q 333 1051 296 1051 q 402 1042 371 1051 q 454 1015 433 1032 q 495 933 495 981 q 479 838 495 884 q 441 742 464 791 q 391 643 418 692 l 340 551 q 286 420 286 449 q 323 387 286 389 q 357 387 335 387 q 402 399 378 387 q 446 433 426 411 q 522 556 479 469 z "},"³":{"ha":591,"x_min":95,"x_max":529,"o":"m 373 1053 q 509 943 509 1053 q 392 768 509 840 q 494 718 459 755 q 529 634 529 682 q 512 546 529 587 q 467 470 496 505 q 400 406 439 435 q 317 355 361 376 q 128 312 222 312 q 103 341 111 323 q 95 366 96 359 q 290 437 206 366 q 376 604 376 509 q 353 674 376 654 q 217 712 310 712 q 197 773 197 736 q 313 824 254 778 q 378 929 378 875 q 363 972 378 961 q 319 983 349 983 q 262 969 290 983 q 211 933 233 955 q 156 834 161 884 q 117 947 117 851 q 147 1066 117 1014 q 163 1085 155 1080 q 189 1042 179 1050 q 223 1031 204 1031 q 258 1034 243 1031 l 292 1042 q 373 1053 339 1053 z "},"´":{"ha":442,"x_min":217,"x_max":503,"o":"m 503 1038 q 334 796 443 907 q 294 760 309 770 l 217 760 q 237 799 225 774 q 312 981 294 929 q 329 1038 329 1034 l 503 1038 z "},"µ":{"ha":774,"x_min":54,"x_max":722,"o":"m 269 646 l 258 318 q 272 173 258 211 q 308 118 287 135 q 360 102 328 102 q 417 114 393 102 q 461 146 441 126 q 517 242 496 183 q 517 279 517 260 l 517 318 q 481 654 517 574 q 466 685 481 654 l 659 685 q 660 665 660 674 l 660 645 q 648 318 660 645 q 681 64 648 133 q 722 0 692 39 l 528 0 l 524 27 q 512 123 515 71 q 337 -14 447 -14 q 248 24 283 -14 q 263 -184 254 -151 q 281 -235 273 -218 q 300 -267 290 -252 l 323 -298 l 96 -298 q 118 -169 115 -233 q 122 -58 121 -104 q 125 37 124 -12 q 128 228 128 133 q 110 582 128 516 q 82 645 99 623 l 54 685 l 269 685 l 269 646 z "},"¶":{"ha":851,"x_min":63,"x_max":764,"o":"m 696 151 q 734 0 702 58 l 549 0 q 569 82 567 45 q 573 160 572 119 q 576 260 575 200 l 578 385 q 579 516 579 449 l 581 648 q 581 772 581 712 l 581 883 q 572 946 581 935 q 532 963 559 963 q 494 960 505 963 q 476 949 483 958 q 464 884 464 935 l 464 772 q 464 648 464 712 l 465 516 q 467 385 465 449 l 468 260 q 476 71 471 100 q 496 0 484 29 l 296 0 q 336 98 330 43 q 347 292 346 174 l 349 450 q 349 525 349 490 l 349 590 q 297 685 349 685 q 119 746 183 685 q 63 875 63 801 q 130 1002 63 966 q 357 1038 197 1038 l 764 1038 q 720 975 730 1004 q 703 868 705 929 q 700 749 701 808 q 698 628 699 690 q 697 502 697 566 l 696 377 q 696 258 696 315 l 696 151 z "},"·":{"ha":463,"x_min":124,"x_max":342,"o":"m 124 394 q 156 476 124 441 q 233 510 188 510 q 311 476 279 510 q 342 394 342 441 q 311 312 342 345 q 233 278 278 278 q 156 312 189 278 q 124 394 124 345 z "},"¸":{"ha":409,"x_min":95,"x_max":332,"o":"m 260 39 q 243 -73 243 -3 l 271 -90 q 332 -183 332 -125 q 279 -293 332 -249 q 136 -339 224 -339 q 113 -317 121 -330 l 101 -300 q 95 -292 98 -294 q 210 -220 176 -283 q 220 -176 220 -200 q 151 -98 220 -122 q 200 60 190 -24 l 260 39 z "},"¹":{"ha":451,"x_min":81,"x_max":349,"o":"m 341 1038 q 319 677 319 949 q 349 326 319 406 l 155 326 q 191 681 191 437 l 191 762 q 187 888 191 854 q 137 875 160 875 q 81 888 102 875 q 209 998 150 935 q 241 1038 229 1019 l 341 1038 z "},"º":{"ha":619,"x_min":79,"x_max":541,"o":"m 310 977 q 239 930 260 977 q 217 769 217 883 q 310 522 217 522 q 381 588 359 522 q 403 769 403 654 q 381 930 403 883 q 310 977 359 977 m 310 1038 q 541 790 541 1038 q 408 484 541 553 q 310 461 365 461 q 140 548 200 461 q 79 790 79 635 q 310 1038 79 1038 z "},"»":{"ha":888,"x_min":163,"x_max":725,"o":"m 163 624 q 265 349 186 492 q 163 75 186 207 q 195 109 174 87 l 302 212 q 440 312 410 312 l 440 387 q 302 487 410 387 q 163 624 193 590 m 448 624 q 550 349 471 492 q 448 75 471 207 q 480 109 458 87 l 587 212 q 725 312 694 312 l 725 387 q 587 487 694 387 q 448 624 478 590 z "},"¼":{"ha":1342,"x_min":81,"x_max":1241,"o":"m 753 289 q 811 675 811 435 q 808 709 811 707 l 977 709 l 960 659 q 905 382 932 571 q 897 332 900 352 q 912 304 893 311 q 971 296 930 296 l 1038 296 q 1036 407 1038 370 q 1032 460 1034 443 q 1028 490 1030 477 q 1025 515 1027 504 l 1021 540 l 1171 540 l 1166 515 q 1149 300 1154 427 q 1241 331 1190 304 l 1241 205 l 1223 214 q 1147 231 1194 228 q 1146 212 1146 221 l 1146 192 q 1155 73 1146 109 q 1168 24 1164 36 q 1175 0 1171 13 l 993 0 l 1004 24 q 1031 139 1027 78 q 1037 233 1036 201 l 729 233 q 753 289 745 269 m 552 142 q 543 61 543 93 q 551 0 543 29 l 412 0 q 455 142 445 92 l 610 887 q 622 977 622 947 q 612 1038 622 1006 l 758 1038 l 747 1010 q 709 900 722 951 q 661 677 678 760 l 552 142 m 341 1038 q 319 677 319 949 q 349 326 319 406 l 155 326 q 191 681 191 437 l 191 762 q 187 888 191 854 q 137 875 160 875 q 81 888 102 875 q 209 998 150 935 q 241 1038 229 1019 l 341 1038 z "},"½":{"ha":1307,"x_min":81,"x_max":1221,"o":"m 1207 231 q 1221 155 1221 195 q 1215 94 1221 115 q 1200 55 1210 73 q 1141 0 1177 14 l 756 0 q 781 45 764 16 l 921 286 l 970 377 q 1051 578 1051 533 q 1038 641 1051 623 q 992 658 1025 658 q 931 634 958 658 q 883 572 904 610 q 835 407 841 497 q 780 576 780 431 q 793 659 780 614 q 841 760 819 747 q 869 724 859 731 q 911 712 887 712 q 958 719 935 712 q 1018 726 981 726 q 1087 716 1056 726 q 1139 690 1118 707 q 1180 607 1180 656 q 1164 512 1180 559 q 1126 416 1149 466 q 1076 317 1103 367 l 1025 225 q 970 95 970 123 q 1008 62 970 64 q 1042 61 1020 61 q 1087 73 1063 61 q 1131 107 1111 85 q 1207 231 1164 143 m 552 142 q 543 61 543 93 q 551 0 543 29 l 412 0 q 455 142 445 92 l 610 887 q 622 977 622 947 q 612 1038 622 1006 l 758 1038 l 747 1010 q 709 900 722 951 q 661 677 678 760 l 552 142 m 341 1038 q 319 677 319 949 q 349 326 319 406 l 155 326 q 191 681 191 437 l 191 762 q 187 888 191 854 q 137 875 160 875 q 81 888 102 875 q 209 998 150 935 q 241 1038 229 1019 l 341 1038 z "},"¾":{"ha":1453,"x_min":95,"x_max":1356,"o":"m 868 289 q 926 675 926 435 q 924 709 926 707 l 1092 709 l 1076 659 q 1020 382 1047 571 q 1012 332 1015 352 q 1027 304 1008 311 q 1086 296 1046 296 l 1154 296 q 1151 407 1154 370 q 1147 460 1149 443 q 1144 490 1145 477 q 1141 515 1142 504 l 1137 540 l 1286 540 l 1282 515 q 1264 300 1269 427 q 1356 331 1305 304 l 1356 205 l 1339 214 q 1262 231 1310 228 q 1261 212 1261 221 l 1261 192 q 1271 73 1261 109 q 1283 24 1280 36 q 1290 0 1286 13 l 1108 0 l 1119 24 q 1146 139 1142 78 q 1152 233 1151 201 l 844 233 q 868 289 860 269 m 373 1053 q 509 943 509 1053 q 392 768 509 840 q 494 718 459 755 q 529 634 529 682 q 512 546 529 587 q 467 470 496 505 q 400 406 439 435 q 317 355 361 376 q 128 312 222 312 q 103 341 111 323 q 95 366 96 359 q 290 437 206 366 q 376 604 376 509 q 353 674 376 654 q 217 712 310 712 q 197 773 197 736 q 313 824 254 778 q 378 929 378 875 q 363 972 378 961 q 319 983 349 983 q 262 969 290 983 q 211 933 233 955 q 156 834 161 884 q 117 947 117 851 q 147 1066 117 1014 q 163 1085 155 1080 q 189 1042 179 1050 q 223 1031 204 1031 q 258 1034 243 1031 l 292 1042 q 373 1053 339 1053 m 667 142 q 658 61 658 93 q 667 0 658 29 l 528 0 q 570 142 560 92 l 725 887 q 737 977 737 947 q 728 1038 737 1006 l 873 1038 l 862 1010 q 825 900 837 951 q 777 677 793 760 l 667 142 z "},"¿":{"ha":695,"x_min":46,"x_max":607,"o":"m 561 92 q 607 -121 607 68 q 571 -319 607 -261 q 551 -338 562 -334 q 518 -303 530 -309 q 475 -293 500 -293 q 433 -296 450 -293 l 396 -301 q 293 -310 341 -310 q 198 -297 244 -310 q 119 -258 152 -284 q 47 -87 50 -202 q 190 159 46 31 q 309 279 281 239 q 336 346 336 318 q 334 387 336 374 q 329 410 332 400 q 321 427 326 420 l 309 446 l 464 446 q 414 252 469 344 q 370 186 393 218 l 323 120 q 236 -113 236 3 q 317 -229 236 -229 q 437 -176 380 -229 q 547 22 513 -105 q 561 92 557 58 m 498 635 q 467 553 498 588 q 389 519 435 519 q 312 553 344 519 q 280 635 280 588 q 312 718 280 684 q 389 751 345 751 q 467 718 434 751 q 498 635 498 684 z "},"À":{"ha":787,"x_min":45,"x_max":788,"o":"m 551 0 q 560 68 560 43 q 559 106 560 94 q 556 134 558 119 q 552 166 555 149 q 548 208 550 184 q 437 475 532 370 q 347 545 395 521 q 266 569 298 569 q 218 565 235 569 q 180 327 180 451 q 191 163 180 217 q 248 -1 210 81 l 45 -1 q 61 171 61 40 q 81 415 61 301 q 132 617 100 528 q 202 773 163 706 q 280 889 241 840 q 354 975 319 939 q 412 1038 389 1010 l 625 1038 q 596 945 596 1004 q 605 856 596 918 l 622 732 q 788 0 715 92 l 551 0 m 245 637 q 301 647 272 647 q 354 643 330 647 q 400 629 377 639 q 483 569 450 610 q 442 782 450 743 l 418 901 l 380 854 q 245 637 298 757 m 427 1352 q 467 1290 427 1341 q 583 1148 560 1170 l 483 1148 q 311 1282 397 1192 q 253 1352 278 1314 l 427 1352 z "},"Á":{"ha":787,"x_min":45,"x_max":788,"o":"m 551 0 q 560 68 560 43 q 559 106 560 94 q 556 134 558 119 q 552 166 555 149 q 548 208 550 184 q 437 475 532 370 q 347 545 395 521 q 266 569 298 569 q 218 565 235 569 q 180 327 180 451 q 191 163 180 217 q 248 -1 210 81 l 45 -1 q 61 171 61 40 q 81 415 61 301 q 132 617 100 528 q 202 773 163 706 q 280 889 241 840 q 354 975 319 939 q 412 1038 389 1010 l 625 1038 q 596 945 596 1004 q 605 856 596 918 l 622 732 q 788 0 715 92 l 551 0 m 245 637 q 301 647 272 647 q 354 643 330 647 q 400 629 377 639 q 483 569 450 610 q 442 782 450 743 l 418 901 l 380 854 q 245 637 298 757 m 764 1351 q 582 1176 699 1253 q 534 1147 553 1157 l 434 1147 q 461 1177 446 1158 q 529 1261 461 1177 q 590 1351 590 1340 l 764 1351 z "},"Â":{"ha":787,"x_min":45,"x_max":788,"o":"m 551 0 q 560 68 560 43 q 559 106 560 94 q 556 134 558 119 q 552 166 555 149 q 548 208 550 184 q 437 475 532 370 q 347 545 395 521 q 266 569 298 569 q 218 565 235 569 q 180 327 180 451 q 191 163 180 217 q 248 -1 210 81 l 45 -1 q 61 171 61 40 q 81 415 61 301 q 132 617 100 528 q 202 773 163 706 q 280 889 241 840 q 354 975 319 939 q 412 1038 389 1010 l 625 1038 q 596 945 596 1004 q 605 856 596 918 l 622 732 q 788 0 715 92 l 551 0 m 245 637 q 301 647 272 647 q 354 643 330 647 q 400 629 377 639 q 483 569 450 610 q 442 782 450 743 l 418 901 l 380 854 q 245 637 298 757 m 656 1140 q 492 1245 572 1177 q 328 1140 404 1174 l 258 1140 q 288 1171 271 1152 q 387 1291 368 1267 l 415 1327 q 427 1343 425 1340 l 558 1343 q 570 1327 559 1340 q 726 1140 699 1166 l 656 1140 z "},"Ã":{"ha":787,"x_min":45,"x_max":788,"o":"m 551 0 q 560 68 560 43 q 559 106 560 94 q 556 134 558 119 q 552 166 555 149 q 548 208 550 184 q 437 475 532 370 q 347 545 395 521 q 266 569 298 569 q 218 565 235 569 q 180 327 180 451 q 191 163 180 217 q 248 -1 210 81 l 45 -1 q 61 171 61 40 q 81 415 61 301 q 132 617 100 528 q 202 773 163 706 q 280 889 241 840 q 354 975 319 939 q 412 1038 389 1010 l 625 1038 q 596 945 596 1004 q 605 856 596 918 l 622 732 q 788 0 715 92 l 551 0 m 245 637 q 301 647 272 647 q 354 643 330 647 q 400 629 377 639 q 483 569 450 610 q 442 782 450 743 l 418 901 l 380 854 q 245 637 298 757 m 239 1204 q 321 1314 273 1276 q 409 1353 370 1353 q 470 1347 449 1353 q 507 1330 491 1340 q 535 1309 523 1320 q 559 1287 547 1297 q 607 1265 585 1265 q 643 1271 628 1265 q 669 1288 657 1278 q 690 1310 680 1298 l 707 1333 l 747 1292 q 668 1191 714 1226 q 583 1156 622 1156 q 524 1163 545 1156 q 487 1179 503 1169 q 458 1200 471 1189 q 435 1222 446 1212 q 387 1244 408 1244 q 351 1238 366 1244 q 325 1221 336 1232 q 304 1199 313 1211 l 287 1177 l 239 1204 z "},"Ä":{"ha":787,"x_min":45,"x_max":788,"o":"m 551 0 q 560 68 560 43 q 559 106 560 94 q 556 134 558 119 q 552 166 555 149 q 548 208 550 184 q 437 475 532 370 q 347 545 395 521 q 266 569 298 569 q 218 565 235 569 q 180 327 180 451 q 191 163 180 217 q 248 -1 210 81 l 45 -1 q 61 171 61 40 q 81 415 61 301 q 132 617 100 528 q 202 773 163 706 q 280 889 241 840 q 354 975 319 939 q 412 1038 389 1010 l 625 1038 q 596 945 596 1004 q 605 856 596 918 l 622 732 q 788 0 715 92 l 551 0 m 245 637 q 301 647 272 647 q 354 643 330 647 q 400 629 377 639 q 483 569 450 610 q 442 782 450 743 l 418 901 l 380 854 q 245 637 298 757 m 418 1169 q 413 1160 418 1169 q 390 1137 407 1150 q 352 1124 373 1124 q 314 1137 331 1124 q 286 1169 298 1150 q 262 1238 262 1208 q 267 1281 262 1267 q 283 1305 272 1295 q 342 1329 307 1329 q 395 1323 378 1329 q 422 1305 412 1316 q 443 1259 443 1285 q 436 1211 443 1233 q 418 1169 430 1188 m 698 1169 q 692 1160 698 1169 q 669 1137 686 1150 q 631 1124 652 1124 q 594 1137 610 1124 q 566 1169 577 1150 q 542 1238 542 1208 q 547 1281 542 1267 q 562 1305 551 1295 q 621 1329 585 1329 q 674 1323 656 1329 q 702 1305 691 1316 q 722 1259 722 1285 q 716 1211 722 1233 q 698 1169 709 1188 z "},"Å":{"ha":787,"x_min":45,"x_max":788,"o":"m 551 0 q 560 68 560 43 q 559 106 560 94 q 556 134 558 119 q 552 166 555 149 q 548 208 550 184 q 437 475 532 370 q 347 545 395 521 q 266 569 298 569 q 218 565 235 569 q 180 327 180 451 q 191 163 180 217 q 248 -1 210 81 l 45 -1 q 61 171 61 40 q 81 415 61 301 q 132 617 100 528 q 202 773 163 706 q 280 889 241 840 q 354 975 319 939 q 412 1038 389 1010 l 625 1038 q 596 945 596 1004 q 605 856 596 918 l 622 732 q 788 0 715 92 l 551 0 m 245 637 q 301 647 272 647 q 354 643 330 647 q 400 629 377 639 q 483 569 450 610 q 442 782 450 743 l 418 901 l 380 854 q 245 637 298 757 m 492 1314 q 421 1225 421 1314 q 442 1161 421 1183 q 492 1139 463 1139 q 543 1161 522 1139 q 564 1225 564 1183 q 492 1314 564 1314 m 670 1225 q 616 1119 670 1158 q 492 1082 567 1082 q 368 1119 417 1082 q 315 1225 315 1158 q 368 1333 315 1294 q 492 1370 416 1370 q 655 1288 611 1370 q 670 1225 670 1261 z "},"Æ":{"ha":1147,"x_min":45,"x_max":1093,"o":"m 45 0 q 68 160 68 77 q 80 319 68 243 q 111 460 92 395 q 298 806 166 643 q 434 956 374 899 q 513 1038 493 1013 l 1023 1038 q 1086 924 1069 1021 q 1090 871 1090 897 q 1075 787 1090 818 l 1039 860 q 933 956 1002 932 q 848 970 895 970 q 780 967 800 970 q 749 952 760 964 q 731 877 731 932 q 734 801 731 822 q 747 766 736 779 q 836 739 768 739 l 1048 739 q 1017 684 1033 700 q 928 651 984 651 q 887 656 907 651 q 823 665 850 665 q 777 660 795 665 q 749 644 759 654 q 731 575 731 625 l 731 252 q 745 100 731 124 q 780 72 760 77 q 848 68 800 68 q 934 81 895 68 q 999 119 972 95 q 1042 177 1025 144 q 1075 251 1059 211 q 1093 178 1093 226 q 1089 103 1093 131 q 1076 52 1085 75 q 1023 0 1056 0 l 545 0 q 563 142 563 50 q 538 327 563 235 q 475 477 513 418 q 389 564 436 536 q 296 591 341 591 l 290 591 q 191 253 191 406 q 248 0 191 101 l 45 0 m 564 922 l 515 876 q 327 654 406 773 q 365 656 339 656 q 422 645 390 656 q 480 616 454 635 q 564 512 533 579 l 564 922 z "},"Ç":{"ha":696,"x_min":37,"x_max":656,"o":"m 636 1085 q 656 1000 656 1057 q 652 907 656 943 q 641 838 648 871 q 595 726 625 764 q 530 913 570 857 q 421 970 488 970 q 315 944 353 970 q 257 876 277 918 q 223 670 223 806 q 254 421 223 534 q 342 227 285 309 q 654 54 462 54 q 623 1 652 24 q 604 -7 614 -5 q 202 174 357 -7 q 37 699 37 367 q 139 960 37 873 q 386 1038 229 1038 l 499 1036 q 612 1059 579 1036 q 636 1085 625 1069 m 394 39 q 377 -73 377 -3 l 405 -90 q 467 -183 467 -125 q 413 -293 467 -249 q 270 -339 358 -339 q 247 -317 256 -330 l 235 -300 q 229 -292 232 -294 q 345 -220 311 -283 q 355 -176 355 -200 q 286 -98 355 -122 q 334 60 324 -24 l 394 39 z "},"È":{"ha":668,"x_min":16,"x_max":635,"o":"m 617 251 q 635 178 635 226 q 631 103 635 131 q 618 52 627 75 q 565 0 598 0 l 16 0 q 85 54 68 28 q 117 176 117 102 q 116 503 116 357 l 116 860 q 84 1006 116 961 q 55 1038 72 1023 l 565 1038 q 628 924 611 1021 q 633 871 633 897 q 617 787 633 818 l 581 860 q 475 956 544 932 q 390 970 437 970 q 322 967 342 970 q 291 952 302 964 q 273 877 273 932 q 276 801 273 822 q 289 766 279 779 q 378 739 310 739 l 591 739 q 559 684 575 700 q 471 651 526 651 q 429 656 449 651 q 365 665 393 665 q 319 660 337 665 q 291 644 301 654 q 273 575 273 625 l 273 252 q 288 100 273 124 q 322 72 302 77 q 390 68 342 68 q 476 81 437 68 q 541 119 515 95 q 584 177 567 144 q 617 251 601 211 m 314 1352 q 353 1290 314 1341 q 470 1148 447 1170 l 370 1148 q 197 1282 284 1192 q 140 1352 165 1314 l 314 1352 z "},"É":{"ha":668,"x_min":16,"x_max":651,"o":"m 617 251 q 635 178 635 226 q 631 103 635 131 q 618 52 627 75 q 565 0 598 0 l 16 0 q 85 54 68 28 q 117 176 117 102 q 116 503 116 357 l 116 860 q 84 1006 116 961 q 55 1038 72 1023 l 565 1038 q 628 924 611 1021 q 633 871 633 897 q 617 787 633 818 l 581 860 q 475 956 544 932 q 390 970 437 970 q 322 967 342 970 q 291 952 302 964 q 273 877 273 932 q 276 801 273 822 q 289 766 279 779 q 378 739 310 739 l 591 739 q 559 684 575 700 q 471 651 526 651 q 429 656 449 651 q 365 665 393 665 q 319 660 337 665 q 291 644 301 654 q 273 575 273 625 l 273 252 q 288 100 273 124 q 322 72 302 77 q 390 68 342 68 q 476 81 437 68 q 541 119 515 95 q 584 177 567 144 q 617 251 601 211 m 651 1351 q 469 1176 585 1253 q 421 1147 439 1157 l 321 1147 q 348 1177 332 1158 q 416 1261 348 1177 q 477 1351 477 1340 l 651 1351 z "},"Ê":{"ha":668,"x_min":16,"x_max":635,"o":"m 617 251 q 635 178 635 226 q 631 103 635 131 q 618 52 627 75 q 565 0 598 0 l 16 0 q 85 54 68 28 q 117 176 117 102 q 116 503 116 357 l 116 860 q 84 1006 116 961 q 55 1038 72 1023 l 565 1038 q 628 924 611 1021 q 633 871 633 897 q 617 787 633 818 l 581 860 q 475 956 544 932 q 390 970 437 970 q 322 967 342 970 q 291 952 302 964 q 273 877 273 932 q 276 801 273 822 q 289 766 279 779 q 378 739 310 739 l 591 739 q 559 684 575 700 q 471 651 526 651 q 429 656 449 651 q 365 665 393 665 q 319 660 337 665 q 291 644 301 654 q 273 575 273 625 l 273 252 q 288 100 273 124 q 322 72 302 77 q 390 68 342 68 q 476 81 437 68 q 541 119 515 95 q 584 177 567 144 q 617 251 601 211 m 543 1140 q 378 1245 459 1177 q 215 1140 291 1174 l 145 1140 q 174 1171 157 1152 q 274 1291 255 1267 l 302 1327 q 313 1343 312 1340 l 445 1343 q 456 1327 446 1340 q 613 1140 586 1166 l 543 1140 z "},"Ë":{"ha":668,"x_min":16,"x_max":635,"o":"m 617 251 q 635 178 635 226 q 631 103 635 131 q 618 52 627 75 q 565 0 598 0 l 16 0 q 85 54 68 28 q 117 176 117 102 q 116 503 116 357 l 116 860 q 84 1006 116 961 q 55 1038 72 1023 l 565 1038 q 628 924 611 1021 q 633 871 633 897 q 617 787 633 818 l 581 860 q 475 956 544 932 q 390 970 437 970 q 322 967 342 970 q 291 952 302 964 q 273 877 273 932 q 276 801 273 822 q 289 766 279 779 q 378 739 310 739 l 591 739 q 559 684 575 700 q 471 651 526 651 q 429 656 449 651 q 365 665 393 665 q 319 660 337 665 q 291 644 301 654 q 273 575 273 625 l 273 252 q 288 100 273 124 q 322 72 302 77 q 390 68 342 68 q 476 81 437 68 q 541 119 515 95 q 584 177 567 144 q 617 251 601 211 m 305 1169 q 299 1160 305 1169 q 277 1137 294 1150 q 239 1124 260 1124 q 201 1137 218 1124 q 173 1169 184 1150 q 149 1238 149 1208 q 154 1281 149 1267 q 170 1305 159 1295 q 229 1329 193 1329 q 281 1323 264 1329 q 309 1305 298 1316 q 330 1259 330 1285 q 323 1211 330 1233 q 305 1169 317 1188 m 585 1169 q 579 1160 585 1169 q 556 1137 573 1150 q 518 1124 539 1124 q 480 1137 497 1124 q 452 1169 464 1150 q 429 1238 429 1208 q 433 1281 429 1267 q 449 1305 438 1295 q 507 1329 471 1329 q 561 1323 543 1329 q 589 1305 578 1316 q 609 1259 609 1285 q 603 1211 609 1233 q 585 1169 596 1188 z "},"Ì":{"ha":452,"x_min":-8,"x_max":344,"o":"m 344 1038 q 315 911 319 975 q 309 802 311 848 q 305 708 307 757 q 303 500 303 594 q 332 30 303 117 q 344 0 336 15 l 110 0 q 135 83 131 46 q 142 172 139 121 q 151 418 151 279 q 150 608 151 557 q 148 708 149 659 q 119 1010 143 946 l 110 1038 l 344 1038 m 166 1352 q 205 1290 166 1341 q 322 1148 299 1170 l 222 1148 q 50 1282 136 1192 q -8 1352 17 1314 l 166 1352 z "},"Í":{"ha":452,"x_min":110,"x_max":503,"o":"m 344 1038 q 315 911 319 975 q 309 802 311 848 q 305 708 307 757 q 303 500 303 594 q 332 30 303 117 q 344 0 336 15 l 110 0 q 135 83 131 46 q 142 172 139 121 q 151 418 151 279 q 150 608 151 557 q 148 708 149 659 q 119 1010 143 946 l 110 1038 l 344 1038 m 503 1351 q 320 1176 437 1253 q 273 1147 291 1157 l 172 1147 q 199 1177 184 1158 q 267 1261 199 1177 q 328 1351 328 1340 l 503 1351 z "},"Î":{"ha":452,"x_min":-3,"x_max":465,"o":"m 344 1038 q 315 911 319 975 q 309 802 311 848 q 305 708 307 757 q 303 500 303 594 q 332 30 303 117 q 344 0 336 15 l 110 0 q 135 83 131 46 q 142 172 139 121 q 151 418 151 279 q 150 608 151 557 q 148 708 149 659 q 119 1010 143 946 l 110 1038 l 344 1038 m 395 1140 q 231 1245 311 1177 q 67 1140 143 1174 l -3 1140 q 26 1171 9 1152 q 126 1291 107 1267 l 154 1327 q 165 1343 164 1340 l 297 1343 q 309 1327 298 1340 q 465 1140 438 1166 l 395 1140 z "},"Ï":{"ha":452,"x_min":1,"x_max":461,"o":"m 344 1038 q 315 911 319 975 q 309 802 311 848 q 305 708 307 757 q 303 500 303 594 q 332 30 303 117 q 344 0 336 15 l 110 0 q 135 83 131 46 q 142 172 139 121 q 151 418 151 279 q 150 608 151 557 q 148 708 149 659 q 119 1010 143 946 l 110 1038 l 344 1038 m 157 1169 q 152 1160 157 1169 q 129 1137 146 1150 q 91 1124 112 1124 q 53 1137 70 1124 q 25 1169 37 1150 q 1 1238 1 1208 q 6 1281 1 1267 q 22 1305 11 1295 q 81 1329 45 1329 q 134 1323 117 1329 q 161 1305 151 1316 q 182 1259 182 1285 q 175 1211 182 1233 q 157 1169 169 1188 m 437 1169 q 431 1160 437 1169 q 408 1137 425 1150 q 370 1124 391 1124 q 333 1137 349 1124 q 304 1169 316 1150 q 281 1238 281 1208 q 286 1281 281 1267 q 301 1305 290 1295 q 359 1329 323 1329 q 413 1323 395 1329 q 441 1305 430 1316 q 461 1259 461 1285 q 455 1211 461 1233 q 437 1169 448 1188 z "},"Ð":{"ha":831,"x_min":35,"x_max":763,"o":"m 132 654 q 35 636 64 651 l 35 755 q 128 738 63 743 l 123 860 q 111 958 121 930 q 62 1038 96 1002 l 435 1038 q 738 855 667 1038 q 763 699 763 791 q 416 47 763 187 q 140 -1 298 -1 q 119 -1 130 -1 q 99 0 109 -1 q 124 86 121 52 q 131 161 128 121 q 136 369 136 241 q 132 654 136 496 m 288 654 l 288 180 q 297 121 289 141 q 331 102 305 102 q 518 255 452 102 q 584 669 584 404 q 551 880 584 808 q 398 977 507 977 q 312 960 328 977 q 292 920 296 944 q 288 855 288 896 l 288 736 q 477 755 420 740 l 477 636 q 288 654 417 651 z "},"Ñ":{"ha":858,"x_min":64,"x_max":795,"o":"m 243 739 q 242 578 242 668 q 247 284 242 450 q 254 97 252 119 q 261 57 257 74 q 282 0 268 29 l 100 0 q 125 81 121 41 q 132 160 130 121 q 138 375 138 240 q 132 673 138 538 l 125 860 q 92 1006 121 963 q 64 1038 81 1023 l 275 1038 q 359 854 315 945 l 452 674 l 650 310 q 650 401 650 353 l 650 507 q 609 997 650 846 q 591 1038 601 1025 l 795 1038 q 753 656 762 970 q 751 563 751 608 l 752 506 l 752 229 q 755 0 752 54 l 645 0 l 448 366 l 243 739 m 208 1204 q 290 1314 242 1276 q 378 1353 338 1353 q 439 1347 418 1353 q 476 1330 460 1340 q 504 1309 492 1320 q 528 1287 516 1297 q 575 1265 554 1265 q 611 1271 597 1265 q 637 1288 626 1278 q 659 1310 649 1298 l 675 1333 l 716 1292 q 637 1191 683 1226 q 552 1156 591 1156 q 492 1163 513 1156 q 455 1179 471 1169 q 427 1200 439 1189 q 404 1222 415 1212 q 356 1244 377 1244 q 320 1238 334 1244 q 294 1221 305 1232 q 273 1199 282 1211 l 256 1177 l 208 1204 z "},"Ò":{"ha":894,"x_min":87,"x_max":807,"o":"m 448 54 q 616 372 578 54 q 629 624 629 479 q 447 983 629 983 q 264 624 264 983 q 374 89 264 200 q 448 54 408 54 m 447 -14 q 175 156 267 -14 q 87 624 87 319 q 281 1023 87 941 q 447 1051 350 1051 q 787 804 725 1051 q 807 600 807 725 q 785 357 807 475 q 719 156 764 239 q 447 -14 627 -14 m 396 1352 q 435 1290 396 1341 q 552 1148 529 1170 l 452 1148 q 279 1282 366 1192 q 222 1352 247 1314 l 396 1352 z "},"Ó":{"ha":894,"x_min":87,"x_max":807,"o":"m 448 54 q 616 372 578 54 q 629 624 629 479 q 447 983 629 983 q 264 624 264 983 q 374 89 264 200 q 448 54 408 54 m 447 -14 q 175 156 267 -14 q 87 624 87 319 q 281 1023 87 941 q 447 1051 350 1051 q 787 804 725 1051 q 807 600 807 725 q 785 357 807 475 q 719 156 764 239 q 447 -14 627 -14 m 733 1351 q 551 1176 667 1253 q 503 1147 522 1157 l 403 1147 q 430 1177 414 1158 q 498 1261 430 1177 q 559 1351 559 1340 l 733 1351 z "},"Ô":{"ha":894,"x_min":87,"x_max":807,"o":"m 448 54 q 616 372 578 54 q 629 624 629 479 q 447 983 629 983 q 264 624 264 983 q 374 89 264 200 q 448 54 408 54 m 447 -14 q 175 156 267 -14 q 87 624 87 319 q 281 1023 87 941 q 447 1051 350 1051 q 787 804 725 1051 q 807 600 807 725 q 785 357 807 475 q 719 156 764 239 q 447 -14 627 -14 m 625 1140 q 460 1245 541 1177 q 297 1140 373 1174 l 227 1140 q 256 1171 239 1152 q 356 1291 337 1267 l 384 1327 q 395 1343 394 1340 l 527 1343 q 538 1327 528 1340 q 695 1140 668 1166 l 625 1140 z "},"Õ":{"ha":894,"x_min":87,"x_max":807,"o":"m 448 54 q 616 372 578 54 q 629 624 629 479 q 447 983 629 983 q 264 624 264 983 q 374 89 264 200 q 448 54 408 54 m 447 -14 q 175 156 267 -14 q 87 624 87 319 q 281 1023 87 941 q 447 1051 350 1051 q 787 804 725 1051 q 807 600 807 725 q 785 357 807 475 q 719 156 764 239 q 447 -14 627 -14 m 208 1204 q 290 1314 242 1276 q 378 1353 338 1353 q 439 1347 418 1353 q 476 1330 460 1340 q 504 1309 492 1320 q 528 1287 516 1297 q 575 1265 554 1265 q 611 1271 597 1265 q 637 1288 626 1278 q 659 1310 649 1298 l 675 1333 l 716 1292 q 637 1191 683 1226 q 552 1156 591 1156 q 492 1163 513 1156 q 455 1179 471 1169 q 427 1200 439 1189 q 404 1222 415 1212 q 356 1244 377 1244 q 320 1238 334 1244 q 294 1221 305 1232 q 273 1199 282 1211 l 256 1177 l 208 1204 z "},"Ö":{"ha":894,"x_min":87,"x_max":807,"o":"m 448 54 q 616 372 578 54 q 629 624 629 479 q 447 983 629 983 q 264 624 264 983 q 374 89 264 200 q 448 54 408 54 m 447 -14 q 175 156 267 -14 q 87 624 87 319 q 281 1023 87 941 q 447 1051 350 1051 q 787 804 725 1051 q 807 600 807 725 q 785 357 807 475 q 719 156 764 239 q 447 -14 627 -14 m 387 1169 q 381 1160 387 1169 q 359 1137 376 1150 q 321 1124 342 1124 q 283 1137 300 1124 q 255 1169 267 1150 q 231 1238 231 1208 q 236 1281 231 1267 q 252 1305 241 1295 q 311 1329 275 1329 q 363 1323 347 1329 q 391 1305 380 1316 q 412 1259 412 1285 q 405 1211 412 1233 q 387 1169 399 1188 m 667 1169 q 661 1160 667 1169 q 638 1137 655 1150 q 600 1124 621 1124 q 563 1137 579 1124 q 534 1169 546 1150 q 511 1238 511 1208 q 515 1281 511 1267 q 531 1305 520 1295 q 589 1329 553 1329 q 643 1323 625 1329 q 671 1305 660 1316 q 691 1259 691 1285 q 685 1211 691 1233 q 667 1169 678 1188 z "},"×":{"ha":762,"x_min":85,"x_max":680,"o":"m 580 701 l 680 601 q 629 563 656 586 q 518 465 553 499 l 454 404 q 613 256 571 290 q 680 206 654 222 l 580 106 q 507 197 549 151 l 438 273 l 382 331 l 326 274 q 185 106 231 176 l 85 206 q 137 245 110 222 q 249 344 216 313 l 310 404 q 195 512 227 484 l 136 563 q 85 601 108 586 l 185 701 q 255 610 212 659 q 382 475 342 516 q 580 701 541 640 z "},"Ø":{"ha":894,"x_min":59,"x_max":859,"o":"m 753 892 q 807 634 807 792 q 785 357 807 475 q 719 156 764 239 q 447 -14 627 -14 q 215 95 304 -14 q 174 -14 185 40 l 59 73 q 80 89 67 80 q 108 111 93 98 l 138 137 q 169 168 155 151 q 87 624 87 328 q 281 1023 87 941 q 447 1051 350 1051 q 703 962 615 1051 q 745 1069 734 1017 l 859 983 l 812 947 q 753 892 777 919 m 448 54 q 616 372 578 54 q 629 624 629 479 q 447 983 629 983 q 264 624 264 983 q 374 89 264 200 q 448 54 408 54 z "},"Ù":{"ha":813,"x_min":76,"x_max":774,"o":"m 612 348 l 616 608 q 595 958 616 882 q 573 1011 586 994 q 551 1038 559 1028 l 774 1038 l 760 1019 q 726 918 729 974 q 721 804 722 861 q 718 689 719 746 q 716 475 716 593 l 716 393 q 646 79 716 174 q 418 -14 576 -14 q 113 379 112 -14 l 114 887 q 76 1038 114 994 l 333 1038 q 293 901 293 989 q 292 795 293 849 l 290 578 q 289 467 289 524 q 301 209 289 263 q 331 123 313 154 q 452 54 372 54 q 604 235 575 54 q 612 348 612 288 m 368 1352 q 407 1290 368 1341 q 524 1148 500 1170 l 423 1148 q 251 1282 338 1192 q 193 1352 218 1314 l 368 1352 z "},"Ú":{"ha":813,"x_min":76,"x_max":774,"o":"m 612 348 l 616 608 q 595 958 616 882 q 573 1011 586 994 q 551 1038 559 1028 l 774 1038 l 760 1019 q 726 918 729 974 q 721 804 722 861 q 718 689 719 746 q 716 475 716 593 l 716 393 q 646 79 716 174 q 418 -14 576 -14 q 113 379 112 -14 l 114 887 q 76 1038 114 994 l 333 1038 q 293 901 293 989 q 292 795 293 849 l 290 578 q 289 467 289 524 q 301 209 289 263 q 331 123 313 154 q 452 54 372 54 q 604 235 575 54 q 612 348 612 288 m 705 1351 q 522 1176 639 1253 q 475 1147 493 1157 l 374 1147 q 401 1177 386 1158 q 469 1261 401 1177 q 530 1351 530 1340 l 705 1351 z "},"Û":{"ha":813,"x_min":76,"x_max":774,"o":"m 612 348 l 616 608 q 595 958 616 882 q 573 1011 586 994 q 551 1038 559 1028 l 774 1038 l 760 1019 q 726 918 729 974 q 721 804 722 861 q 718 689 719 746 q 716 475 716 593 l 716 393 q 646 79 716 174 q 418 -14 576 -14 q 113 379 112 -14 l 114 887 q 76 1038 114 994 l 333 1038 q 293 901 293 989 q 292 795 293 849 l 290 578 q 289 467 289 524 q 301 209 289 263 q 331 123 313 154 q 452 54 372 54 q 604 235 575 54 q 612 348 612 288 m 597 1140 q 432 1245 513 1177 q 269 1140 345 1174 l 199 1140 q 228 1171 211 1152 q 328 1291 309 1267 l 355 1327 q 367 1343 366 1340 l 498 1343 q 510 1327 500 1340 q 667 1140 640 1166 l 597 1140 z "},"Ü":{"ha":813,"x_min":76,"x_max":774,"o":"m 612 348 l 616 608 q 595 958 616 882 q 573 1011 586 994 q 551 1038 559 1028 l 774 1038 l 760 1019 q 726 918 729 974 q 721 804 722 861 q 718 689 719 746 q 716 475 716 593 l 716 393 q 646 79 716 174 q 418 -14 576 -14 q 113 379 112 -14 l 114 887 q 76 1038 114 994 l 333 1038 q 293 901 293 989 q 292 795 293 849 l 290 578 q 289 467 289 524 q 301 209 289 263 q 331 123 313 154 q 452 54 372 54 q 604 235 575 54 q 612 348 612 288 m 359 1169 q 353 1160 359 1169 q 330 1137 347 1150 q 292 1124 313 1124 q 255 1137 271 1124 q 227 1169 238 1150 q 203 1238 203 1208 q 208 1281 203 1267 q 223 1305 212 1295 q 282 1329 247 1329 q 335 1323 318 1329 q 363 1305 352 1316 q 383 1259 383 1285 q 377 1211 383 1233 q 359 1169 370 1188 m 638 1169 q 632 1160 638 1169 q 610 1137 627 1150 q 572 1124 593 1124 q 534 1137 551 1124 q 506 1169 517 1150 q 482 1238 482 1208 q 487 1281 482 1267 q 503 1305 492 1295 q 561 1329 525 1329 q 614 1323 597 1329 q 642 1305 631 1316 q 663 1259 663 1285 q 656 1211 663 1233 q 638 1169 650 1188 z "},"Ý":{"ha":586,"x_min":-45,"x_max":637,"o":"m 233 261 l 233 403 l 233 480 q 183 654 233 541 q 131 766 144 739 l 109 810 q -45 1038 21 994 l 229 1038 q 224 1003 224 1024 q 227 959 224 982 q 236 911 231 935 q 262 825 246 864 l 295 746 q 337 666 312 707 q 388 760 369 714 l 414 824 q 452 1011 452 922 q 450 1038 452 1026 l 637 1038 q 559 923 600 998 q 502 814 518 848 l 467 739 q 397 489 397 583 l 397 179 q 413 79 397 110 q 448 32 429 49 q 492 0 466 15 l 145 0 q 233 163 233 45 l 233 261 m 604 1351 q 422 1176 538 1253 q 374 1147 393 1157 l 274 1147 q 301 1177 286 1158 q 369 1261 301 1177 q 430 1351 430 1340 l 604 1351 z "},"Þ":{"ha":779,"x_min":66,"x_max":736,"o":"m 516 498 q 527 510 516 498 q 547 551 537 522 q 557 602 557 579 q 553 644 557 625 q 533 680 549 664 q 407 712 500 712 q 330 699 349 712 q 295 609 295 671 q 299 516 295 547 q 312 469 302 486 q 380 441 329 441 q 463 457 431 441 q 516 498 495 473 m 309 967 q 306 952 309 967 q 301 911 302 937 q 298 857 299 886 q 302 812 298 827 q 323 791 307 798 q 433 780 345 780 q 577 772 521 780 q 669 747 633 764 q 736 631 736 714 q 651 446 736 519 q 347 359 549 359 q 298 301 305 359 q 294 233 294 262 q 298 170 294 204 q 312 104 302 136 q 381 0 336 30 l 93 0 l 106 27 q 131 145 129 74 q 133 287 133 216 q 132 430 133 359 l 130 573 q 127 818 127 743 q 124 919 127 893 q 114 966 121 945 q 66 1038 102 1000 l 345 1038 q 309 967 316 997 z "},"ß":{"ha":812,"x_min":61,"x_max":773,"o":"m 65 606 l 83 606 l 104 606 q 128 617 123 606 q 132 686 132 627 q 145 819 132 745 q 190 944 158 892 q 409 1051 255 1051 q 606 981 538 1051 q 663 824 663 921 q 610 656 663 750 l 574 590 q 557 530 557 559 q 573 477 557 502 q 613 428 589 453 q 665 376 637 403 q 718 321 693 350 q 773 186 773 253 q 723 52 773 107 q 548 -14 662 -14 q 392 39 444 -14 q 372 69 378 54 q 416 165 376 118 q 486 215 454 208 q 498 120 481 156 q 532 69 515 83 q 573 54 549 54 q 616 73 597 54 q 634 131 634 92 q 617 199 634 170 q 574 254 600 227 q 519 306 549 280 q 464 361 490 332 q 404 500 404 429 q 427 594 404 553 q 465 660 449 635 q 494 712 480 684 q 525 840 525 775 q 459 964 525 932 q 400 977 434 977 q 345 965 367 977 q 308 932 323 953 q 277 814 277 888 l 277 754 l 277 602 l 277 517 q 292 109 277 176 q 318 40 302 64 q 349 0 334 16 l 102 0 q 125 143 121 66 q 134 417 134 335 q 132 516 134 499 q 120 536 131 534 q 66 583 75 546 q 61 606 64 593 l 65 606 z "},"à":{"ha":705,"x_min":69,"x_max":679,"o":"m 595 362 l 593 232 q 615 66 593 111 q 647 26 629 40 l 679 0 l 482 0 l 461 79 q 243 -14 385 -14 q 113 41 162 -14 q 69 156 69 90 q 101 272 69 222 q 184 354 132 321 q 439 420 286 417 l 439 427 q 389 621 439 592 q 341 631 370 631 q 284 612 313 631 q 233 563 256 593 q 167 420 186 503 q 106 558 106 456 q 117 651 106 600 q 166 659 143 651 l 218 675 q 368 699 295 699 q 485 677 441 699 q 553 612 529 655 q 595 362 595 540 m 216 142 q 235 77 216 100 q 283 54 254 54 q 340 70 313 54 q 389 111 367 85 q 439 253 439 172 l 439 353 q 283 290 345 345 q 216 142 216 232 m 350 1038 q 366 987 350 1031 q 416 859 401 895 q 442 799 416 859 q 462 760 454 774 l 385 760 q 304 841 349 785 q 176 1038 218 947 l 350 1038 z "},"á":{"ha":705,"x_min":69,"x_max":679,"o":"m 595 362 l 593 232 q 615 66 593 111 q 647 26 629 40 l 679 0 l 482 0 l 461 79 q 243 -14 385 -14 q 113 41 162 -14 q 69 156 69 90 q 101 272 69 222 q 184 354 132 321 q 439 420 286 417 l 439 427 q 389 621 439 592 q 341 631 370 631 q 284 612 313 631 q 233 563 256 593 q 167 420 186 503 q 106 558 106 456 q 117 651 106 600 q 166 659 143 651 l 218 675 q 368 699 295 699 q 485 677 441 699 q 553 612 529 655 q 595 362 595 540 m 216 142 q 235 77 216 100 q 283 54 254 54 q 340 70 313 54 q 389 111 367 85 q 439 253 439 172 l 439 353 q 283 290 345 345 q 216 142 216 232 m 557 1038 q 389 796 497 907 q 349 760 363 770 l 271 760 q 291 799 279 774 q 366 981 349 929 q 383 1038 383 1034 l 557 1038 z "},"â":{"ha":705,"x_min":69,"x_max":679,"o":"m 595 362 l 593 232 q 615 66 593 111 q 647 26 629 40 l 679 0 l 482 0 l 461 79 q 243 -14 385 -14 q 113 41 162 -14 q 69 156 69 90 q 101 272 69 222 q 184 354 132 321 q 439 420 286 417 l 439 427 q 389 621 439 592 q 341 631 370 631 q 284 612 313 631 q 233 563 256 593 q 167 420 186 503 q 106 558 106 456 q 117 651 106 600 q 166 659 143 651 l 218 675 q 368 699 295 699 q 485 677 441 699 q 553 612 529 655 q 595 362 595 540 m 216 142 q 235 77 216 100 q 283 54 254 54 q 340 70 313 54 q 389 111 367 85 q 439 253 439 172 l 439 353 q 283 290 345 345 q 216 142 216 232 m 515 787 q 352 920 453 819 q 191 787 256 821 l 127 787 q 178 857 151 814 q 250 975 235 947 l 275 1018 q 286 1038 284 1034 l 419 1038 q 430 1018 420 1034 q 578 787 544 823 l 515 787 z "},"ã":{"ha":705,"x_min":69,"x_max":679,"o":"m 595 362 l 593 232 q 615 66 593 111 q 647 26 629 40 l 679 0 l 482 0 l 461 79 q 243 -14 385 -14 q 113 41 162 -14 q 69 156 69 90 q 101 272 69 222 q 184 354 132 321 q 439 420 286 417 l 439 427 q 389 621 439 592 q 341 631 370 631 q 284 612 313 631 q 233 563 256 593 q 167 420 186 503 q 106 558 106 456 q 117 651 106 600 q 166 659 143 651 l 218 675 q 368 699 295 699 q 485 677 441 699 q 553 612 529 655 q 595 362 595 540 m 216 142 q 235 77 216 100 q 283 54 254 54 q 340 70 313 54 q 389 111 367 85 q 439 253 439 172 l 439 353 q 283 290 345 345 q 216 142 216 232 m 117 869 q 199 979 151 941 q 291 1017 247 1017 q 357 1003 334 1017 q 396 972 380 989 q 426 941 396 972 q 459 928 439 928 q 493 935 478 928 q 519 952 507 941 q 540 975 530 962 l 557 998 l 611 949 q 532 848 578 883 q 449 814 486 814 q 394 821 412 814 q 363 837 376 827 q 339 859 349 847 q 319 880 339 859 q 276 903 296 903 q 242 897 256 903 q 216 879 227 890 q 195 856 204 869 q 178 833 195 856 l 117 869 z "},"ä":{"ha":705,"x_min":69,"x_max":679,"o":"m 595 362 l 593 232 q 615 66 593 111 q 647 26 629 40 l 679 0 l 482 0 l 461 79 q 243 -14 385 -14 q 113 41 162 -14 q 69 156 69 90 q 101 272 69 222 q 184 354 132 321 q 439 420 286 417 l 439 427 q 389 621 439 592 q 341 631 370 631 q 284 612 313 631 q 233 563 256 593 q 167 420 186 503 q 106 558 106 456 q 117 651 106 600 q 166 659 143 651 l 218 675 q 368 699 295 699 q 485 677 441 699 q 553 612 529 655 q 595 362 595 540 m 216 142 q 235 77 216 100 q 283 54 254 54 q 340 70 313 54 q 389 111 367 85 q 439 253 439 172 l 439 353 q 283 290 345 345 q 216 142 216 232 m 274 858 q 268 848 274 858 q 244 824 262 838 q 204 810 227 810 q 164 824 182 810 q 134 858 146 838 q 109 946 109 900 q 161 1021 109 1002 q 205 1027 178 1027 q 295 977 278 1027 q 300 944 300 962 q 294 902 300 926 q 274 858 287 878 m 570 858 q 564 848 570 858 q 540 824 557 838 q 500 810 522 810 q 460 824 477 810 q 430 858 442 838 q 405 946 405 900 q 456 1021 405 1002 q 500 1027 474 1027 q 591 977 574 1027 q 596 944 596 962 q 589 902 596 926 q 570 858 583 878 z "},"å":{"ha":705,"x_min":69,"x_max":679,"o":"m 595 362 l 593 232 q 615 66 593 111 q 647 26 629 40 l 679 0 l 482 0 l 461 79 q 243 -14 385 -14 q 113 41 162 -14 q 69 156 69 90 q 101 272 69 222 q 184 354 132 321 q 439 420 286 417 l 439 427 q 389 621 439 592 q 341 631 370 631 q 284 612 313 631 q 233 563 256 593 q 167 420 186 503 q 106 558 106 456 q 117 651 106 600 q 166 659 143 651 l 218 675 q 368 699 295 699 q 485 677 441 699 q 553 612 529 655 q 595 362 595 540 m 216 142 q 235 77 216 100 q 283 54 254 54 q 340 70 313 54 q 389 111 367 85 q 439 253 439 172 l 439 353 q 283 290 345 345 q 216 142 216 232 m 359 1037 q 287 932 287 1037 q 331 836 287 859 q 359 829 345 829 q 426 888 409 829 q 432 932 432 907 q 359 1037 432 1037 m 543 932 q 488 809 543 855 q 359 766 437 766 q 231 809 281 766 q 176 932 176 855 q 231 1057 176 1010 q 359 1100 281 1100 q 488 1057 437 1100 q 543 932 543 1010 z "},"æ":{"ha":1029,"x_min":54,"x_max":962,"o":"m 91 558 q 102 651 91 600 q 151 659 127 651 l 203 675 q 355 699 279 699 q 533 620 482 699 q 756 699 620 699 q 916 639 859 699 q 962 529 962 591 q 938 417 962 467 q 867 332 913 368 q 597 253 770 257 q 683 71 612 117 q 751 54 709 54 q 842 99 794 54 q 930 231 890 144 q 955 174 955 214 q 944 103 955 134 q 906 46 933 73 q 720 -14 845 -14 q 481 123 555 -14 q 227 -14 401 -14 q 97 41 146 -14 q 54 156 54 90 q 85 272 54 222 q 168 354 117 321 q 424 420 270 417 l 424 427 q 373 621 424 592 q 326 631 355 631 q 269 612 297 631 q 217 563 240 593 q 151 420 171 503 q 91 558 91 456 m 593 317 q 808 525 808 332 q 764 623 808 597 q 725 631 749 631 q 676 616 701 631 q 633 567 651 601 q 593 338 593 493 l 593 317 m 200 142 q 219 77 200 100 q 268 54 239 54 q 324 70 297 54 q 373 111 351 85 q 424 253 424 172 l 424 353 q 267 290 329 345 q 200 142 200 232 z "},"ç":{"ha":591,"x_min":41,"x_max":533,"o":"m 516 726 q 533 636 533 685 q 530 556 533 588 q 519 494 526 524 q 475 393 505 431 q 378 617 446 578 q 327 631 355 631 q 279 618 300 631 q 245 581 259 605 q 216 454 216 532 q 231 320 216 376 q 272 220 247 264 q 330 143 298 176 q 395 90 362 111 q 511 47 460 47 q 494 13 509 30 q 461 -14 479 -4 q 296 35 389 -14 q 63 302 123 127 q 41 434 41 367 q 56 548 41 502 q 102 628 72 595 q 271 699 163 699 q 342 694 308 699 q 434 685 408 685 q 480 692 460 685 q 516 726 500 699 m 369 66 q 352 -45 352 24 l 380 -62 q 441 -156 441 -98 q 388 -266 441 -222 q 245 -312 333 -312 q 222 -290 231 -303 l 210 -273 q 204 -264 207 -267 q 319 -193 286 -256 q 330 -149 330 -173 q 260 -71 330 -95 q 309 87 299 3 l 369 66 z "},"è":{"ha":684,"x_min":86,"x_max":616,"o":"m 585 231 q 609 174 609 214 q 598 103 609 134 q 560 46 587 73 q 374 -14 499 -14 q 153 94 229 -14 q 86 352 86 189 q 177 610 86 516 q 410 699 263 699 q 570 639 513 699 q 616 529 616 591 q 592 417 616 467 q 521 332 568 368 q 252 253 425 257 q 337 71 266 117 q 406 54 363 54 q 496 99 448 54 q 585 231 545 144 m 248 317 q 462 525 462 332 q 418 623 462 597 q 379 631 404 631 q 330 616 355 631 q 287 567 305 601 q 248 338 248 493 l 248 317 m 334 1038 q 349 987 334 1031 q 399 859 385 895 q 426 799 399 859 q 446 760 437 774 l 368 760 q 288 841 333 785 q 160 1038 201 947 l 334 1038 z "},"é":{"ha":684,"x_min":86,"x_max":616,"o":"m 585 231 q 609 174 609 214 q 598 103 609 134 q 560 46 587 73 q 374 -14 499 -14 q 153 94 229 -14 q 86 352 86 189 q 177 610 86 516 q 410 699 263 699 q 570 639 513 699 q 616 529 616 591 q 592 417 616 467 q 521 332 568 368 q 252 253 425 257 q 337 71 266 117 q 406 54 363 54 q 496 99 448 54 q 585 231 545 144 m 248 317 q 462 525 462 332 q 418 623 462 597 q 379 631 404 631 q 330 616 355 631 q 287 567 305 601 q 248 338 248 493 l 248 317 m 581 1038 q 413 796 522 907 q 373 760 387 770 l 296 760 q 315 799 304 774 q 390 981 373 929 q 408 1038 408 1034 l 581 1038 z "},"ê":{"ha":684,"x_min":86,"x_max":616,"o":"m 585 231 q 609 174 609 214 q 598 103 609 134 q 560 46 587 73 q 374 -14 499 -14 q 153 94 229 -14 q 86 352 86 189 q 177 610 86 516 q 410 699 263 699 q 570 639 513 699 q 616 529 616 591 q 592 417 616 467 q 521 332 568 368 q 252 253 425 257 q 337 71 266 117 q 406 54 363 54 q 496 99 448 54 q 585 231 545 144 m 248 317 q 462 525 462 332 q 418 623 462 597 q 379 631 404 631 q 330 616 355 631 q 287 567 305 601 q 248 338 248 493 l 248 317 m 539 787 q 376 920 477 819 q 215 787 280 821 l 151 787 q 203 857 176 814 q 275 975 259 947 l 300 1018 q 311 1038 309 1034 l 444 1038 q 454 1018 445 1034 q 603 787 568 823 l 539 787 z "},"ë":{"ha":684,"x_min":86,"x_max":616,"o":"m 585 231 q 609 174 609 214 q 598 103 609 134 q 560 46 587 73 q 374 -14 499 -14 q 153 94 229 -14 q 86 352 86 189 q 177 610 86 516 q 410 699 263 699 q 570 639 513 699 q 616 529 616 591 q 592 417 616 467 q 521 332 568 368 q 252 253 425 257 q 337 71 266 117 q 406 54 363 54 q 496 99 448 54 q 585 231 545 144 m 248 317 q 462 525 462 332 q 418 623 462 597 q 379 631 404 631 q 330 616 355 631 q 287 567 305 601 q 248 338 248 493 l 248 317 m 292 858 q 286 848 292 858 q 262 824 279 838 q 222 810 244 810 q 182 824 199 810 q 152 858 164 838 q 127 946 127 900 q 178 1021 127 1002 q 222 1027 196 1027 q 313 977 296 1027 q 318 944 318 962 q 311 902 318 926 q 292 858 304 878 m 588 858 q 581 848 588 858 q 557 824 575 838 q 517 810 540 810 q 477 824 495 810 q 448 858 460 838 q 422 946 422 900 q 473 1021 422 1002 q 518 1027 492 1027 q 608 977 591 1027 q 614 944 614 962 q 607 902 614 926 q 588 858 600 878 z "},"ì":{"ha":404,"x_min":-8,"x_max":305,"o":"m 304 685 q 274 343 274 578 q 305 0 274 107 l 105 0 q 136 367 136 107 q 104 621 136 552 q 85 654 96 639 l 63 685 l 304 685 m 165 1038 q 181 987 165 1031 q 231 859 216 895 q 258 799 231 859 q 277 760 269 774 l 200 760 q 119 841 165 785 q -8 1038 33 947 l 165 1038 z "},"í":{"ha":404,"x_min":63,"x_max":427,"o":"m 304 685 q 274 343 274 578 q 305 0 274 107 l 105 0 q 136 367 136 107 q 104 621 136 552 q 85 654 96 639 l 63 685 l 304 685 m 427 1038 q 258 796 367 907 q 218 760 233 770 l 141 760 q 161 799 149 774 q 236 981 218 929 q 253 1038 253 1034 l 427 1038 z "},"î":{"ha":404,"x_min":-23,"x_max":429,"o":"m 304 685 q 274 343 274 578 q 305 0 274 107 l 105 0 q 136 367 136 107 q 104 621 136 552 q 85 654 96 639 l 63 685 l 304 685 m 365 787 q 202 920 303 819 q 41 787 106 821 l -23 787 q 28 857 1 814 q 100 975 85 947 l 125 1018 q 136 1038 134 1034 l 269 1038 q 280 1018 271 1034 q 429 787 394 823 l 365 787 z "},"ï":{"ha":404,"x_min":-47,"x_max":439,"o":"m 304 685 q 274 343 274 578 q 305 0 274 107 l 105 0 q 136 367 136 107 q 104 621 136 552 q 85 654 96 639 l 63 685 l 304 685 m 118 858 q 111 848 118 858 q 87 824 105 838 q 47 810 70 810 q 7 824 25 810 q -22 858 -10 838 q -47 946 -47 900 q 4 1021 -47 1002 q 48 1027 22 1027 q 138 977 121 1027 q 144 944 144 962 q 137 902 144 926 q 118 858 130 878 m 413 858 q 407 848 413 858 q 383 824 401 838 q 343 810 366 810 q 303 824 321 810 q 273 858 286 838 q 248 946 248 900 q 299 1021 248 1002 q 344 1027 317 1027 q 434 977 417 1027 q 439 944 439 962 q 433 902 439 926 q 413 858 426 878 z "},"ð":{"ha":787,"x_min":103,"x_max":699,"o":"m 383 833 q 217 712 279 770 l 149 821 l 149 824 q 313 898 215 845 q 122 977 210 977 q 157 1027 124 1000 q 173 1038 165 1034 q 414 958 291 1040 q 561 1065 503 1013 l 624 949 q 494 893 557 925 q 682 543 637 757 q 699 375 699 467 q 675 208 699 282 q 611 85 652 134 q 397 -14 530 -14 q 181 101 264 -14 q 103 366 103 208 q 175 593 103 498 q 398 699 256 699 q 464 693 442 699 q 383 833 442 767 m 400 54 q 524 339 524 54 q 414 624 524 624 q 297 474 333 624 q 283 358 283 416 q 290 245 283 300 q 309 149 296 191 q 400 54 339 54 z "},"ñ":{"ha":796,"x_min":39,"x_max":665,"o":"m 81 0 q 113 368 113 107 q 80 622 113 554 q 62 654 72 639 l 39 685 l 275 685 q 261 621 264 651 l 256 572 q 465 699 338 699 q 593 635 547 699 q 637 466 637 572 l 637 393 q 641 165 637 207 q 646 102 644 124 q 651 64 648 81 q 665 0 656 32 l 467 0 q 498 368 498 107 q 485 511 498 473 q 453 567 471 550 q 405 583 435 583 q 305 540 350 583 q 246 445 267 503 q 245 407 245 427 l 245 368 q 276 0 245 107 l 81 0 m 163 869 q 245 979 197 941 q 337 1017 294 1017 q 404 1003 381 1017 q 443 972 427 989 q 473 941 443 972 q 506 928 486 928 q 539 935 525 928 q 566 952 554 941 q 587 975 577 962 l 604 998 l 658 949 q 579 848 625 883 q 496 814 532 814 q 441 821 459 814 q 410 837 423 827 q 386 859 396 847 q 366 880 386 859 q 323 903 343 903 q 289 897 303 903 q 262 879 274 890 q 242 856 251 869 q 224 833 242 856 l 163 869 z "},"ò":{"ha":755,"x_min":92,"x_max":663,"o":"m 378 631 q 290 570 317 631 q 263 364 263 509 q 378 54 263 54 q 466 137 439 54 q 492 364 492 220 q 466 570 492 509 q 378 631 439 631 m 92 390 q 378 699 92 699 q 663 390 663 699 q 585 94 663 203 q 378 -14 508 -14 q 171 94 248 -14 q 92 390 92 203 m 355 1038 q 370 987 355 1031 q 420 859 406 895 q 447 799 420 859 q 467 760 458 774 l 389 760 q 309 841 354 785 q 181 1038 222 947 l 355 1038 z "},"ó":{"ha":755,"x_min":92,"x_max":663,"o":"m 378 631 q 290 570 317 631 q 263 364 263 509 q 378 54 263 54 q 466 137 439 54 q 492 364 492 220 q 466 570 492 509 q 378 631 439 631 m 92 390 q 378 699 92 699 q 663 390 663 699 q 585 94 663 203 q 378 -14 508 -14 q 171 94 248 -14 q 92 390 92 203 m 595 1038 q 427 796 536 907 q 387 760 401 770 l 310 760 q 330 799 318 774 q 405 981 387 929 q 422 1038 422 1034 l 595 1038 z "},"ô":{"ha":755,"x_min":92,"x_max":663,"o":"m 378 631 q 290 570 317 631 q 263 364 263 509 q 378 54 263 54 q 466 137 439 54 q 492 364 492 220 q 466 570 492 509 q 378 631 439 631 m 92 390 q 378 699 92 699 q 663 390 663 699 q 585 94 663 203 q 378 -14 508 -14 q 171 94 248 -14 q 92 390 92 203 m 540 787 q 377 920 478 819 q 216 787 281 821 l 152 787 q 203 857 176 814 q 275 975 260 947 l 300 1018 q 311 1038 309 1034 l 444 1038 q 455 1018 446 1034 q 604 787 569 823 l 540 787 z "},"õ":{"ha":755,"x_min":92,"x_max":663,"o":"m 378 631 q 290 570 317 631 q 263 364 263 509 q 378 54 263 54 q 466 137 439 54 q 492 364 492 220 q 466 570 492 509 q 378 631 439 631 m 92 390 q 378 699 92 699 q 663 390 663 699 q 585 94 663 203 q 378 -14 508 -14 q 171 94 248 -14 q 92 390 92 203 m 141 869 q 223 979 175 941 q 315 1017 271 1017 q 381 1003 359 1017 q 420 972 404 989 q 450 941 420 972 q 483 928 464 928 q 517 935 503 928 q 543 952 532 941 q 564 975 555 962 l 581 998 l 635 949 q 556 848 603 883 q 473 814 510 814 q 419 821 437 814 q 387 837 401 827 q 363 859 374 847 q 343 880 363 859 q 301 903 321 903 q 266 897 281 903 q 240 879 252 890 q 220 856 229 869 q 202 833 220 856 l 141 869 z "},"ö":{"ha":755,"x_min":92,"x_max":663,"o":"m 378 631 q 290 570 317 631 q 263 364 263 509 q 378 54 263 54 q 466 137 439 54 q 492 364 492 220 q 466 570 492 509 q 378 631 439 631 m 92 390 q 378 699 92 699 q 663 390 663 699 q 585 94 663 203 q 378 -14 508 -14 q 171 94 248 -14 q 92 390 92 203 m 299 858 q 293 848 299 858 q 269 824 287 838 q 229 810 252 810 q 189 824 207 810 q 159 858 172 838 q 134 946 134 900 q 186 1021 134 1002 q 230 1027 203 1027 q 320 977 303 1027 q 326 944 326 962 q 319 902 326 926 q 299 858 312 878 m 595 858 q 589 848 595 858 q 565 824 583 838 q 525 810 547 810 q 485 824 503 810 q 455 858 467 838 q 430 946 430 900 q 481 1021 430 1002 q 526 1027 499 1027 q 616 977 599 1027 q 621 944 621 962 q 614 902 621 926 q 595 858 608 878 z "},"÷":{"ha":872,"x_min":121,"x_max":753,"o":"m 121 509 q 436 488 204 488 q 753 509 667 488 l 753 366 q 436 387 667 387 q 121 366 204 387 l 121 509 m 371 99 q 364 106 371 99 q 350 132 357 113 q 342 173 342 151 q 350 213 342 194 q 371 246 357 232 q 441 277 401 277 q 510 246 480 277 q 538 184 538 216 q 531 132 538 151 q 510 99 524 113 q 451 68 481 68 q 402 77 420 68 q 371 99 385 85 m 371 621 q 364 628 371 621 q 350 654 357 635 q 342 695 342 673 q 350 735 342 716 q 371 768 357 754 q 441 800 401 800 q 510 768 480 800 q 538 706 538 739 q 531 654 538 673 q 510 621 524 635 q 451 591 481 591 q 402 599 420 591 q 371 621 385 607 z "},"ø":{"ha":755,"x_min":53,"x_max":734,"o":"m 92 390 q 378 699 92 699 q 587 626 515 699 q 632 720 612 665 l 734 625 l 690 599 q 633 558 663 583 q 663 392 663 489 q 643 220 663 295 q 585 94 622 145 q 378 -14 508 -14 q 193 66 267 -14 q 155 -14 174 35 l 53 81 q 92 104 67 90 q 143 138 116 118 q 92 390 92 237 m 378 631 q 290 570 317 631 q 263 364 263 509 q 378 54 263 54 q 466 137 439 54 q 492 364 492 220 q 466 570 492 509 q 378 631 439 631 z "},"ù":{"ha":746,"x_min":49,"x_max":684,"o":"m 621 621 l 611 318 q 644 64 611 133 q 684 0 655 39 l 496 0 q 475 117 480 46 q 273 -14 397 -14 q 142 50 187 -14 q 97 220 97 112 l 97 311 q 97 374 97 342 l 96 435 q 92 527 95 494 q 85 582 89 560 q 76 622 81 604 q 64 654 71 639 l 49 685 l 245 685 q 245 665 245 674 l 245 645 q 234 304 245 645 q 247 169 234 205 q 278 117 260 133 q 326 102 296 102 q 456 190 406 102 q 479 241 470 215 q 480 327 480 279 q 444 654 480 574 l 429 685 l 622 685 q 621 654 621 668 l 621 621 m 292 1038 q 308 987 292 1031 q 358 859 343 895 q 385 799 358 859 q 404 760 396 774 l 327 760 q 246 841 292 785 q 119 1038 160 947 l 292 1038 z "},"ú":{"ha":746,"x_min":49,"x_max":684,"o":"m 621 621 l 611 318 q 644 64 611 133 q 684 0 655 39 l 496 0 q 475 117 480 46 q 273 -14 397 -14 q 142 50 187 -14 q 97 220 97 112 l 97 311 q 97 374 97 342 l 96 435 q 92 527 95 494 q 85 582 89 560 q 76 622 81 604 q 64 654 71 639 l 49 685 l 245 685 q 245 665 245 674 l 245 645 q 234 304 245 645 q 247 169 234 205 q 278 117 260 133 q 326 102 296 102 q 456 190 406 102 q 479 241 470 215 q 480 327 480 279 q 444 654 480 574 l 429 685 l 622 685 q 621 654 621 668 l 621 621 m 587 1038 q 419 796 528 907 q 379 760 393 770 l 302 760 q 321 799 310 774 q 396 981 379 929 q 414 1038 414 1034 l 587 1038 z "},"û":{"ha":746,"x_min":49,"x_max":684,"o":"m 621 621 l 611 318 q 644 64 611 133 q 684 0 655 39 l 496 0 q 475 117 480 46 q 273 -14 397 -14 q 142 50 187 -14 q 97 220 97 112 l 97 311 q 97 374 97 342 l 96 435 q 92 527 95 494 q 85 582 89 560 q 76 622 81 604 q 64 654 71 639 l 49 685 l 245 685 q 245 665 245 674 l 245 645 q 234 304 245 645 q 247 169 234 205 q 278 117 260 133 q 326 102 296 102 q 456 190 406 102 q 479 241 470 215 q 480 327 480 279 q 444 654 480 574 l 429 685 l 622 685 q 621 654 621 668 l 621 621 m 519 787 q 356 920 457 819 q 195 787 260 821 l 131 787 q 182 857 155 814 q 254 975 239 947 l 279 1018 q 290 1038 288 1034 l 423 1038 q 434 1018 425 1034 q 583 787 548 823 l 519 787 z "},"ü":{"ha":746,"x_min":49,"x_max":684,"o":"m 621 621 l 611 318 q 644 64 611 133 q 684 0 655 39 l 496 0 q 475 117 480 46 q 273 -14 397 -14 q 142 50 187 -14 q 97 220 97 112 l 97 311 q 97 374 97 342 l 96 435 q 92 527 95 494 q 85 582 89 560 q 76 622 81 604 q 64 654 71 639 l 49 685 l 245 685 q 245 665 245 674 l 245 645 q 234 304 245 645 q 247 169 234 205 q 278 117 260 133 q 326 102 296 102 q 456 190 406 102 q 479 241 470 215 q 480 327 480 279 q 444 654 480 574 l 429 685 l 622 685 q 621 654 621 668 l 621 621 m 278 858 q 271 848 278 858 q 248 824 265 838 q 208 810 230 810 q 168 824 185 810 q 138 858 150 838 q 113 946 113 900 q 164 1021 113 1002 q 208 1027 182 1027 q 298 977 281 1027 q 304 944 304 962 q 297 902 304 926 q 278 858 290 878 m 573 858 q 567 848 573 858 q 543 824 561 838 q 503 810 526 810 q 463 824 481 810 q 433 858 446 838 q 408 946 408 900 q 459 1021 408 1002 q 504 1027 477 1027 q 594 977 577 1027 q 600 944 600 962 q 593 902 600 926 q 573 858 586 878 z "},"ý":{"ha":719,"x_min":34,"x_max":607,"o":"m 449 224 l 450 375 q 442 560 450 517 q 430 621 435 604 q 420 653 426 638 l 407 685 l 607 685 l 604 654 q 598 559 600 621 l 595 456 q 592 234 592 337 q 579 58 592 131 q 546 -71 567 -16 q 498 -167 525 -127 q 441 -235 471 -208 q 326 -305 389 -283 q 299 -285 312 -300 q 284 -258 287 -271 q 380 -164 344 -227 q 444 94 431 -75 q 251 -14 366 -14 q 125 50 170 -14 q 82 220 82 112 l 82 311 q 81 374 82 342 l 81 435 q 77 527 80 494 q 70 582 74 560 q 61 622 66 604 q 49 654 56 639 l 34 685 l 241 685 q 223 318 223 588 q 235 172 223 208 q 263 118 246 135 q 308 102 281 102 q 356 110 335 102 q 393 133 376 119 q 449 204 427 159 l 449 224 m 475 278 l 471 262 l 475 278 m 565 1038 q 397 796 505 907 q 357 760 371 770 l 279 760 q 299 799 288 774 q 374 981 357 929 q 391 1038 391 1034 l 565 1038 z "},"þ":{"ha":709,"x_min":53,"x_max":642,"o":"m 262 664 q 398 699 330 699 q 508 683 466 699 q 580 637 550 668 q 642 459 642 574 q 610 257 642 343 q 526 114 578 170 q 267 0 425 5 q 271 -72 269 -37 l 278 -143 q 320 -267 284 -216 l 343 -298 l 96 -298 q 119 -141 115 -233 q 125 237 125 -7 l 125 305 q 111 882 125 694 q 53 1038 104 978 l 294 1038 q 262 664 269 948 m 262 486 l 261 239 q 267 52 261 100 q 416 178 361 74 q 473 434 473 281 q 459 561 473 525 q 426 614 445 597 q 379 631 406 631 q 332 621 353 631 q 296 593 312 612 q 262 486 262 553 z "},"ÿ":{"ha":719,"x_min":34,"x_max":607,"o":"m 449 224 l 450 375 q 442 560 450 517 q 430 621 435 604 q 420 653 426 638 l 407 685 l 607 685 l 604 654 q 598 559 600 621 l 595 456 q 592 234 592 337 q 579 58 592 131 q 546 -71 567 -16 q 498 -167 525 -127 q 441 -235 471 -208 q 326 -305 389 -283 q 299 -285 312 -300 q 284 -258 287 -271 q 380 -164 344 -227 q 444 94 431 -75 q 251 -14 366 -14 q 125 50 170 -14 q 82 220 82 112 l 82 311 q 81 374 82 342 l 81 435 q 77 527 80 494 q 70 582 74 560 q 61 622 66 604 q 49 654 56 639 l 34 685 l 241 685 q 223 318 223 588 q 235 172 223 208 q 263 118 246 135 q 308 102 281 102 q 356 110 335 102 q 393 133 376 119 q 449 204 427 159 l 449 224 m 475 278 l 471 262 l 475 278 m 256 858 q 250 848 256 858 q 226 824 243 838 q 186 810 208 810 q 146 824 163 810 q 116 858 128 838 q 91 946 91 900 q 142 1021 91 1002 q 186 1027 160 1027 q 277 977 260 1027 q 282 944 282 962 q 275 902 282 926 q 256 858 269 878 m 552 858 q 545 848 552 858 q 522 824 539 838 q 481 810 504 810 q 441 824 459 810 q 412 858 424 838 q 387 946 387 900 q 437 1021 387 1002 q 482 1027 456 1027 q 572 977 555 1027 q 578 944 578 962 q 571 902 578 926 q 552 858 564 878 z "},"Ā":{"ha":787,"x_min":45,"x_max":788,"o":"m 551 0 q 560 68 560 43 q 559 106 560 94 q 556 134 558 119 q 552 166 555 149 q 548 208 550 184 q 437 475 532 370 q 347 545 395 521 q 266 569 298 569 q 218 565 235 569 q 180 327 180 451 q 191 163 180 217 q 248 -1 210 81 l 45 -1 q 61 171 61 40 q 81 415 61 301 q 132 617 100 528 q 202 773 163 706 q 280 889 241 840 q 354 975 319 939 q 412 1038 389 1010 l 625 1038 q 596 945 596 1004 q 605 856 596 918 l 622 732 q 788 0 715 92 l 551 0 m 245 637 q 301 647 272 647 q 354 643 330 647 q 400 629 377 639 q 483 569 450 610 q 442 782 450 743 l 418 901 l 380 854 q 245 637 298 757 m 251 1297 q 487 1284 315 1284 q 720 1297 659 1284 l 720 1168 q 487 1182 659 1182 q 251 1168 315 1182 l 251 1297 z "},"ā":{"ha":690,"x_min":54,"x_max":663,"o":"m 579 362 l 577 232 q 600 66 577 111 q 631 26 613 40 l 663 0 l 467 0 l 446 79 q 227 -14 369 -14 q 97 41 146 -14 q 54 156 54 90 q 85 272 54 222 q 168 354 117 321 q 424 420 270 417 l 424 427 q 373 621 424 592 q 326 631 355 631 q 269 612 297 631 q 217 563 240 593 q 151 420 171 503 q 91 558 91 456 q 102 651 91 600 q 151 659 127 651 l 203 675 q 353 699 279 699 q 470 677 426 699 q 538 612 513 655 q 579 362 579 540 m 200 142 q 219 77 200 100 q 268 54 239 54 q 324 70 297 54 q 373 111 351 85 q 424 253 424 172 l 424 353 q 267 290 329 345 q 200 142 200 232 m 103 943 q 339 929 167 929 q 572 943 511 929 l 572 814 q 339 827 511 827 q 103 814 167 827 l 103 943 z "},"Ă":{"ha":787,"x_min":45,"x_max":788,"o":"m 551 0 q 560 68 560 43 q 559 106 560 94 q 556 134 558 119 q 552 166 555 149 q 548 208 550 184 q 437 475 532 370 q 347 545 395 521 q 266 569 298 569 q 218 565 235 569 q 180 327 180 451 q 191 163 180 217 q 248 -1 210 81 l 45 -1 q 61 171 61 40 q 81 415 61 301 q 132 617 100 528 q 202 773 163 706 q 280 889 241 840 q 354 975 319 939 q 412 1038 389 1010 l 625 1038 q 596 945 596 1004 q 605 856 596 918 l 622 732 q 788 0 715 92 l 551 0 m 245 637 q 301 647 272 647 q 354 643 330 647 q 400 629 377 639 q 483 569 450 610 q 442 782 450 743 l 418 901 l 380 854 q 245 637 298 757 m 450 1214 q 510 1204 476 1204 q 568 1214 543 1204 q 611 1244 593 1225 q 651 1343 651 1285 l 735 1343 q 691 1188 735 1260 q 519 1092 633 1092 q 300 1242 353 1092 q 283 1343 283 1292 l 374 1343 q 450 1214 374 1244 z "},"ă":{"ha":690,"x_min":54,"x_max":663,"o":"m 579 362 l 577 232 q 600 66 577 111 q 631 26 613 40 l 663 0 l 467 0 l 446 79 q 227 -14 369 -14 q 97 41 146 -14 q 54 156 54 90 q 85 272 54 222 q 168 354 117 321 q 424 420 270 417 l 424 427 q 373 621 424 592 q 326 631 355 631 q 269 612 297 631 q 217 563 240 593 q 151 420 171 503 q 91 558 91 456 q 102 651 91 600 q 151 659 127 651 l 203 675 q 353 699 279 699 q 470 677 426 699 q 538 612 513 655 q 579 362 579 540 m 200 142 q 219 77 200 100 q 268 54 239 54 q 324 70 297 54 q 373 111 351 85 q 424 253 424 172 l 424 353 q 267 290 329 345 q 200 142 200 232 m 271 909 q 331 899 298 899 q 390 909 365 899 q 433 939 414 920 q 473 1038 473 980 l 557 1038 q 513 883 557 955 q 341 787 454 787 q 122 937 175 787 q 105 1038 105 987 l 196 1038 q 271 909 196 939 z "},"Ą":{"ha":787,"x_min":45,"x_max":788,"o":"m 679 -245 q 732 -235 705 -245 q 728 -292 738 -266 q 635 -324 698 -315 q 593 -327 616 -327 q 542 -318 570 -327 q 491 -293 513 -310 q 442 -193 442 -255 q 522 -39 442 -140 q 553 10 541 -14 q 560 73 560 54 q 559 106 560 93 q 556 133 558 119 q 546 230 551 165 q 510 361 540 294 q 437 475 479 429 q 347 545 395 521 q 266 569 298 569 q 218 565 235 569 q 180 327 180 451 q 191 163 180 217 q 248 -1 210 81 l 45 -1 q 61 171 61 40 q 81 415 61 301 q 132 617 100 528 q 202 773 163 706 q 280 889 241 840 q 354 975 319 939 q 412 1038 389 1010 l 625 1038 q 596 945 596 1004 q 605 856 596 918 l 622 732 q 788 0 715 92 l 657 0 l 629 -34 q 574 -144 574 -98 q 679 -245 574 -245 m 245 637 q 301 647 272 647 q 354 643 330 647 q 400 629 377 639 q 483 569 450 610 q 442 782 450 743 l 418 901 l 380 854 q 245 637 298 757 z "},"ą":{"ha":690,"x_min":54,"x_max":663,"o":"m 597 -245 q 650 -235 623 -245 q 646 -292 656 -266 q 553 -324 616 -315 q 511 -327 534 -327 q 459 -318 488 -327 q 410 -293 431 -310 q 360 -193 360 -255 q 434 -46 360 -140 q 466 1 452 -22 l 446 79 q 227 -14 369 -14 q 97 41 146 -14 q 54 156 54 90 q 85 272 54 222 q 168 354 117 321 q 424 420 270 417 l 424 427 q 373 621 424 592 q 326 631 355 631 q 269 612 297 631 q 217 563 240 593 q 151 420 171 503 q 91 558 91 456 q 102 651 91 600 q 151 659 127 651 l 203 675 q 353 699 279 699 q 470 677 426 699 q 538 612 513 655 q 579 362 579 540 l 577 232 q 600 66 577 111 q 631 26 613 40 l 663 0 l 575 0 l 547 -34 q 492 -144 492 -98 q 597 -245 492 -245 m 200 142 q 219 77 200 100 q 268 54 239 54 q 324 70 297 54 q 373 111 351 85 q 424 253 424 172 l 424 353 q 267 290 329 345 q 200 142 200 232 z "},"Ć":{"ha":696,"x_min":37,"x_max":665,"o":"m 636 1085 q 656 1000 656 1057 q 652 907 656 943 q 641 838 648 871 q 595 726 625 764 q 530 913 570 857 q 421 970 488 970 q 315 944 353 970 q 257 876 277 918 q 223 670 223 806 q 254 421 223 534 q 342 227 285 309 q 654 54 462 54 q 623 1 652 24 q 604 -7 614 -5 q 202 174 357 -7 q 37 699 37 367 q 139 960 37 873 q 386 1038 229 1038 l 499 1036 q 612 1059 579 1036 q 636 1085 625 1069 m 665 1351 q 483 1176 600 1253 q 435 1147 454 1157 l 335 1147 q 362 1177 347 1158 q 430 1261 362 1177 q 491 1351 491 1340 l 665 1351 z "},"ć":{"ha":591,"x_min":41,"x_max":533,"o":"m 516 726 q 533 636 533 685 q 530 556 533 588 q 519 494 526 524 q 475 393 505 431 q 378 617 446 578 q 327 631 355 631 q 279 618 300 631 q 245 581 259 605 q 216 454 216 532 q 231 320 216 376 q 272 220 247 264 q 330 143 298 176 q 395 90 362 111 q 511 47 460 47 q 494 13 509 30 q 461 -14 479 -4 q 296 35 389 -14 q 63 302 123 127 q 41 434 41 367 q 56 548 41 502 q 102 628 72 595 q 271 699 163 699 q 342 694 308 699 q 434 685 408 685 q 480 692 460 685 q 516 726 500 699 m 522 1038 q 353 796 462 907 q 313 760 328 770 l 236 760 q 256 799 244 774 q 331 981 313 929 q 348 1038 348 1034 l 522 1038 z "},"Ĉ":{"ha":696,"x_min":37,"x_max":656,"o":"m 636 1085 q 656 1000 656 1057 q 652 907 656 943 q 641 838 648 871 q 595 726 625 764 q 530 913 570 857 q 421 970 488 970 q 315 944 353 970 q 257 876 277 918 q 223 670 223 806 q 254 421 223 534 q 342 227 285 309 q 654 54 462 54 q 623 1 652 24 q 604 -7 614 -5 q 202 174 357 -7 q 37 699 37 367 q 139 960 37 873 q 386 1038 229 1038 l 499 1036 q 612 1059 579 1036 q 636 1085 625 1069 m 544 1140 q 379 1245 460 1177 q 216 1140 292 1174 l 146 1140 q 175 1171 158 1152 q 275 1291 256 1267 l 302 1327 q 314 1343 313 1340 l 446 1343 q 457 1327 447 1340 q 614 1140 587 1166 l 544 1140 z "},"ĉ":{"ha":591,"x_min":41,"x_max":533,"o":"m 516 726 q 533 636 533 685 q 530 556 533 588 q 519 494 526 524 q 475 393 505 431 q 378 617 446 578 q 327 631 355 631 q 279 618 300 631 q 245 581 259 605 q 216 454 216 532 q 231 320 216 376 q 272 220 247 264 q 330 143 298 176 q 395 90 362 111 q 511 47 460 47 q 494 13 509 30 q 461 -14 479 -4 q 296 35 389 -14 q 63 302 123 127 q 41 434 41 367 q 56 548 41 502 q 102 628 72 595 q 271 699 163 699 q 342 694 308 699 q 434 685 408 685 q 480 692 460 685 q 516 726 500 699 m 453 787 q 290 920 391 819 q 129 787 194 821 l 65 787 q 117 857 90 814 q 189 975 173 947 l 214 1018 q 224 1038 222 1034 l 357 1038 q 368 1018 359 1034 q 517 787 482 823 l 453 787 z "},"Ċ":{"ha":696,"x_min":37,"x_max":656,"o":"m 636 1085 q 656 1000 656 1057 q 652 907 656 943 q 641 838 648 871 q 595 726 625 764 q 530 913 570 857 q 421 970 488 970 q 315 944 353 970 q 257 876 277 918 q 223 670 223 806 q 254 421 223 534 q 342 227 285 309 q 654 54 462 54 q 623 1 652 24 q 604 -7 614 -5 q 202 174 357 -7 q 37 699 37 367 q 139 960 37 873 q 386 1038 229 1038 l 499 1036 q 612 1059 579 1036 q 636 1085 625 1069 m 450 1162 q 444 1152 450 1162 q 420 1128 437 1142 q 380 1115 402 1115 q 339 1128 357 1115 q 309 1162 321 1142 q 285 1250 285 1204 q 336 1325 285 1306 q 380 1332 354 1332 q 471 1280 453 1332 q 476 1248 476 1266 q 469 1206 476 1230 q 450 1162 463 1183 z "},"ċ":{"ha":591,"x_min":41,"x_max":533,"o":"m 516 726 q 533 636 533 685 q 530 556 533 588 q 519 494 526 524 q 475 393 505 431 q 378 617 446 578 q 327 631 355 631 q 279 618 300 631 q 245 581 259 605 q 216 454 216 532 q 231 320 216 376 q 272 220 247 264 q 330 143 298 176 q 395 90 362 111 q 511 47 460 47 q 494 13 509 30 q 461 -14 479 -4 q 296 35 389 -14 q 63 302 123 127 q 41 434 41 367 q 56 548 41 502 q 102 628 72 595 q 271 699 163 699 q 342 694 308 699 q 434 685 408 685 q 480 692 460 685 q 516 726 500 699 m 373 867 q 366 856 373 867 q 340 830 359 845 q 295 814 320 814 q 250 830 270 814 q 217 867 231 845 q 189 965 189 913 q 246 1048 189 1027 q 296 1056 267 1056 q 396 999 376 1056 q 402 963 402 983 q 395 916 402 943 q 373 867 387 890 z "},"Č":{"ha":696,"x_min":37,"x_max":656,"o":"m 636 1085 q 656 1000 656 1057 q 652 907 656 943 q 641 838 648 871 q 595 726 625 764 q 530 913 570 857 q 421 970 488 970 q 315 944 353 970 q 257 876 277 918 q 223 670 223 806 q 254 421 223 534 q 342 227 285 309 q 654 54 462 54 q 623 1 652 24 q 604 -7 614 -5 q 202 174 357 -7 q 37 699 37 367 q 139 960 37 873 q 386 1038 229 1038 l 499 1036 q 612 1059 579 1036 q 636 1085 625 1069 m 229 1343 q 394 1237 319 1299 q 557 1343 478 1308 l 627 1343 q 598 1312 615 1331 q 499 1192 517 1217 l 471 1156 q 459 1139 460 1142 l 328 1139 q 316 1156 326 1142 l 223 1272 l 189 1312 q 159 1343 172 1331 l 229 1343 z "},"č":{"ha":591,"x_min":41,"x_max":533,"o":"m 516 726 q 533 636 533 685 q 530 556 533 588 q 519 494 526 524 q 475 393 505 431 q 378 617 446 578 q 327 631 355 631 q 279 618 300 631 q 245 581 259 605 q 216 454 216 532 q 231 320 216 376 q 272 220 247 264 q 330 143 298 176 q 395 90 362 111 q 511 47 460 47 q 494 13 509 30 q 461 -14 479 -4 q 296 35 389 -14 q 63 302 123 127 q 41 434 41 367 q 56 548 41 502 q 102 628 72 595 q 271 699 163 699 q 342 694 308 699 q 434 685 408 685 q 480 692 460 685 q 516 726 500 699 m 138 1038 q 299 899 192 1009 q 462 1038 405 1008 l 526 1038 q 476 969 505 1016 q 402 845 418 873 l 377 800 q 366 780 368 783 l 233 780 q 222 800 231 783 q 170 893 188 863 l 135 951 q 74 1038 97 1012 l 138 1038 z "},"Ď":{"ha":810,"x_min":43,"x_max":743,"o":"m 268 855 l 269 180 q 277 121 269 141 q 311 102 286 102 q 499 255 432 102 q 564 669 564 404 q 532 880 564 808 q 378 977 488 977 q 293 960 309 977 q 272 920 277 944 q 268 855 268 896 m 79 0 q 105 86 101 52 q 111 160 109 121 q 117 375 117 240 q 111 673 117 538 l 104 860 q 92 958 101 930 q 43 1038 77 1002 l 415 1038 q 718 855 647 1038 q 743 699 743 791 q 396 47 743 187 q 120 -1 279 -1 q 100 -1 110 -1 q 79 0 90 -1 m 195 1343 q 359 1237 284 1299 q 523 1343 444 1308 l 593 1343 q 564 1312 581 1331 q 465 1192 483 1217 l 436 1156 q 425 1139 426 1142 l 293 1139 q 281 1156 292 1142 l 189 1272 l 154 1312 q 125 1343 137 1331 l 195 1343 z "},"ď":{"ha":828,"x_min":51,"x_max":848,"o":"m 466 54 q 278 -14 392 -14 q 113 47 174 -14 q 51 223 51 109 q 84 421 51 336 q 172 564 117 507 q 435 684 279 678 q 421 924 429 893 q 404 973 412 955 q 385 1006 395 991 l 361 1038 l 609 1038 q 587 905 590 969 q 583 791 584 840 q 581 689 581 743 q 578 511 578 600 q 579 377 578 422 q 581 291 579 332 q 592 110 584 138 q 609 63 600 81 q 628 31 617 46 l 651 0 l 475 0 l 466 54 m 436 249 q 437 301 436 249 q 439 445 439 353 q 437 618 439 536 q 279 503 338 604 q 220 250 220 402 q 234 123 220 159 q 268 71 248 87 q 314 54 287 54 q 362 65 342 54 q 399 98 383 77 q 436 249 433 144 m 848 1002 q 848 993 848 1002 q 846 963 848 983 q 840 904 844 942 q 822 821 837 865 q 787 740 807 776 q 703 642 749 669 q 685 654 696 646 q 662 671 673 663 q 706 833 703 730 q 707 883 707 859 q 703 930 707 906 q 692 976 699 955 q 656 1040 679 1021 l 844 1040 q 848 1002 848 1021 z "},"Đ":{"ha":831,"x_min":35,"x_max":763,"o":"m 132 654 q 35 636 64 651 l 35 755 q 128 738 63 743 l 123 860 q 111 958 121 930 q 62 1038 96 1002 l 435 1038 q 738 855 667 1038 q 763 699 763 791 q 416 47 763 187 q 140 -1 298 -1 q 119 -1 130 -1 q 99 0 109 -1 q 124 86 121 52 q 131 161 128 121 q 136 369 136 241 q 132 654 136 496 m 288 654 l 288 180 q 297 121 289 141 q 331 102 305 102 q 518 255 452 102 q 584 669 584 404 q 551 880 584 808 q 398 977 507 977 q 312 960 328 977 q 292 920 296 944 q 288 855 288 896 l 288 736 q 477 755 420 740 l 477 636 q 288 654 417 651 z "},"đ":{"ha":689,"x_min":51,"x_max":667,"o":"m 583 784 q 578 517 578 614 q 578 375 578 420 q 579 290 578 330 q 592 111 583 141 q 609 63 600 81 q 628 31 617 46 l 651 0 l 475 0 l 466 54 q 278 -14 392 -14 q 113 47 174 -14 q 51 223 51 109 q 84 421 51 336 q 172 564 117 507 q 435 684 279 678 l 431 787 q 252 773 309 787 l 252 888 q 427 875 308 875 l 427 880 q 385 1006 422 955 l 361 1038 l 609 1038 q 586 882 590 969 l 586 878 q 667 888 634 880 l 667 773 q 583 784 633 781 m 436 249 q 437 301 436 249 q 439 445 439 353 q 437 618 439 536 q 279 503 338 604 q 220 250 220 402 q 234 123 220 159 q 268 71 248 87 q 314 54 287 54 q 362 65 342 54 q 399 98 383 77 q 436 249 433 144 z "},"Ē":{"ha":668,"x_min":16,"x_max":635,"o":"m 617 251 q 635 178 635 226 q 631 103 635 131 q 618 52 627 75 q 565 0 598 0 l 16 0 q 85 54 68 28 q 117 176 117 102 q 116 503 116 357 l 116 860 q 84 1006 116 961 q 55 1038 72 1023 l 565 1038 q 628 924 611 1021 q 633 871 633 897 q 617 787 633 818 l 581 860 q 475 956 544 932 q 390 970 437 970 q 322 967 342 970 q 291 952 302 964 q 273 877 273 932 q 276 801 273 822 q 289 766 279 779 q 378 739 310 739 l 591 739 q 559 684 575 700 q 471 651 526 651 q 429 656 449 651 q 365 665 393 665 q 319 660 337 665 q 291 644 301 654 q 273 575 273 625 l 273 252 q 288 100 273 124 q 322 72 302 77 q 390 68 342 68 q 476 81 437 68 q 541 119 515 95 q 584 177 567 144 q 617 251 601 211 m 98 1297 q 333 1284 161 1284 q 567 1297 505 1284 l 567 1168 q 333 1182 505 1182 q 98 1168 161 1182 l 98 1297 z "},"ē":{"ha":648,"x_min":51,"x_max":581,"o":"m 549 231 q 574 174 574 214 q 563 103 574 134 q 525 46 552 73 q 339 -14 464 -14 q 118 94 194 -14 q 51 352 51 189 q 142 610 51 516 q 375 699 228 699 q 535 639 477 699 q 581 529 581 591 q 556 417 581 467 q 486 332 532 368 q 216 253 389 257 q 302 71 231 117 q 370 54 328 54 q 461 99 413 54 q 549 231 509 144 m 212 317 q 427 525 427 332 q 383 623 427 597 q 344 631 368 631 q 295 616 319 631 q 252 567 270 601 q 212 338 212 493 l 212 317 m 101 943 q 337 929 165 929 q 570 943 509 929 l 570 814 q 337 827 509 827 q 101 814 165 827 l 101 943 z "},"Ĕ":{"ha":668,"x_min":16,"x_max":635,"o":"m 617 251 q 635 178 635 226 q 631 103 635 131 q 618 52 627 75 q 565 0 598 0 l 16 0 q 85 54 68 28 q 117 176 117 102 q 116 503 116 357 l 116 860 q 84 1006 116 961 q 55 1038 72 1023 l 565 1038 q 628 924 611 1021 q 633 871 633 897 q 617 787 633 818 l 581 860 q 475 956 544 932 q 390 970 437 970 q 322 967 342 970 q 291 952 302 964 q 273 877 273 932 q 276 801 273 822 q 289 766 279 779 q 378 739 310 739 l 591 739 q 559 684 575 700 q 471 651 526 651 q 429 656 449 651 q 365 665 393 665 q 319 660 337 665 q 291 644 301 654 q 273 575 273 625 l 273 252 q 288 100 273 124 q 322 72 302 77 q 390 68 342 68 q 476 81 437 68 q 541 119 515 95 q 584 177 567 144 q 617 251 601 211 m 289 1214 q 349 1204 315 1204 q 407 1214 382 1204 q 450 1244 432 1225 q 490 1343 490 1285 l 574 1343 q 530 1188 574 1260 q 359 1092 472 1092 q 140 1242 193 1092 q 123 1343 123 1292 l 214 1343 q 289 1214 214 1244 z "},"ĕ":{"ha":648,"x_min":51,"x_max":581,"o":"m 549 231 q 574 174 574 214 q 563 103 574 134 q 525 46 552 73 q 339 -14 464 -14 q 118 94 194 -14 q 51 352 51 189 q 142 610 51 516 q 375 699 228 699 q 535 639 477 699 q 581 529 581 591 q 556 417 581 467 q 486 332 532 368 q 216 253 389 257 q 302 71 231 117 q 370 54 328 54 q 461 99 413 54 q 549 231 509 144 m 212 317 q 427 525 427 332 q 383 623 427 597 q 344 631 368 631 q 295 616 319 631 q 252 567 270 601 q 212 338 212 493 l 212 317 m 265 909 q 325 899 292 899 q 384 909 359 899 q 427 939 408 920 q 467 1038 467 980 l 551 1038 q 507 883 551 955 q 335 787 448 787 q 116 937 169 787 q 99 1038 99 987 l 190 1038 q 265 909 190 939 z "},"Ė":{"ha":668,"x_min":16,"x_max":635,"o":"m 617 251 q 635 178 635 226 q 631 103 635 131 q 618 52 627 75 q 565 0 598 0 l 16 0 q 85 54 68 28 q 117 176 117 102 q 116 503 116 357 l 116 860 q 84 1006 116 961 q 55 1038 72 1023 l 565 1038 q 628 924 611 1021 q 633 871 633 897 q 617 787 633 818 l 581 860 q 475 956 544 932 q 390 970 437 970 q 322 967 342 970 q 291 952 302 964 q 273 877 273 932 q 276 801 273 822 q 289 766 279 779 q 378 739 310 739 l 591 739 q 559 684 575 700 q 471 651 526 651 q 429 656 449 651 q 365 665 393 665 q 319 660 337 665 q 291 644 301 654 q 273 575 273 625 l 273 252 q 288 100 273 124 q 322 72 302 77 q 390 68 342 68 q 476 81 437 68 q 541 119 515 95 q 584 177 567 144 q 617 251 601 211 m 395 1162 q 389 1152 395 1162 q 365 1128 382 1142 q 325 1115 347 1115 q 284 1128 302 1115 q 254 1162 267 1142 q 230 1250 230 1204 q 281 1325 230 1306 q 326 1332 299 1332 q 416 1280 398 1332 q 421 1248 421 1266 q 414 1206 421 1230 q 395 1162 408 1183 z "},"ė":{"ha":648,"x_min":51,"x_max":581,"o":"m 549 231 q 574 174 574 214 q 563 103 574 134 q 525 46 552 73 q 339 -14 464 -14 q 118 94 194 -14 q 51 352 51 189 q 142 610 51 516 q 375 699 228 699 q 535 639 477 699 q 581 529 581 591 q 556 417 581 467 q 486 332 532 368 q 216 253 389 257 q 302 71 231 117 q 370 54 328 54 q 461 99 413 54 q 549 231 509 144 m 212 317 q 427 525 427 332 q 383 623 427 597 q 344 631 368 631 q 295 616 319 631 q 252 567 270 601 q 212 338 212 493 l 212 317 m 409 867 q 402 856 409 867 q 375 830 395 845 q 330 814 355 814 q 286 830 305 814 q 252 867 266 845 q 224 965 224 913 q 281 1048 224 1027 q 331 1056 302 1056 q 431 999 412 1056 q 437 963 437 983 q 430 916 437 943 q 409 867 422 890 z "},"Ę":{"ha":668,"x_min":16,"x_max":645,"o":"m 586 -245 q 639 -235 612 -245 q 635 -292 645 -266 q 542 -324 605 -315 q 500 -327 523 -327 q 449 -318 477 -327 q 399 -293 420 -310 q 349 -193 349 -255 q 423 -46 349 -142 q 454 0 441 -23 l 16 0 q 85 54 68 28 q 117 176 117 102 q 116 503 116 357 l 116 860 q 84 1006 116 961 q 55 1038 72 1023 l 565 1038 q 628 924 611 1021 q 633 871 633 897 q 617 787 633 818 l 581 860 q 475 956 544 932 q 390 970 437 970 q 322 967 342 970 q 291 952 302 964 q 273 877 273 932 q 276 801 273 822 q 289 766 279 779 q 378 739 310 739 l 591 739 q 559 684 575 700 q 471 651 526 651 q 429 656 449 651 q 365 665 393 665 q 319 660 337 665 q 291 644 301 654 q 273 575 273 625 l 273 252 q 288 100 273 124 q 322 72 302 77 q 390 68 342 68 q 476 81 437 68 q 541 119 515 95 q 584 177 567 144 q 617 251 601 211 q 635 178 635 226 q 631 103 635 131 q 618 52 627 75 q 565 0 598 0 l 564 0 l 536 -34 q 481 -144 481 -98 q 586 -245 481 -245 z "},"ę":{"ha":648,"x_min":51,"x_max":581,"o":"m 507 -245 q 560 -235 534 -245 q 556 -292 566 -266 q 463 -324 526 -315 q 421 -327 444 -327 q 370 -318 398 -327 q 320 -293 342 -310 q 271 -193 271 -255 q 295 -116 271 -154 q 337 -56 320 -78 q 368 -12 354 -34 q 339 -14 353 -14 q 118 94 194 -14 q 51 352 51 189 q 142 610 51 516 q 375 699 228 699 q 535 639 477 699 q 581 529 581 591 q 556 417 581 467 q 486 332 532 368 q 216 253 389 257 q 302 71 231 117 q 370 54 328 54 q 461 99 413 54 q 549 231 509 144 q 574 172 574 214 q 513 35 574 84 q 481 -5 500 16 q 445 -49 463 -26 q 403 -144 403 -105 q 507 -245 403 -245 m 212 317 q 427 525 427 332 q 383 623 427 597 q 344 631 368 631 q 295 616 319 631 q 252 567 270 601 q 212 338 212 493 l 212 317 z "},"Ě":{"ha":668,"x_min":16,"x_max":635,"o":"m 617 251 q 635 178 635 226 q 631 103 635 131 q 618 52 627 75 q 565 0 598 0 l 16 0 q 85 54 68 28 q 117 176 117 102 q 116 503 116 357 l 116 860 q 84 1006 116 961 q 55 1038 72 1023 l 565 1038 q 628 924 611 1021 q 633 871 633 897 q 617 787 633 818 l 581 860 q 475 956 544 932 q 390 970 437 970 q 322 967 342 970 q 291 952 302 964 q 273 877 273 932 q 276 801 273 822 q 289 766 279 779 q 378 739 310 739 l 591 739 q 559 684 575 700 q 471 651 526 651 q 429 656 449 651 q 365 665 393 665 q 319 660 337 665 q 291 644 301 654 q 273 575 273 625 l 273 252 q 288 100 273 124 q 322 72 302 77 q 390 68 342 68 q 476 81 437 68 q 541 119 515 95 q 584 177 567 144 q 617 251 601 211 m 181 1343 q 346 1237 271 1299 q 509 1343 430 1308 l 579 1343 q 550 1312 567 1331 q 451 1192 469 1217 l 422 1156 q 411 1139 412 1142 l 279 1139 q 268 1156 278 1142 l 175 1272 l 140 1312 q 111 1343 123 1331 l 181 1343 z "},"ě":{"ha":648,"x_min":51,"x_max":581,"o":"m 549 231 q 574 174 574 214 q 563 103 574 134 q 525 46 552 73 q 339 -14 464 -14 q 118 94 194 -14 q 51 352 51 189 q 142 610 51 516 q 375 699 228 699 q 535 639 477 699 q 581 529 581 591 q 556 417 581 467 q 486 332 532 368 q 216 253 389 257 q 302 71 231 117 q 370 54 328 54 q 461 99 413 54 q 549 231 509 144 m 212 317 q 427 525 427 332 q 383 623 427 597 q 344 631 368 631 q 295 616 319 631 q 252 567 270 601 q 212 338 212 493 l 212 317 m 176 1038 q 337 899 230 1009 q 500 1038 443 1008 l 564 1038 q 514 969 543 1016 q 440 845 456 873 l 415 800 q 404 780 406 783 l 271 780 q 260 800 269 783 q 208 893 226 863 l 173 951 q 112 1038 135 1012 l 176 1038 z "},"Ĝ":{"ha":771,"x_min":63,"x_max":736,"o":"m 526 332 l 525 420 q 510 522 525 496 q 479 559 495 547 q 439 583 463 571 l 736 583 q 682 483 694 544 q 671 302 671 425 q 700 -14 671 65 q 681 -14 690 -14 l 663 -14 q 210 178 364 -14 q 63 699 63 361 q 161 955 63 866 q 405 1038 252 1038 l 524 1036 q 656 1059 618 1036 q 682 1085 671 1069 q 699 996 699 1053 q 696 904 699 939 q 686 836 692 869 q 642 726 671 765 q 577 913 616 861 q 441 970 534 970 q 277 876 325 970 q 242 669 242 808 q 301 303 242 478 q 404 129 342 180 q 470 102 436 102 q 514 121 505 102 q 524 189 524 141 q 526 332 526 282 m 587 1140 q 422 1245 503 1177 q 259 1140 335 1174 l 189 1140 q 218 1171 201 1152 q 318 1291 299 1267 l 346 1327 q 357 1343 356 1340 l 489 1343 q 500 1327 490 1340 q 657 1140 630 1166 l 587 1140 z "},"ĝ":{"ha":665,"x_min":52,"x_max":606,"o":"m 422 16 q 292 -14 356 -14 q 186 3 229 -14 q 115 50 144 19 q 52 230 52 115 q 179 574 52 451 q 452 685 292 685 l 606 685 q 585 559 587 619 q 581 460 582 498 q 579 382 580 422 q 578 222 578 304 q 565 63 578 140 q 531 -72 552 -14 q 482 -170 509 -130 q 425 -239 454 -211 q 311 -305 376 -284 q 285 -286 298 -300 q 270 -258 273 -271 q 393 -102 347 -227 q 422 16 410 -54 m 437 227 l 439 430 q 430 616 439 553 q 278 502 334 597 q 222 257 222 405 q 236 127 222 165 q 269 72 250 90 q 316 54 288 54 q 364 65 343 54 q 401 98 385 76 q 437 227 437 144 m 527 787 q 364 920 465 819 q 203 787 268 821 l 139 787 q 191 857 163 814 q 262 975 247 947 l 288 1018 q 298 1038 296 1034 l 431 1038 q 442 1018 433 1034 q 591 787 556 823 l 527 787 z "},"Ğ":{"ha":771,"x_min":63,"x_max":736,"o":"m 526 332 l 525 420 q 510 522 525 496 q 479 559 495 547 q 439 583 463 571 l 736 583 q 682 483 694 544 q 671 302 671 425 q 700 -14 671 65 q 681 -14 690 -14 l 663 -14 q 210 178 364 -14 q 63 699 63 361 q 161 955 63 866 q 405 1038 252 1038 l 524 1036 q 656 1059 618 1036 q 682 1085 671 1069 q 699 996 699 1053 q 696 904 699 939 q 686 836 692 869 q 642 726 671 765 q 577 913 616 861 q 441 970 534 970 q 277 876 325 970 q 242 669 242 808 q 301 303 242 478 q 404 129 342 180 q 470 102 436 102 q 514 121 505 102 q 524 189 524 141 q 526 332 526 282 m 353 1214 q 413 1204 380 1204 q 472 1214 447 1204 q 515 1244 496 1225 q 555 1343 555 1285 l 639 1343 q 595 1188 639 1260 q 423 1092 536 1092 q 204 1242 257 1092 q 187 1343 187 1292 l 278 1343 q 353 1214 278 1244 z "},"ğ":{"ha":665,"x_min":52,"x_max":606,"o":"m 422 16 q 292 -14 356 -14 q 186 3 229 -14 q 115 50 144 19 q 52 230 52 115 q 179 574 52 451 q 452 685 292 685 l 606 685 q 585 559 587 619 q 581 460 582 498 q 579 382 580 422 q 578 222 578 304 q 565 63 578 140 q 531 -72 552 -14 q 482 -170 509 -130 q 425 -239 454 -211 q 311 -305 376 -284 q 285 -286 298 -300 q 270 -258 273 -271 q 393 -102 347 -227 q 422 16 410 -54 m 437 227 l 439 430 q 430 616 439 553 q 278 502 334 597 q 222 257 222 405 q 236 127 222 165 q 269 72 250 90 q 316 54 288 54 q 364 65 343 54 q 401 98 385 76 q 437 227 437 144 m 320 909 q 380 899 347 899 q 438 909 414 899 q 481 939 463 920 q 522 1038 522 980 l 606 1038 q 562 883 606 955 q 390 787 503 787 q 171 937 224 787 q 154 1038 154 987 l 245 1038 q 320 909 245 939 z "},"Ġ":{"ha":771,"x_min":63,"x_max":736,"o":"m 526 332 l 525 420 q 510 522 525 496 q 479 559 495 547 q 439 583 463 571 l 736 583 q 682 483 694 544 q 671 302 671 425 q 700 -14 671 65 q 681 -14 690 -14 l 663 -14 q 210 178 364 -14 q 63 699 63 361 q 161 955 63 866 q 405 1038 252 1038 l 524 1036 q 656 1059 618 1036 q 682 1085 671 1069 q 699 996 699 1053 q 696 904 699 939 q 686 836 692 869 q 642 726 671 765 q 577 913 616 861 q 441 970 534 970 q 277 876 325 970 q 242 669 242 808 q 301 303 242 478 q 404 129 342 180 q 470 102 436 102 q 514 121 505 102 q 524 189 524 141 q 526 332 526 282 m 462 1162 q 456 1152 462 1162 q 432 1128 450 1142 q 392 1115 414 1115 q 352 1128 370 1115 q 321 1162 334 1142 q 297 1250 297 1204 q 348 1325 297 1306 q 393 1332 366 1332 q 483 1280 465 1332 q 488 1248 488 1266 q 481 1206 488 1230 q 462 1162 475 1183 z "},"ġ":{"ha":665,"x_min":52,"x_max":606,"o":"m 422 16 q 292 -14 356 -14 q 186 3 229 -14 q 115 50 144 19 q 52 230 52 115 q 179 574 52 451 q 452 685 292 685 l 606 685 q 585 559 587 619 q 581 460 582 498 q 579 382 580 422 q 578 222 578 304 q 565 63 578 140 q 531 -72 552 -14 q 482 -170 509 -130 q 425 -239 454 -211 q 311 -305 376 -284 q 285 -286 298 -300 q 270 -258 273 -271 q 393 -102 347 -227 q 422 16 410 -54 m 437 227 l 439 430 q 430 616 439 553 q 278 502 334 597 q 222 257 222 405 q 236 127 222 165 q 269 72 250 90 q 316 54 288 54 q 364 65 343 54 q 401 98 385 76 q 437 227 437 144 m 457 867 q 450 856 457 867 q 424 830 444 845 q 379 814 404 814 q 334 830 354 814 q 301 867 315 845 q 273 965 273 913 q 330 1048 273 1027 q 380 1056 351 1056 q 480 999 460 1056 q 486 963 486 983 q 479 916 486 943 q 457 867 471 890 z "},"Ģ":{"ha":771,"x_min":63,"x_max":736,"o":"m 526 332 l 525 420 q 510 522 525 496 q 479 559 495 547 q 439 583 463 571 l 736 583 q 682 483 694 544 q 671 302 671 425 q 700 -14 671 65 q 681 -14 690 -14 l 663 -14 q 210 178 364 -14 q 63 699 63 361 q 161 955 63 866 q 405 1038 252 1038 l 524 1036 q 656 1059 618 1036 q 682 1085 671 1069 q 699 996 699 1053 q 696 904 699 939 q 686 836 692 869 q 642 726 671 765 q 577 913 616 861 q 441 970 534 970 q 277 876 325 970 q 242 669 242 808 q 301 303 242 478 q 404 129 342 180 q 470 102 436 102 q 514 121 505 102 q 524 189 524 141 q 526 332 526 282 m 550 -57 q 566 -105 566 -87 q 541 -205 566 -167 q 488 -269 515 -243 q 378 -338 429 -325 q 336 -311 356 -330 q 405 -185 405 -254 q 370 -79 405 -132 q 349 -57 359 -64 l 550 -57 z "},"ģ":{"ha":665,"x_min":52,"x_max":606,"o":"m 422 16 q 292 -14 356 -14 q 186 3 229 -14 q 115 50 144 19 q 52 230 52 115 q 179 574 52 451 q 452 685 292 685 l 606 685 q 585 559 587 619 q 581 460 582 498 q 579 382 580 422 q 578 222 578 304 q 565 63 578 140 q 531 -72 552 -14 q 482 -170 509 -130 q 425 -239 454 -211 q 311 -305 376 -284 q 285 -286 298 -300 q 270 -258 273 -271 q 393 -102 347 -227 q 422 16 410 -54 m 437 227 l 439 430 q 430 616 439 553 q 278 502 334 597 q 222 257 222 405 q 236 127 222 165 q 269 72 250 90 q 316 54 288 54 q 364 65 343 54 q 401 98 385 76 q 437 227 437 144 m 283 807 q 267 855 267 837 q 292 955 267 917 q 345 1019 317 993 q 454 1088 404 1075 q 496 1061 477 1080 q 428 935 428 1004 q 463 829 428 882 q 484 807 473 814 l 283 807 z "},"Ĥ":{"ha":846,"x_min":85,"x_max":768,"o":"m 576 404 l 575 589 q 563 641 575 627 q 480 666 541 666 l 373 666 q 281 618 289 666 q 279 589 279 605 l 278 386 q 305 56 278 123 q 339 0 316 31 l 85 0 q 110 86 106 52 q 118 172 114 121 q 125 415 125 278 q 125 604 125 552 q 123 705 124 656 q 111 952 119 911 q 97 1007 102 993 l 85 1038 l 339 1038 q 285 891 290 983 q 283 833 283 863 q 289 785 283 802 q 308 760 294 768 q 394 747 326 747 l 458 747 q 544 758 528 747 q 571 834 571 775 q 514 1038 571 979 l 768 1038 q 744 955 748 993 q 737 882 739 917 q 733 801 735 847 q 730 705 731 755 q 728 496 728 590 q 756 31 728 116 q 768 0 761 16 l 514 0 q 555 78 548 45 q 567 156 563 111 q 576 404 576 242 m 594 1140 q 429 1245 510 1177 q 266 1140 342 1174 l 196 1140 q 225 1171 208 1152 q 325 1291 306 1267 l 353 1327 q 364 1343 363 1340 l 496 1343 q 507 1327 497 1340 q 664 1140 637 1166 l 594 1140 z "},"ĥ":{"ha":771,"x_min":-52,"x_max":673,"o":"m 473 0 q 505 368 505 107 q 493 514 505 477 q 464 567 481 550 q 418 583 447 583 q 366 572 389 583 q 324 544 342 562 q 268 457 290 511 l 268 328 q 275 92 268 137 q 294 0 284 32 l 94 0 q 115 151 110 57 q 127 499 127 387 q 127 651 127 610 q 125 733 126 692 q 112 919 121 881 q 93 974 102 956 q 75 1005 85 991 l 52 1037 l 299 1037 q 277 909 280 968 q 273 813 274 850 q 270 736 271 777 q 268 568 268 641 q 410 688 321 659 q 479 699 441 699 q 550 682 518 699 q 602 635 581 665 q 646 466 646 573 l 646 393 q 651 133 646 186 q 659 64 657 81 q 673 0 664 34 l 473 0 m 347 1116 q 182 1221 262 1154 q 18 1116 94 1150 l -52 1116 q -22 1147 -39 1128 q 77 1267 58 1243 l 105 1303 q 117 1320 115 1316 l 248 1320 q 260 1303 250 1316 q 416 1116 389 1142 l 347 1116 z "},"Ħ":{"ha":846,"x_min":32,"x_max":827,"o":"m 117 860 q 115 896 116 875 q 112 938 114 917 q 106 976 109 959 q 97 1007 102 993 l 85 1038 l 339 1038 q 293 855 307 1005 q 365 854 330 854 q 478 854 430 854 q 559 855 526 854 q 514 1038 543 1006 l 768 1038 q 744 955 748 993 q 738 899 739 917 q 736 861 736 871 q 827 868 794 864 l 827 753 q 732 760 793 757 q 728 519 728 637 q 747 61 728 151 q 768 0 755 30 l 514 0 q 555 78 548 45 q 566 140 563 111 q 570 187 568 168 l 574 218 q 576 264 576 237 l 575 385 q 563 437 575 423 q 480 462 541 462 l 373 462 q 281 415 289 462 q 279 379 279 401 l 279 337 l 278 277 l 278 258 q 284 166 278 220 q 295 92 290 111 q 305 56 299 72 q 339 0 316 31 l 85 0 q 110 86 106 52 q 117 172 114 121 q 125 466 125 294 q 121 761 125 637 q 32 753 68 758 l 32 868 q 117 860 66 863 m 566 766 q 498 766 532 766 q 377 766 430 766 q 286 766 325 766 q 283 656 283 701 q 289 594 283 612 q 308 568 294 577 q 394 557 326 557 l 458 557 q 544 567 528 557 q 571 641 571 585 q 566 766 571 698 z "},"ħ":{"ha":771,"x_min":28,"x_max":673,"o":"m 473 0 q 505 368 505 107 q 493 514 505 477 q 464 567 481 550 q 418 583 447 583 q 366 572 389 583 q 324 544 342 562 q 268 457 290 511 l 268 328 q 275 92 268 137 q 294 0 284 32 l 94 0 q 115 151 110 57 q 127 534 127 387 q 123 785 127 680 q 28 773 64 782 l 28 888 q 117 877 60 880 l 117 881 q 75 1005 109 958 l 52 1037 l 299 1037 q 276 881 280 968 l 275 875 q 444 888 392 877 l 444 773 q 272 787 389 787 q 268 568 268 685 q 410 688 321 659 q 479 699 441 699 q 550 682 518 699 q 602 635 581 665 q 646 466 646 573 l 646 393 q 651 133 646 186 q 659 64 657 81 q 673 0 664 34 l 473 0 z "},"Ĩ":{"ha":452,"x_min":-22,"x_max":486,"o":"m 344 1038 q 315 911 319 975 q 309 802 311 848 q 305 708 307 757 q 303 500 303 594 q 332 30 303 117 q 344 0 336 15 l 110 0 q 135 83 131 46 q 142 172 139 121 q 151 418 151 279 q 150 608 151 557 q 148 708 149 659 q 119 1010 143 946 l 110 1038 l 344 1038 m -22 1204 q 60 1314 12 1276 q 148 1353 109 1353 q 209 1347 188 1353 q 246 1330 230 1340 q 274 1309 262 1320 q 298 1287 286 1297 q 346 1265 324 1265 q 381 1271 367 1265 q 408 1288 396 1278 q 429 1310 419 1298 l 446 1333 l 486 1292 q 407 1191 453 1226 q 322 1156 361 1156 q 262 1163 283 1156 q 225 1179 241 1169 q 197 1200 210 1189 q 174 1222 185 1212 q 126 1244 147 1244 q 90 1238 104 1244 q 64 1221 75 1232 q 43 1199 52 1211 l 26 1177 l -22 1204 z "},"ĩ":{"ha":404,"x_min":-48,"x_max":446,"o":"m 304 685 q 274 343 274 578 q 305 0 274 107 l 105 0 q 136 367 136 107 q 104 621 136 552 q 85 654 96 639 l 63 685 l 304 685 m -48 869 q 34 979 -14 941 q 126 1017 82 1017 q 192 1003 170 1017 q 231 972 215 989 q 261 941 231 972 q 294 928 275 928 q 328 935 313 928 q 354 952 342 941 q 375 975 366 962 l 392 998 l 446 949 q 367 848 414 883 q 284 814 321 814 q 230 821 248 814 q 198 837 212 827 q 174 859 184 847 q 154 880 174 859 q 112 903 132 903 q 77 897 92 903 q 51 879 62 890 q 31 856 39 869 q 13 833 31 856 l -48 869 z "},"Ī":{"ha":452,"x_min":-3,"x_max":466,"o":"m 344 1038 q 315 911 319 975 q 309 802 311 848 q 305 708 307 757 q 303 500 303 594 q 332 30 303 117 q 344 0 336 15 l 110 0 q 135 83 131 46 q 142 172 139 121 q 151 418 151 279 q 150 608 151 557 q 148 708 149 659 q 119 1010 143 946 l 110 1038 l 344 1038 m -3 1297 q 232 1284 60 1284 q 466 1297 404 1284 l 466 1168 q 232 1182 404 1182 q -3 1168 60 1182 l -3 1297 z "},"ī":{"ha":404,"x_min":-32,"x_max":437,"o":"m 304 685 q 274 343 274 578 q 305 0 274 107 l 105 0 q 136 367 136 107 q 104 621 136 552 q 85 654 96 639 l 63 685 l 304 685 m -32 943 q 204 929 32 929 q 437 943 376 929 l 437 814 q 204 827 376 827 q -32 814 32 827 l -32 943 z "},"Ĭ":{"ha":452,"x_min":-5,"x_max":447,"o":"m 344 1038 q 315 911 319 975 q 309 802 311 848 q 305 708 307 757 q 303 500 303 594 q 332 30 303 117 q 344 0 336 15 l 110 0 q 135 83 131 46 q 142 172 139 121 q 151 418 151 279 q 150 608 151 557 q 148 708 149 659 q 119 1010 143 946 l 110 1038 l 344 1038 m 161 1214 q 221 1204 188 1204 q 280 1214 255 1204 q 323 1244 304 1225 q 363 1343 363 1285 l 447 1343 q 403 1188 447 1260 q 231 1092 345 1092 q 12 1242 65 1092 q -5 1343 -5 1292 l 86 1343 q 161 1214 86 1244 z "},"ĭ":{"ha":404,"x_min":-23,"x_max":429,"o":"m 304 685 q 274 343 274 578 q 305 0 274 107 l 105 0 q 136 367 136 107 q 104 621 136 552 q 85 654 96 639 l 63 685 l 304 685 m 143 909 q 203 899 170 899 q 261 909 237 899 q 304 939 286 920 q 345 1038 345 980 l 429 1038 q 385 883 429 955 q 213 787 326 787 q -6 937 47 787 q -23 1038 -23 987 l 68 1038 q 143 909 68 939 z "},"Į":{"ha":452,"x_min":31,"x_max":344,"o":"m 268 -245 q 321 -235 294 -245 q 317 -292 327 -266 q 224 -324 287 -315 q 182 -327 205 -327 q 131 -318 159 -327 q 80 -293 102 -310 q 31 -193 31 -255 q 53 -121 31 -155 q 90 -66 75 -87 l 120 -26 q 137 63 134 6 q 142 172 139 121 q 151 418 151 279 q 150 608 151 557 q 148 708 149 659 q 119 1010 143 946 l 110 1038 l 344 1038 q 315 911 319 975 q 309 802 311 848 q 305 708 307 757 q 303 500 303 594 q 332 30 303 117 q 344 0 336 15 l 246 0 l 218 -34 q 163 -144 163 -98 q 268 -245 163 -245 z "},"į":{"ha":404,"x_min":3,"x_max":318,"o":"m 239 -245 q 292 -235 266 -245 q 288 -292 298 -266 q 195 -324 258 -315 q 153 -327 176 -327 q 102 -318 130 -327 q 52 -293 74 -310 q 3 -193 3 -255 q 76 -46 3 -142 q 108 0 94 -23 q 136 368 136 98 q 104 621 136 552 q 85 654 96 639 l 63 685 l 304 685 q 274 340 274 573 q 305 0 274 107 l 218 0 l 190 -34 q 135 -144 135 -98 q 239 -245 135 -245 m 289 867 q 282 856 289 867 q 256 830 275 845 q 211 814 236 814 q 166 830 186 814 q 133 867 146 845 q 105 965 105 913 q 162 1048 105 1027 q 212 1056 182 1056 q 312 999 292 1056 q 318 963 318 983 q 311 916 318 943 q 289 867 303 890 z "},"İ":{"ha":452,"x_min":110,"x_max":344,"o":"m 344 1038 q 315 911 319 975 q 309 802 311 848 q 305 708 307 757 q 303 500 303 594 q 332 30 303 117 q 344 0 336 15 l 110 0 q 135 83 131 46 q 142 172 139 121 q 151 418 151 279 q 150 608 151 557 q 148 708 149 659 q 119 1010 143 946 l 110 1038 l 344 1038 m 297 1162 q 291 1152 297 1162 q 267 1128 285 1142 q 227 1115 250 1115 q 187 1128 205 1115 q 157 1162 169 1142 q 132 1250 132 1204 q 183 1325 132 1306 q 228 1332 201 1332 q 318 1280 300 1332 q 323 1248 323 1266 q 317 1206 323 1230 q 297 1162 310 1183 z "},"ı":{"ha":404,"x_min":63,"x_max":305,"o":"m 304 685 q 274 343 274 578 q 305 0 274 107 l 105 0 q 136 367 136 107 q 104 621 136 552 q 85 654 96 639 l 63 685 l 304 685 z "},"Ĳ":{"ha":1053,"x_min":113,"x_max":991,"o":"m 347 1038 q 318 911 322 975 q 312 802 314 848 q 309 708 310 757 q 307 500 307 594 q 335 30 307 117 q 347 0 340 15 l 113 0 q 138 83 134 46 q 146 172 142 121 q 154 418 154 279 q 153 608 154 557 q 151 708 153 659 q 123 1010 146 946 l 113 1038 l 347 1038 m 954 548 l 954 292 q 892 84 954 169 q 690 -14 820 -14 q 528 54 589 -14 q 472 203 472 116 q 537 311 503 274 q 632 380 594 373 q 621 267 621 318 q 626 179 621 215 q 640 116 630 144 q 711 54 663 54 q 774 109 753 54 q 793 229 793 153 l 793 391 q 789 887 793 686 q 773 976 787 941 q 724 1038 758 1010 l 991 1038 q 967 959 971 1001 q 959 867 962 917 q 954 548 954 771 z "},"ĳ":{"ha":755,"x_min":63,"x_max":686,"o":"m 289 867 q 282 856 289 867 q 256 830 275 845 q 211 814 236 814 q 166 830 186 814 q 133 867 146 845 q 105 965 105 913 q 162 1048 105 1027 q 212 1056 182 1056 q 312 999 292 1056 q 318 963 318 983 q 311 916 318 943 q 289 867 303 890 m 105 0 q 136 368 136 107 q 104 621 136 552 q 85 654 96 639 l 63 685 l 304 685 q 274 340 274 573 q 305 0 274 107 l 105 0 m 657 867 q 650 856 657 867 q 623 830 643 845 q 578 814 604 814 q 534 830 553 814 q 500 867 514 845 q 473 965 473 913 q 530 1048 473 1027 q 579 1056 550 1056 q 680 999 660 1056 q 686 963 686 983 q 678 916 686 943 q 657 867 671 890 m 508 224 l 510 379 q 459 658 510 585 q 436 685 450 672 l 677 685 q 658 604 661 648 q 654 528 655 560 q 651 456 652 496 q 650 376 650 416 q 648 216 648 293 q 635 67 648 140 q 601 -63 623 -5 q 551 -167 580 -122 q 492 -243 523 -212 q 368 -305 430 -304 q 344 -292 355 -304 q 327 -258 323 -269 q 397 -205 371 -237 q 443 -138 424 -173 q 475 -52 461 -102 q 508 224 508 61 z "},"Ĵ":{"ha":593,"x_min":18,"x_max":651,"o":"m 499 548 l 500 292 q 438 84 500 169 q 236 -14 366 -14 q 73 54 134 -14 q 18 203 18 116 q 83 311 48 274 q 178 380 140 373 q 167 267 167 318 q 171 179 167 215 q 186 116 176 144 q 256 54 208 54 q 320 109 298 54 q 338 229 338 153 l 338 391 q 334 887 338 686 q 318 976 333 941 q 269 1038 304 1010 l 537 1038 q 512 959 517 1001 q 505 867 508 917 q 499 548 499 771 m 581 1140 q 416 1245 497 1177 q 253 1140 329 1174 l 183 1140 q 212 1171 195 1152 q 312 1291 293 1267 l 340 1327 q 351 1343 350 1340 l 483 1343 q 494 1327 484 1340 q 651 1140 624 1166 l 581 1140 z "},"ĵ":{"ha":389,"x_min":-36,"x_max":417,"o":"m 132 224 l 133 363 q 98 621 133 548 q 80 654 90 639 l 58 685 l 299 685 q 277 556 280 616 q 274 456 275 496 q 272 375 273 416 q 272 296 272 334 l 272 224 q 121 -239 272 -102 q 5 -307 72 -284 q -21 -287 -8 -301 q -36 -259 -33 -272 q 132 224 132 -178 m 353 787 q 191 920 292 819 q 29 787 94 821 l -35 787 q 17 857 -10 814 q 89 975 73 947 l 114 1018 q 125 1038 123 1034 l 258 1038 q 269 1018 259 1034 q 417 787 382 823 l 353 787 z "},"Ķ":{"ha":781,"x_min":77,"x_max":836,"o":"m 553 888 q 560 902 553 888 q 573 944 566 916 q 581 998 581 972 q 570 1038 581 1024 l 780 1038 q 753 989 764 1016 l 728 927 q 549 703 667 778 q 646 275 556 476 q 836 0 726 92 l 602 0 q 468 365 507 100 q 443 593 453 462 q 422 646 440 627 q 372 665 404 665 q 326 659 339 665 q 307 640 313 652 q 295 543 295 619 q 317 28 295 101 q 327 0 321 15 l 100 0 q 125 86 121 52 q 132 160 129 121 q 137 375 137 240 q 132 672 137 537 l 124 859 q 98 1003 120 961 q 77 1038 90 1020 l 342 1038 q 307 972 315 1002 q 295 873 295 922 q 297 802 295 824 q 307 766 299 781 q 362 739 322 739 q 429 751 402 739 q 479 785 456 764 q 521 832 502 806 q 553 888 540 859 m 521 -57 q 537 -105 537 -87 q 512 -205 537 -167 q 458 -269 486 -243 q 349 -338 399 -325 q 307 -311 327 -330 q 376 -185 376 -254 q 340 -79 376 -132 q 320 -57 330 -64 l 521 -57 z "},"ķ":{"ha":696,"x_min":49,"x_max":724,"o":"m 264 288 q 291 0 264 91 l 91 0 q 115 155 110 66 q 125 491 125 372 q 124 651 125 610 q 123 734 123 692 q 109 919 119 880 q 90 977 99 959 q 49 1038 77 1005 l 296 1038 q 274 908 277 969 l 269 810 q 264 640 264 698 q 266 561 264 581 q 271 528 267 541 q 312 502 279 500 q 371 516 345 503 q 414 548 397 528 q 448 629 448 586 q 438 685 448 671 l 634 685 q 620 652 626 669 q 606 618 613 635 q 454 463 557 511 q 546 182 460 323 q 724 0 627 51 l 496 0 q 387 218 429 33 q 368 340 372 281 q 353 416 363 398 q 316 434 342 434 q 264 338 264 434 l 264 288 m 426 -57 q 439 -105 439 -87 q 418 -205 439 -167 q 376 -269 398 -243 q 288 -338 329 -325 q 255 -311 271 -330 q 310 -185 310 -254 q 281 -79 310 -132 q 265 -57 273 -64 l 426 -57 z "},"ĸ":{"ha":696,"x_min":76,"x_max":724,"o":"m 264 288 q 291 0 264 91 l 91 0 q 113 153 110 66 q 118 445 118 328 q 115 583 118 562 q 107 623 113 603 q 76 685 96 666 l 290 685 q 264 580 264 645 q 270 523 264 535 q 307 500 279 500 q 361 513 336 500 q 406 545 387 526 q 448 630 448 589 q 438 685 448 671 l 634 685 q 620 659 626 673 l 607 627 q 473 473 567 526 q 553 186 475 330 q 662 43 601 100 q 724 0 692 16 l 496 0 q 420 109 442 53 q 365 361 378 214 q 353 415 363 398 q 316 432 342 432 q 264 338 264 432 l 264 288 z "},"Ĺ":{"ha":618,"x_min":20,"x_max":636,"o":"m 618 251 q 636 187 636 224 q 631 123 636 150 q 617 71 626 96 q 566 0 597 18 l 20 0 q 90 58 74 33 q 121 177 121 104 q 121 503 121 357 l 121 859 q 88 1003 121 957 q 60 1038 77 1020 l 338 1038 q 293 919 298 980 q 292 874 292 899 l 292 253 q 305 101 292 126 q 338 72 319 77 q 395 68 357 68 q 469 81 434 68 q 530 119 503 95 q 618 251 576 161 m 482 1351 q 300 1176 416 1253 q 252 1147 271 1157 l 152 1147 q 179 1177 163 1158 q 247 1261 179 1177 q 308 1351 308 1340 l 482 1351 z "},"ĺ":{"ha":381,"x_min":47,"x_max":431,"o":"m 262 311 q 289 0 262 91 l 89 0 q 113 155 108 66 q 123 491 123 372 q 122 651 123 610 q 121 734 121 692 q 107 919 117 881 q 89 975 97 958 q 69 1006 80 992 l 47 1038 l 294 1038 q 272 906 275 969 q 268 795 269 844 q 264 695 266 747 q 263 488 263 608 l 262 311 m 431 1351 q 249 1176 366 1253 q 201 1147 220 1157 l 101 1147 q 128 1177 113 1158 q 196 1261 128 1177 q 257 1351 257 1340 l 431 1351 z "},"Ļ":{"ha":618,"x_min":20,"x_max":636,"o":"m 618 251 q 636 187 636 224 q 631 123 636 150 q 617 71 626 96 q 566 0 597 18 l 20 0 q 90 58 74 33 q 121 177 121 104 q 121 503 121 357 l 121 859 q 88 1003 121 957 q 60 1038 77 1020 l 338 1038 q 293 919 298 980 q 292 874 292 899 l 292 253 q 305 101 292 126 q 338 72 319 77 q 395 68 357 68 q 469 81 434 68 q 530 119 503 95 q 618 251 576 161 m 426 -57 q 442 -105 442 -87 q 417 -205 442 -167 q 363 -269 391 -243 q 254 -338 304 -325 q 212 -311 232 -330 q 281 -185 281 -254 q 245 -79 281 -132 q 225 -57 235 -64 l 426 -57 z "},"ļ":{"ha":381,"x_min":47,"x_max":304,"o":"m 262 311 q 289 0 262 91 l 89 0 q 113 155 108 66 q 123 491 123 372 q 122 651 123 610 q 121 734 121 692 q 107 919 117 881 q 89 975 97 958 q 69 1006 80 992 l 47 1038 l 294 1038 q 272 906 275 969 q 268 795 269 844 q 264 695 266 747 q 263 488 263 608 l 262 311 m 288 -57 q 304 -105 304 -87 q 279 -205 304 -167 q 226 -269 254 -243 q 117 -338 167 -325 q 75 -311 94 -330 q 143 -185 143 -254 q 108 -79 143 -132 q 87 -57 98 -64 l 288 -57 z "},"Ľ":{"ha":618,"x_min":20,"x_max":636,"o":"m 618 251 q 636 187 636 224 q 631 123 636 150 q 617 71 626 96 q 566 0 597 18 l 20 0 q 90 58 74 33 q 121 177 121 104 q 121 503 121 357 l 121 859 q 88 1003 121 957 q 60 1038 77 1020 l 338 1038 q 293 919 298 980 q 292 874 292 899 l 292 253 q 305 101 292 126 q 338 72 319 77 q 395 68 357 68 q 469 81 434 68 q 530 119 503 95 q 618 251 576 161 m 603 1002 q 603 993 603 1002 q 601 963 603 983 q 595 904 598 942 q 576 821 591 865 q 542 740 562 776 q 458 642 503 669 q 439 654 451 646 q 416 671 428 663 q 460 833 458 730 q 461 883 461 859 q 457 930 461 906 q 447 976 454 955 q 410 1040 433 1021 l 598 1040 q 603 1002 603 1021 z "},"ľ":{"ha":540,"x_min":47,"x_max":538,"o":"m 262 311 q 289 0 262 91 l 89 0 q 113 155 108 66 q 123 491 123 372 q 122 651 123 610 q 121 734 121 692 q 107 919 117 881 q 89 975 97 958 q 69 1006 80 992 l 47 1038 l 294 1038 q 272 906 275 969 q 268 795 269 844 q 264 695 266 747 q 263 488 263 608 l 262 311 m 538 1002 q 538 993 538 1002 q 535 963 538 983 q 530 904 533 942 q 511 821 526 865 q 477 740 496 776 q 393 642 438 669 q 374 654 386 646 q 351 671 363 663 q 395 833 393 730 q 396 883 396 859 q 392 930 396 906 q 382 976 389 955 q 345 1040 368 1021 l 533 1040 q 538 1002 538 1021 z "},"Ŀ":{"ha":682,"x_min":20,"x_max":647,"o":"m 618 251 q 636 187 636 224 q 631 123 636 150 q 617 71 626 96 q 566 0 597 18 l 20 0 q 90 58 74 33 q 121 177 121 104 q 121 503 121 357 l 121 859 q 88 1003 121 957 q 60 1038 77 1020 l 338 1038 q 293 919 298 980 q 292 874 292 899 l 292 253 q 305 101 292 126 q 338 72 319 77 q 395 68 357 68 q 469 81 434 68 q 530 119 503 95 q 618 251 576 161 m 621 516 q 615 506 621 516 q 591 482 608 496 q 551 469 573 469 q 510 482 528 469 q 480 516 492 496 q 456 604 456 557 q 507 679 456 660 q 551 686 525 686 q 642 634 624 686 q 647 602 647 620 q 640 560 647 584 q 621 516 633 536 z "},"ŀ":{"ha":609,"x_min":47,"x_max":555,"o":"m 262 311 q 289 0 262 91 l 89 0 q 113 155 108 66 q 123 491 123 372 q 122 651 123 610 q 121 734 121 692 q 107 919 117 881 q 89 975 97 958 q 69 1006 80 992 l 47 1038 l 294 1038 q 272 906 275 969 q 268 795 269 844 q 264 695 266 747 q 263 488 263 608 l 262 311 m 529 418 q 523 408 529 418 q 499 385 517 398 q 459 371 481 371 q 419 385 437 371 q 389 418 401 398 q 364 506 364 460 q 415 581 364 562 q 460 588 433 588 q 550 536 532 588 q 555 504 555 522 q 549 463 555 486 q 529 418 542 439 z "},"Ł":{"ha":741,"x_min":32,"x_max":722,"o":"m 207 384 q 113 294 127 319 l 32 376 q 62 393 44 382 q 207 496 168 467 l 207 859 q 175 1003 207 957 q 146 1038 163 1020 l 425 1038 q 380 919 385 980 q 378 882 378 899 l 378 844 l 377 716 l 377 629 q 557 797 522 751 l 652 701 q 377 513 436 556 l 377 388 l 378 253 q 391 101 378 126 q 424 72 405 77 q 481 68 443 68 q 555 81 520 68 q 616 119 589 95 q 704 251 663 161 q 722 187 722 224 q 717 123 722 150 q 703 71 712 96 q 652 0 683 18 l 106 0 q 176 58 160 33 q 208 177 208 104 q 207 237 207 205 l 207 384 z "},"ł":{"ha":485,"x_min":-9,"x_max":505,"o":"m 314 488 l 313 311 q 340 0 313 91 l 140 0 q 162 132 159 66 l 167 248 q 170 349 169 296 l 121 290 q 79 235 97 261 l -9 323 q 173 473 71 380 l 174 573 q 153 935 174 857 q 127 998 143 975 l 98 1038 l 345 1038 q 322 899 326 969 q 315 618 316 780 q 417 755 383 698 l 505 667 q 314 499 417 600 l 314 488 z "},"Ń":{"ha":858,"x_min":64,"x_max":795,"o":"m 243 739 q 242 578 242 668 q 247 284 242 450 q 254 97 252 119 q 261 57 257 74 q 282 0 268 29 l 100 0 q 125 81 121 41 q 132 160 130 121 q 138 375 138 240 q 132 673 138 538 l 125 860 q 92 1006 121 963 q 64 1038 81 1023 l 275 1038 q 359 854 315 945 l 452 674 l 650 310 q 650 401 650 353 l 650 507 q 609 997 650 846 q 591 1038 601 1025 l 795 1038 q 753 656 762 970 q 751 563 751 608 l 752 506 l 752 229 q 755 0 752 54 l 645 0 l 448 366 l 243 739 m 733 1351 q 551 1176 667 1253 q 503 1147 522 1157 l 403 1147 q 430 1177 414 1158 q 498 1261 430 1177 q 559 1351 559 1340 l 733 1351 z "},"ń":{"ha":796,"x_min":39,"x_max":665,"o":"m 81 0 q 113 368 113 107 q 80 622 113 554 q 62 654 72 639 l 39 685 l 275 685 q 261 621 264 651 l 256 572 q 465 699 338 699 q 593 635 547 699 q 637 466 637 572 l 637 393 q 641 165 637 207 q 646 102 644 124 q 651 64 648 81 q 665 0 656 32 l 467 0 q 498 368 498 107 q 485 511 498 473 q 453 567 471 550 q 405 583 435 583 q 305 540 350 583 q 246 445 267 503 q 245 407 245 427 l 245 368 q 276 0 245 107 l 81 0 m 618 1038 q 450 796 558 907 q 410 760 424 770 l 332 760 q 352 799 340 774 q 427 981 410 929 q 444 1038 444 1034 l 618 1038 z "},"Ņ":{"ha":858,"x_min":64,"x_max":795,"o":"m 243 739 q 242 578 242 668 q 247 284 242 450 q 254 97 252 119 q 261 57 257 74 q 282 0 268 29 l 100 0 q 125 81 121 41 q 132 160 130 121 q 138 375 138 240 q 132 673 138 538 l 125 860 q 92 1006 121 963 q 64 1038 81 1023 l 275 1038 q 359 854 315 945 l 452 674 l 650 310 q 650 401 650 353 l 650 507 q 609 997 650 846 q 591 1038 601 1025 l 795 1038 q 753 656 762 970 q 751 563 751 608 l 752 506 l 752 229 q 755 0 752 54 l 645 0 l 448 366 l 243 739 m 539 -57 q 555 -105 555 -87 q 530 -205 555 -167 q 477 -269 505 -243 q 368 -338 418 -325 q 326 -311 345 -330 q 394 -185 394 -254 q 359 -79 394 -132 q 338 -57 349 -64 l 539 -57 z "},"ņ":{"ha":762,"x_min":39,"x_max":665,"o":"m 81 0 q 113 368 113 107 q 80 622 113 554 q 62 654 72 639 l 39 685 l 275 685 q 261 621 264 651 l 256 572 q 465 699 338 699 q 593 635 547 699 q 637 466 637 572 l 637 393 q 641 165 637 207 q 646 102 644 124 q 651 64 648 81 q 665 0 656 32 l 467 0 q 498 368 498 107 q 485 511 498 473 q 453 567 471 550 q 405 583 435 583 q 305 540 350 583 q 246 445 267 503 q 245 407 245 427 l 245 368 q 276 0 245 107 l 81 0 m 477 -57 q 494 -105 494 -87 q 468 -205 494 -167 q 415 -269 443 -243 q 306 -338 356 -325 q 264 -311 283 -330 q 332 -185 332 -254 q 297 -79 332 -132 q 277 -57 287 -64 l 477 -57 z "},"Ň":{"ha":858,"x_min":64,"x_max":795,"o":"m 243 739 q 242 578 242 668 q 247 284 242 450 q 254 97 252 119 q 261 57 257 74 q 282 0 268 29 l 100 0 q 125 81 121 41 q 132 160 130 121 q 138 375 138 240 q 132 673 138 538 l 125 860 q 92 1006 121 963 q 64 1038 81 1023 l 275 1038 q 359 854 315 945 l 452 674 l 650 310 q 650 401 650 353 l 650 507 q 609 997 650 846 q 591 1038 601 1025 l 795 1038 q 753 656 762 970 q 751 563 751 608 l 752 506 l 752 229 q 755 0 752 54 l 645 0 l 448 366 l 243 739 m 277 1343 q 441 1237 366 1299 q 605 1343 526 1308 l 675 1343 q 646 1312 663 1331 q 547 1192 565 1217 l 518 1156 q 507 1139 508 1142 l 375 1139 q 363 1156 374 1142 l 271 1272 l 236 1312 q 207 1343 219 1331 l 277 1343 z "},"ň":{"ha":762,"x_min":39,"x_max":665,"o":"m 81 0 q 113 368 113 107 q 80 622 113 554 q 62 654 72 639 l 39 685 l 275 685 q 261 621 264 651 l 256 572 q 465 699 338 699 q 593 635 547 699 q 637 466 637 572 l 637 393 q 641 165 637 207 q 646 102 644 124 q 651 64 648 81 q 665 0 656 32 l 467 0 q 498 368 498 107 q 485 511 498 473 q 453 567 471 550 q 405 583 435 583 q 305 540 350 583 q 246 445 267 503 q 245 407 245 427 l 245 368 q 276 0 245 107 l 81 0 m 214 1038 q 375 899 268 1009 q 538 1038 481 1008 l 602 1038 q 552 969 581 1016 q 478 845 494 873 l 453 800 q 442 780 444 783 l 309 780 q 298 800 307 783 q 245 893 264 863 l 211 951 q 150 1038 173 1012 l 214 1038 z "},"Ŋ":{"ha":858,"x_min":64,"x_max":795,"o":"m 752 182 q 757 -82 757 -41 q 742 -176 757 -123 q 694 -271 727 -229 q 493 -366 623 -366 q 330 -301 390 -366 q 275 -156 275 -242 q 340 -48 305 -85 q 435 20 397 14 q 424 -92 424 -41 q 428 -176 424 -142 q 443 -238 433 -211 q 513 -298 465 -298 q 595 -129 595 -298 l 595 -20 l 595 41 q 593 97 595 62 l 422 414 l 243 739 q 242 578 242 668 q 247 284 242 450 q 254 97 252 119 q 261 57 257 74 q 282 0 268 29 l 100 0 q 125 81 121 41 q 132 160 130 121 q 138 375 138 240 q 132 673 138 538 l 125 860 q 92 1006 121 963 q 64 1038 81 1023 l 275 1038 q 359 854 315 945 l 452 673 l 650 309 q 650 400 650 352 l 650 507 q 609 997 650 846 q 591 1038 601 1025 l 795 1038 q 753 656 762 970 q 751 563 751 608 l 752 506 l 752 182 z "},"ŋ":{"ha":762,"x_min":39,"x_max":642,"o":"m 81 0 q 113 368 113 107 q 80 622 113 554 q 62 654 72 639 l 39 685 l 275 685 q 261 621 264 651 l 256 572 q 465 699 338 699 q 593 635 547 699 q 637 466 637 572 l 642 236 q 637 119 642 159 q 481 -286 623 -164 q 372 -347 432 -328 q 346 -327 359 -342 q 331 -300 334 -313 q 494 58 471 -232 q 494 99 492 77 q 498 157 496 121 l 498 184 q 485 468 498 402 q 453 559 471 534 q 405 583 435 583 q 305 540 350 583 q 246 445 267 503 q 245 407 245 427 l 245 368 q 276 0 245 107 l 81 0 z "},"Ō":{"ha":894,"x_min":87,"x_max":807,"o":"m 448 54 q 616 372 578 54 q 629 624 629 479 q 447 983 629 983 q 264 624 264 983 q 374 89 264 200 q 448 54 408 54 m 447 -14 q 175 156 267 -14 q 87 624 87 319 q 281 1023 87 941 q 447 1051 350 1051 q 787 804 725 1051 q 807 600 807 725 q 785 357 807 475 q 719 156 764 239 q 447 -14 627 -14 m 227 1297 q 462 1284 290 1284 q 696 1297 634 1284 l 696 1168 q 462 1182 634 1182 q 227 1168 290 1182 l 227 1297 z "},"ō":{"ha":749,"x_min":89,"x_max":660,"o":"m 374 631 q 287 570 313 631 q 260 364 260 509 q 374 54 260 54 q 462 137 435 54 q 489 364 489 220 q 462 570 489 509 q 374 631 435 631 m 89 390 q 374 699 89 699 q 660 390 660 699 q 581 94 660 203 q 374 -14 505 -14 q 168 94 244 -14 q 89 390 89 203 m 140 943 q 375 929 203 929 q 609 943 547 929 l 609 814 q 375 827 547 827 q 140 814 203 827 l 140 943 z "},"Ŏ":{"ha":894,"x_min":87,"x_max":807,"o":"m 448 54 q 616 372 578 54 q 629 624 629 479 q 447 983 629 983 q 264 624 264 983 q 374 89 264 200 q 448 54 408 54 m 447 -14 q 175 156 267 -14 q 87 624 87 319 q 281 1023 87 941 q 447 1051 350 1051 q 787 804 725 1051 q 807 600 807 725 q 785 357 807 475 q 719 156 764 239 q 447 -14 627 -14 m 391 1214 q 451 1204 418 1204 q 510 1214 485 1204 q 553 1244 534 1225 q 593 1343 593 1285 l 677 1343 q 633 1188 677 1260 q 461 1092 574 1092 q 242 1242 295 1092 q 225 1343 225 1292 l 316 1343 q 391 1214 316 1244 z "},"ŏ":{"ha":749,"x_min":89,"x_max":660,"o":"m 374 631 q 287 570 313 631 q 260 364 260 509 q 374 54 260 54 q 462 137 435 54 q 489 364 489 220 q 462 570 489 509 q 374 631 435 631 m 89 390 q 374 699 89 699 q 660 390 660 699 q 581 94 660 203 q 374 -14 505 -14 q 168 94 244 -14 q 89 390 89 203 m 304 909 q 365 899 331 899 q 423 909 398 899 q 466 939 448 920 q 506 1038 506 980 l 590 1038 q 546 883 590 955 q 374 787 488 787 q 155 937 208 787 q 138 1038 138 987 l 229 1038 q 304 909 229 939 z "},"Ő":{"ha":894,"x_min":87,"x_max":807,"o":"m 448 54 q 616 372 578 54 q 629 624 629 479 q 447 983 629 983 q 264 624 264 983 q 374 89 264 200 q 448 54 408 54 m 447 -14 q 175 156 267 -14 q 87 624 87 319 q 281 1023 87 941 q 447 1051 350 1051 q 787 804 725 1051 q 807 600 807 725 q 785 357 807 475 q 719 156 764 239 q 447 -14 627 -14 m 536 1351 q 385 1133 477 1224 q 348 1100 362 1110 l 271 1100 q 290 1137 279 1114 q 338 1237 323 1206 q 361 1291 338 1237 q 382 1351 382 1344 l 536 1351 m 805 1351 q 648 1133 748 1227 q 610 1100 625 1110 l 533 1100 q 553 1137 541 1114 q 600 1237 586 1206 q 623 1291 600 1237 q 645 1351 645 1344 l 805 1351 z "},"ő":{"ha":749,"x_min":89,"x_max":730,"o":"m 374 631 q 287 570 313 631 q 260 364 260 509 q 374 54 260 54 q 462 137 435 54 q 489 364 489 220 q 462 570 489 509 q 374 631 435 631 m 89 390 q 374 699 89 699 q 660 390 660 699 q 581 94 660 203 q 374 -14 505 -14 q 168 94 244 -14 q 89 390 89 203 m 467 1038 q 299 796 408 907 q 259 760 273 770 l 182 760 q 201 799 190 774 q 276 981 259 929 q 294 1038 294 1034 l 467 1038 m 730 1038 q 562 796 670 907 q 522 760 536 770 l 444 760 q 464 799 452 774 q 539 981 522 929 q 556 1038 556 1034 l 730 1038 z "},"Œ":{"ha":1193,"x_min":87,"x_max":1139,"o":"m 1120 251 q 1139 178 1139 226 q 1135 103 1139 131 q 1122 52 1131 75 q 1068 0 1101 0 l 540 0 q 447 -14 496 -14 q 175 156 267 -14 q 87 624 87 319 q 281 1023 87 941 q 430 1051 350 1051 q 565 1038 511 1051 l 1068 1038 q 1131 924 1114 1021 q 1136 871 1136 897 q 1120 787 1136 818 l 1084 860 q 979 956 1047 932 q 893 970 941 970 q 825 967 846 970 q 794 952 805 964 q 777 877 777 932 q 779 801 777 822 q 792 766 782 779 q 881 739 813 739 l 1094 739 q 1062 684 1078 700 q 974 651 1029 651 q 932 656 952 651 q 868 665 896 665 q 822 660 840 665 q 794 644 804 654 q 777 575 777 625 l 777 252 q 791 100 777 124 q 825 72 805 77 q 893 68 846 68 q 979 81 941 68 q 1044 119 1018 95 q 1087 177 1070 144 q 1120 251 1104 211 m 448 54 q 616 372 578 54 q 629 624 629 479 q 447 983 629 983 q 264 624 264 983 q 374 89 264 200 q 448 54 408 54 z "},"œ":{"ha":1099,"x_min":90,"x_max":1027,"o":"m 90 390 q 375 699 90 699 q 594 605 521 699 q 822 699 684 699 q 982 639 924 699 q 1027 529 1027 591 q 1003 417 1027 467 q 933 332 979 368 q 663 253 836 257 q 749 71 677 117 q 817 54 774 54 q 908 99 860 54 q 996 231 956 144 q 1021 174 1021 214 q 1010 103 1021 134 q 972 46 999 73 q 781 -14 911 -14 q 574 93 650 -14 q 375 -14 494 -14 q 168 94 245 -14 q 90 390 90 203 m 375 631 q 287 570 314 631 q 260 364 260 509 q 375 54 260 54 q 463 137 436 54 q 490 364 490 220 q 463 570 490 509 q 375 631 436 631 m 659 317 q 873 525 873 332 q 830 623 873 597 q 791 631 815 631 q 742 616 766 631 q 699 567 717 601 q 659 338 659 493 l 659 317 z "},"Ŕ":{"ha":800,"x_min":63,"x_max":849,"o":"m 367 644 q 288 551 288 644 q 301 98 288 166 q 320 36 309 56 l 340 0 l 100 0 q 125 86 121 52 q 132 160 129 121 q 137 375 137 240 q 132 673 137 538 l 124 860 q 112 958 121 930 q 63 1038 97 1002 l 422 1038 q 659 1005 586 1038 q 736 889 736 971 q 683 754 736 817 q 551 661 633 696 q 715 161 562 401 q 849 0 781 58 l 595 0 q 472 368 528 91 q 447 528 453 465 q 438 605 441 592 q 426 627 434 618 q 367 644 410 644 m 523 765 q 533 775 523 765 q 550 808 542 785 q 557 853 557 831 q 552 896 557 874 q 529 933 546 917 q 399 970 492 970 q 343 967 364 970 q 309 952 321 964 q 288 848 288 932 q 304 755 288 775 q 388 719 332 719 q 474 732 444 719 q 523 765 505 745 m 670 1351 q 488 1176 604 1253 q 440 1147 458 1157 l 340 1147 q 367 1177 351 1158 q 435 1261 367 1177 q 496 1351 496 1340 l 670 1351 z "},"ŕ":{"ha":557,"x_min":49,"x_max":541,"o":"m 91 0 q 122 368 122 107 q 92 622 122 554 q 49 685 80 650 l 290 685 q 270 568 277 642 q 448 681 334 648 q 519 726 496 695 q 541 633 541 672 q 537 562 541 595 q 525 498 533 529 q 478 393 507 431 q 400 548 453 526 q 281 476 339 574 q 260 433 269 456 q 260 401 260 417 q 260 368 260 385 q 291 0 260 107 l 91 0 m 507 1038 q 339 796 448 907 q 299 760 313 770 l 222 760 q 241 799 230 774 q 316 981 299 929 q 334 1038 334 1034 l 507 1038 z "},"Ŗ":{"ha":800,"x_min":63,"x_max":849,"o":"m 367 644 q 288 551 288 644 q 301 98 288 166 q 320 36 309 56 l 340 0 l 100 0 q 125 86 121 52 q 132 160 129 121 q 137 375 137 240 q 132 673 137 538 l 124 860 q 112 958 121 930 q 63 1038 97 1002 l 422 1038 q 659 1005 586 1038 q 736 889 736 971 q 683 754 736 817 q 551 661 633 696 q 715 161 562 401 q 849 0 781 58 l 595 0 q 472 368 528 91 q 447 528 453 465 q 438 605 441 592 q 426 627 434 618 q 367 644 410 644 m 523 765 q 533 775 523 765 q 550 808 542 785 q 557 853 557 831 q 552 896 557 874 q 529 933 546 917 q 399 970 492 970 q 343 967 364 970 q 309 952 321 964 q 288 848 288 932 q 304 755 288 775 q 388 719 332 719 q 474 732 444 719 q 523 765 505 745 m 496 -57 q 513 -105 513 -87 q 487 -205 513 -167 q 434 -269 462 -243 q 325 -338 375 -325 q 283 -311 302 -330 q 351 -185 351 -254 q 316 -79 351 -132 q 296 -57 306 -64 l 496 -57 z "},"ŗ":{"ha":570,"x_min":49,"x_max":541,"o":"m 91 0 q 122 368 122 107 q 92 622 122 554 q 49 685 80 650 l 290 685 q 270 568 277 642 q 448 681 334 648 q 519 726 496 695 q 541 633 541 672 q 537 562 541 595 q 525 498 533 529 q 478 393 507 431 q 400 548 453 526 q 281 476 339 574 q 260 433 269 456 q 260 401 260 417 q 260 368 260 385 q 291 0 260 107 l 91 0 m 268 -57 q 281 -105 281 -87 q 260 -205 281 -167 q 218 -269 240 -243 q 130 -338 171 -325 q 97 -311 113 -330 q 152 -185 152 -254 q 123 -79 152 -132 q 107 -57 115 -64 l 268 -57 z "},"Ř":{"ha":800,"x_min":63,"x_max":849,"o":"m 367 644 q 288 551 288 644 q 301 98 288 166 q 320 36 309 56 l 340 0 l 100 0 q 125 86 121 52 q 132 160 129 121 q 137 375 137 240 q 132 673 137 538 l 124 860 q 112 958 121 930 q 63 1038 97 1002 l 422 1038 q 659 1005 586 1038 q 736 889 736 971 q 683 754 736 817 q 551 661 633 696 q 715 161 562 401 q 849 0 781 58 l 595 0 q 472 368 528 91 q 447 528 453 465 q 438 605 441 592 q 426 627 434 618 q 367 644 410 644 m 523 765 q 533 775 523 765 q 550 808 542 785 q 557 853 557 831 q 552 896 557 874 q 529 933 546 917 q 399 970 492 970 q 343 967 364 970 q 309 952 321 964 q 288 848 288 932 q 304 755 288 775 q 388 719 332 719 q 474 732 444 719 q 523 765 505 745 m 234 1343 q 399 1237 323 1299 q 562 1343 483 1308 l 632 1343 q 603 1312 620 1331 q 504 1192 522 1217 l 475 1156 q 464 1139 465 1142 l 332 1139 q 321 1156 331 1142 l 228 1272 l 193 1312 q 164 1343 176 1331 l 234 1343 z "},"ř":{"ha":570,"x_min":49,"x_max":541,"o":"m 91 0 q 122 368 122 107 q 92 622 122 554 q 49 685 80 650 l 290 685 q 270 568 277 642 q 448 681 334 648 q 519 726 496 695 q 541 633 541 672 q 537 562 541 595 q 525 498 533 529 q 478 393 507 431 q 400 548 453 526 q 281 476 339 574 q 260 433 269 456 q 260 401 260 417 q 260 368 260 385 q 291 0 260 107 l 91 0 m 135 1038 q 296 899 189 1009 q 459 1038 402 1008 l 523 1038 q 473 969 502 1016 q 399 845 415 873 l 374 800 q 363 780 365 783 l 231 780 q 220 800 229 783 q 167 893 185 863 l 132 951 q 71 1038 94 1012 l 135 1038 z "},"Ś":{"ha":699,"x_min":73,"x_max":655,"o":"m 233 359 q 224 247 224 289 q 235 170 224 205 q 264 109 245 135 q 367 54 304 54 q 486 186 486 54 q 363 410 486 292 l 293 479 q 166 623 200 568 q 99 836 99 730 q 155 980 99 922 q 348 1051 222 1051 q 422 1046 397 1051 q 485 1038 469 1038 q 546 1062 524 1038 q 564 1085 554 1071 q 613 881 613 1057 q 591 715 613 768 q 574 692 583 696 q 507 875 563 794 q 357 970 442 970 q 267 903 283 970 q 262 856 262 884 q 279 791 262 827 q 323 720 296 755 q 387 648 351 684 q 531 498 495 537 q 594 416 566 458 q 655 234 655 322 q 572 58 655 127 q 353 -14 487 -14 q 161 42 241 -14 q 73 203 73 103 q 189 342 100 298 q 233 359 212 354 m 643 1351 q 460 1176 577 1253 q 413 1147 431 1157 l 313 1147 q 340 1177 324 1158 q 408 1261 340 1177 q 469 1351 469 1340 l 643 1351 z "},"ś":{"ha":612,"x_min":38,"x_max":534,"o":"m 500 725 q 519 643 519 684 q 515 574 519 602 q 504 522 511 547 q 456 435 487 465 q 410 571 435 540 q 360 613 385 602 q 308 624 336 624 q 262 618 280 624 q 232 603 245 613 q 203 552 203 581 q 217 503 203 524 q 255 464 231 482 q 308 429 278 446 l 369 395 q 477 321 448 351 q 534 200 534 264 q 477 60 534 117 q 262 -14 406 -14 q 65 47 131 -14 q 38 83 46 65 q 83 178 43 134 q 159 229 122 222 q 156 202 156 220 q 166 158 156 184 q 195 110 176 132 q 292 58 238 58 q 370 83 345 58 q 395 138 395 107 q 381 191 395 170 q 343 230 367 212 q 290 265 320 248 l 229 300 q 122 378 151 346 q 64 520 64 444 q 132 651 64 601 q 292 699 196 699 l 412 690 q 472 701 455 690 q 500 725 489 711 m 530 1038 q 362 796 471 907 q 322 760 336 770 l 245 760 q 264 799 253 774 q 339 981 322 929 q 357 1038 357 1034 l 530 1038 z "},"Ŝ":{"ha":699,"x_min":73,"x_max":655,"o":"m 233 359 q 224 247 224 289 q 235 170 224 205 q 264 109 245 135 q 367 54 304 54 q 486 186 486 54 q 363 410 486 292 l 293 479 q 166 623 200 568 q 99 836 99 730 q 155 980 99 922 q 348 1051 222 1051 q 422 1046 397 1051 q 485 1038 469 1038 q 546 1062 524 1038 q 564 1085 554 1071 q 613 881 613 1057 q 591 715 613 768 q 574 692 583 696 q 507 875 563 794 q 357 970 442 970 q 267 903 283 970 q 262 856 262 884 q 279 791 262 827 q 323 720 296 755 q 387 648 351 684 q 531 498 495 537 q 594 416 566 458 q 655 234 655 322 q 572 58 655 127 q 353 -14 487 -14 q 161 42 241 -14 q 73 203 73 103 q 189 342 100 298 q 233 359 212 354 m 522 1140 q 357 1245 437 1177 q 193 1140 269 1174 l 123 1140 q 153 1171 136 1152 q 252 1291 233 1267 l 280 1327 q 292 1343 290 1340 l 423 1343 q 435 1327 425 1340 q 591 1140 564 1166 l 522 1140 z "},"ŝ":{"ha":612,"x_min":38,"x_max":534,"o":"m 500 725 q 519 643 519 684 q 515 574 519 602 q 504 522 511 547 q 456 435 487 465 q 410 571 435 540 q 360 613 385 602 q 308 624 336 624 q 262 618 280 624 q 232 603 245 613 q 203 552 203 581 q 217 503 203 524 q 255 464 231 482 q 308 429 278 446 l 369 395 q 477 321 448 351 q 534 200 534 264 q 477 60 534 117 q 262 -14 406 -14 q 65 47 131 -14 q 38 83 46 65 q 83 178 43 134 q 159 229 122 222 q 156 202 156 220 q 166 158 156 184 q 195 110 176 132 q 292 58 238 58 q 370 83 345 58 q 395 138 395 107 q 381 191 395 170 q 343 230 367 212 q 290 265 320 248 l 229 300 q 122 378 151 346 q 64 520 64 444 q 132 651 64 601 q 292 699 196 699 l 412 690 q 472 701 455 690 q 500 725 489 711 m 461 787 q 298 920 399 819 q 137 787 202 821 l 73 787 q 125 857 98 814 q 197 975 181 947 l 222 1018 q 233 1038 231 1034 l 366 1038 q 376 1018 367 1034 q 525 787 490 823 l 461 787 z "},"Ş":{"ha":699,"x_min":73,"x_max":655,"o":"m 564 1085 q 613 881 613 1057 q 591 715 613 768 q 574 692 583 696 q 507 875 563 794 q 357 970 442 970 q 267 903 283 970 q 262 856 262 884 q 279 791 262 827 q 323 720 296 755 q 387 648 351 684 q 531 498 495 537 q 594 416 566 458 q 655 234 655 322 q 581 65 655 134 q 382 -12 505 -4 q 378 -73 378 -36 l 406 -90 q 468 -183 468 -125 q 414 -293 468 -249 q 271 -339 359 -339 q 248 -317 257 -330 l 237 -300 q 231 -292 233 -294 q 346 -220 312 -283 q 356 -176 356 -200 q 287 -98 356 -122 q 319 -12 302 -68 q 149 51 218 -3 q 73 203 73 111 q 189 342 100 298 q 233 359 212 354 q 224 250 224 289 q 232 180 224 212 q 254 125 239 149 q 336 59 283 73 l 336 60 q 373 54 350 54 q 458 89 430 54 q 486 177 486 124 q 470 267 486 229 q 426 341 453 305 q 363 410 399 376 l 293 479 q 166 623 200 568 q 99 836 99 730 q 155 980 99 922 q 348 1051 222 1051 q 422 1046 397 1051 q 485 1038 469 1038 q 546 1062 524 1038 q 564 1085 554 1071 z "},"ş":{"ha":612,"x_min":38,"x_max":534,"o":"m 500 725 q 519 643 519 684 q 515 574 519 602 q 504 522 511 547 q 456 435 487 465 q 410 571 435 540 q 360 613 385 602 q 308 624 336 624 q 262 618 280 624 q 232 603 245 613 q 203 552 203 581 q 217 503 203 524 q 255 464 231 482 q 308 429 278 446 l 369 395 q 477 321 448 351 q 534 200 534 264 q 433 25 534 85 q 339 -7 395 3 q 335 -73 335 -30 l 363 -90 q 425 -183 425 -125 q 371 -293 425 -249 q 228 -339 316 -339 q 205 -317 214 -330 l 193 -300 q 187 -292 190 -294 q 302 -220 269 -283 q 313 -176 313 -200 q 243 -98 313 -122 q 276 -13 258 -71 l 262 -14 q 65 47 131 -14 q 38 83 46 65 q 83 178 43 134 q 159 229 122 222 q 156 202 156 220 q 165 159 156 184 q 193 111 175 134 q 292 58 234 61 l 292 60 l 296 58 l 298 58 q 370 83 345 58 q 395 138 395 107 q 381 191 395 170 q 343 230 367 212 q 290 265 320 248 l 229 300 q 122 378 151 346 q 64 520 64 444 q 132 651 64 601 q 292 699 196 699 l 412 690 q 472 701 455 690 q 500 725 489 711 z "},"Š":{"ha":699,"x_min":73,"x_max":655,"o":"m 233 359 q 224 247 224 289 q 235 170 224 205 q 264 109 245 135 q 367 54 304 54 q 486 186 486 54 q 363 410 486 292 l 293 479 q 166 623 200 568 q 99 836 99 730 q 155 980 99 922 q 348 1051 222 1051 q 422 1046 397 1051 q 485 1038 469 1038 q 546 1062 524 1038 q 564 1085 554 1071 q 613 881 613 1057 q 591 715 613 768 q 574 692 583 696 q 507 875 563 794 q 357 970 442 970 q 267 903 283 970 q 262 856 262 884 q 279 791 262 827 q 323 720 296 755 q 387 648 351 684 q 531 498 495 537 q 594 416 566 458 q 655 234 655 322 q 572 58 655 127 q 353 -14 487 -14 q 161 42 241 -14 q 73 203 73 103 q 189 342 100 298 q 233 359 212 354 m 193 1343 q 358 1237 283 1299 q 522 1343 442 1308 l 591 1343 q 562 1312 579 1331 q 463 1192 481 1217 l 435 1156 q 423 1139 425 1142 l 292 1139 q 280 1156 290 1142 l 187 1272 l 153 1312 q 123 1343 136 1331 l 193 1343 z "},"š":{"ha":612,"x_min":38,"x_max":534,"o":"m 500 725 q 519 643 519 684 q 515 574 519 602 q 504 522 511 547 q 456 435 487 465 q 410 571 435 540 q 360 613 385 602 q 308 624 336 624 q 262 618 280 624 q 232 603 245 613 q 203 552 203 581 q 217 503 203 524 q 255 464 231 482 q 308 429 278 446 l 369 395 q 477 321 448 351 q 534 200 534 264 q 477 60 534 117 q 262 -14 406 -14 q 65 47 131 -14 q 38 83 46 65 q 83 178 43 134 q 159 229 122 222 q 156 202 156 220 q 166 158 156 184 q 195 110 176 132 q 292 58 238 58 q 370 83 345 58 q 395 138 395 107 q 381 191 395 170 q 343 230 367 212 q 290 265 320 248 l 229 300 q 122 378 151 346 q 64 520 64 444 q 132 651 64 601 q 292 699 196 699 l 412 690 q 472 701 455 690 q 500 725 489 711 m 144 1038 q 305 899 198 1009 q 468 1038 411 1008 l 532 1038 q 482 969 511 1016 q 408 845 424 873 l 383 800 q 372 780 374 783 l 239 780 q 229 800 237 783 q 176 893 194 863 l 141 951 q 80 1038 103 1012 l 144 1038 z "},"Ţ":{"ha":728,"x_min":8,"x_max":717,"o":"m 24 732 q 8 825 8 772 q 12 913 8 879 q 23 975 16 947 q 63 1038 39 1038 l 661 1038 q 713 921 700 1038 q 717 854 717 888 q 699 732 717 772 q 548 964 641 913 q 507 977 527 977 q 475 966 486 977 q 456 932 463 956 q 444 835 444 892 l 444 581 l 444 373 l 444 176 q 461 78 444 110 q 497 31 479 47 q 539 0 515 14 l 193 0 q 255 66 241 40 q 280 176 280 113 l 280 787 q 272 925 280 894 q 252 966 264 956 q 220 977 241 977 q 179 965 200 977 q 138 933 158 953 q 100 889 118 914 q 67 836 82 863 q 24 732 38 783 m 460 -57 q 477 -105 477 -87 q 451 -205 477 -167 q 398 -269 426 -243 q 289 -338 339 -325 q 247 -311 267 -330 q 315 -185 315 -254 q 280 -79 315 -132 q 260 -57 270 -64 l 460 -57 z "},"ţ":{"ha":501,"x_min":47,"x_max":505,"o":"m 274 956 q 260 831 260 904 q 263 738 260 758 q 273 705 266 718 q 323 685 286 685 l 505 685 q 486 627 505 647 q 405 590 453 590 q 363 597 381 590 q 311 610 330 610 q 281 603 293 610 q 263 583 270 596 q 251 476 251 558 q 256 308 251 394 q 281 164 261 222 q 343 77 302 106 q 457 47 385 47 q 429 -3 457 26 q 416 -14 421 -11 q 236 15 296 -14 q 138 136 168 49 q 109 397 109 224 q 101 575 109 548 q 86 612 93 603 q 47 637 78 622 q 130 755 89 669 l 164 827 q 225 932 200 908 q 274 956 251 956 m 348 -57 q 364 -105 364 -87 q 339 -205 364 -167 q 286 -269 313 -243 q 176 -338 227 -325 q 134 -311 154 -330 q 203 -185 203 -254 q 168 -79 203 -132 q 147 -57 157 -64 l 348 -57 z "},"Ť":{"ha":728,"x_min":8,"x_max":717,"o":"m 24 732 q 8 825 8 772 q 12 913 8 879 q 23 975 16 947 q 63 1038 39 1038 l 661 1038 q 713 921 700 1038 q 717 854 717 888 q 699 732 717 772 q 548 964 641 913 q 507 977 527 977 q 475 966 486 977 q 456 932 463 956 q 444 835 444 892 l 444 581 l 444 373 l 444 176 q 461 78 444 110 q 497 31 479 47 q 539 0 515 14 l 193 0 q 255 66 241 40 q 280 176 280 113 l 280 787 q 272 925 280 894 q 252 966 264 956 q 220 977 241 977 q 179 965 200 977 q 138 933 158 953 q 100 889 118 914 q 67 836 82 863 q 24 732 38 783 m 197 1343 q 361 1237 286 1299 q 525 1343 446 1308 l 595 1343 q 566 1312 583 1331 q 467 1192 485 1217 l 438 1156 q 427 1139 428 1142 l 295 1139 q 283 1156 294 1142 l 191 1272 l 156 1312 q 127 1343 139 1331 l 197 1343 z "},"ť":{"ha":727,"x_min":47,"x_max":725,"o":"m 274 956 q 260 831 260 904 q 263 738 260 758 q 273 705 266 718 q 323 685 286 685 l 505 685 q 486 627 505 647 q 405 590 453 590 q 363 597 381 590 q 311 610 330 610 q 281 603 293 610 q 263 583 270 596 q 251 476 251 558 q 256 308 251 394 q 281 164 261 222 q 343 77 302 106 q 457 47 385 47 q 429 -3 457 26 q 416 -14 421 -11 q 236 15 296 -14 q 138 136 168 49 q 109 397 109 224 q 101 575 109 548 q 86 612 93 603 q 47 637 78 622 q 130 755 89 669 l 164 827 q 225 932 200 908 q 274 956 251 956 m 725 1002 q 725 993 725 1002 q 723 963 725 983 q 717 904 720 942 q 699 821 713 865 q 664 740 684 776 q 580 642 625 669 q 562 654 573 646 q 538 671 550 663 q 583 833 580 730 q 583 883 583 859 q 579 930 583 906 q 569 976 576 955 q 532 1040 555 1021 l 720 1040 q 725 1002 725 1021 z "},"Ŧ":{"ha":728,"x_min":8,"x_max":717,"o":"m 24 732 q 8 825 8 772 q 12 913 8 879 q 23 975 16 947 q 63 1038 39 1038 l 661 1038 q 713 921 700 1038 q 717 854 717 888 q 699 732 717 772 q 548 964 641 913 q 507 977 527 977 q 475 966 486 977 q 456 932 463 956 q 444 787 444 892 l 444 672 q 600 685 551 675 l 600 570 q 444 583 551 579 l 444 408 l 444 255 l 444 176 q 461 78 444 110 q 497 31 479 47 q 539 0 515 14 l 193 0 q 255 66 241 40 q 280 176 280 113 l 280 583 q 117 570 168 581 l 117 685 q 280 671 162 675 l 280 787 q 272 925 280 894 q 252 966 264 956 q 220 977 241 977 q 179 965 200 977 q 138 933 158 953 q 100 889 118 914 q 67 836 82 863 q 24 732 38 783 z "},"ŧ":{"ha":501,"x_min":47,"x_max":505,"o":"m 274 956 q 260 831 260 904 q 263 738 260 758 q 273 705 266 718 q 323 685 286 685 l 505 685 q 486 627 505 647 q 405 590 453 590 q 363 597 381 590 q 311 610 330 610 q 281 603 293 610 q 263 583 270 596 q 251 508 251 558 l 251 454 l 281 454 q 484 468 430 454 l 484 353 q 281 366 430 366 l 253 366 q 297 127 259 196 q 457 47 342 47 q 429 -3 457 26 q 416 -14 421 -11 q 277 0 334 -14 q 184 54 220 14 q 109 359 113 132 q 69 353 87 357 l 69 468 q 109 460 93 463 q 97 590 107 566 q 75 622 87 614 q 47 637 64 629 q 130 755 89 669 l 164 827 q 225 932 200 908 q 274 956 251 956 z "},"Ũ":{"ha":813,"x_min":76,"x_max":774,"o":"m 612 348 l 616 608 q 595 958 616 882 q 573 1011 586 994 q 551 1038 559 1028 l 774 1038 l 760 1019 q 726 918 729 974 q 721 804 722 861 q 718 689 719 746 q 716 475 716 593 l 716 393 q 646 79 716 174 q 418 -14 576 -14 q 113 379 112 -14 l 114 887 q 76 1038 114 994 l 333 1038 q 293 901 293 989 q 292 795 293 849 l 290 578 q 289 467 289 524 q 301 209 289 263 q 331 123 313 154 q 452 54 372 54 q 604 235 575 54 q 612 348 612 288 m 180 1204 q 262 1314 214 1276 q 350 1353 310 1353 q 410 1347 389 1353 q 447 1330 431 1340 q 475 1309 463 1320 q 499 1287 488 1297 q 547 1265 526 1265 q 583 1271 568 1265 q 609 1288 597 1278 q 630 1310 621 1298 l 647 1333 l 688 1292 q 608 1191 654 1226 q 524 1156 562 1156 q 464 1163 485 1156 q 427 1179 443 1169 q 399 1200 411 1189 q 375 1222 387 1212 q 327 1244 349 1244 q 291 1238 306 1244 q 265 1221 277 1232 q 245 1199 254 1211 l 227 1177 l 180 1204 z "},"ũ":{"ha":755,"x_min":58,"x_max":693,"o":"m 630 621 l 620 318 q 652 64 620 133 q 693 0 664 39 l 505 0 q 484 117 489 46 q 281 -14 406 -14 q 151 50 196 -14 q 106 220 106 112 l 106 311 q 106 374 106 342 l 104 435 q 101 527 104 494 q 94 582 98 560 q 85 622 90 604 q 73 654 79 639 l 58 685 l 254 685 q 254 665 254 674 l 254 645 q 243 304 254 645 q 256 169 243 205 q 287 117 269 133 q 334 102 304 102 q 465 190 415 102 q 488 241 479 215 q 489 327 489 279 q 452 654 489 574 l 437 685 l 631 685 q 630 654 630 668 l 630 621 m 136 869 q 218 979 170 941 q 310 1017 267 1017 q 377 1003 354 1017 q 416 972 399 989 q 446 941 416 972 q 478 928 459 928 q 512 935 498 928 q 538 952 527 941 q 559 975 550 962 l 576 998 l 631 949 q 552 848 598 883 q 469 814 505 814 q 414 821 432 814 q 382 837 396 827 q 359 859 369 847 q 338 880 359 859 q 296 903 316 903 q 261 897 276 903 q 235 879 247 890 q 215 856 224 869 q 197 833 215 856 l 136 869 z "},"Ū":{"ha":813,"x_min":76,"x_max":774,"o":"m 612 348 l 616 608 q 595 958 616 882 q 573 1011 586 994 q 551 1038 559 1028 l 774 1038 l 760 1019 q 726 918 729 974 q 721 804 722 861 q 718 689 719 746 q 716 475 716 593 l 716 393 q 646 79 716 174 q 418 -14 576 -14 q 113 379 112 -14 l 114 887 q 76 1038 114 994 l 333 1038 q 293 901 293 989 q 292 795 293 849 l 290 578 q 289 467 289 524 q 301 209 289 263 q 331 123 313 154 q 452 54 372 54 q 604 235 575 54 q 612 348 612 288 m 198 1297 q 434 1284 262 1284 q 667 1297 606 1284 l 667 1168 q 434 1182 606 1182 q 198 1168 262 1182 l 198 1297 z "},"ū":{"ha":755,"x_min":58,"x_max":693,"o":"m 630 621 l 620 318 q 652 64 620 133 q 693 0 664 39 l 505 0 q 484 117 489 46 q 281 -14 406 -14 q 151 50 196 -14 q 106 220 106 112 l 106 311 q 106 374 106 342 l 104 435 q 101 527 104 494 q 94 582 98 560 q 85 622 90 604 q 73 654 79 639 l 58 685 l 254 685 q 254 665 254 674 l 254 645 q 243 304 254 645 q 256 169 243 205 q 287 117 269 133 q 334 102 304 102 q 465 190 415 102 q 488 241 479 215 q 489 327 489 279 q 452 654 489 574 l 437 685 l 631 685 q 630 654 630 668 l 630 621 m 117 943 q 353 929 181 929 q 587 943 525 929 l 587 814 q 353 827 525 827 q 117 814 181 827 l 117 943 z "},"Ŭ":{"ha":813,"x_min":76,"x_max":774,"o":"m 612 348 l 616 608 q 595 958 616 882 q 573 1011 586 994 q 551 1038 559 1028 l 774 1038 l 760 1019 q 726 918 729 974 q 721 804 722 861 q 718 689 719 746 q 716 475 716 593 l 716 393 q 646 79 716 174 q 418 -14 576 -14 q 113 379 112 -14 l 114 887 q 76 1038 114 994 l 333 1038 q 293 901 293 989 q 292 795 293 849 l 290 578 q 289 467 289 524 q 301 209 289 263 q 331 123 313 154 q 452 54 372 54 q 604 235 575 54 q 612 348 612 288 m 363 1214 q 423 1204 389 1204 q 481 1214 456 1204 q 524 1244 506 1225 q 564 1343 564 1285 l 648 1343 q 604 1188 648 1260 q 433 1092 546 1092 q 214 1242 267 1092 q 197 1343 197 1292 l 288 1343 q 363 1214 288 1244 z "},"ŭ":{"ha":755,"x_min":58,"x_max":693,"o":"m 630 621 l 620 318 q 652 64 620 133 q 693 0 664 39 l 505 0 q 484 117 489 46 q 281 -14 406 -14 q 151 50 196 -14 q 106 220 106 112 l 106 311 q 106 374 106 342 l 104 435 q 101 527 104 494 q 94 582 98 560 q 85 622 90 604 q 73 654 79 639 l 58 685 l 254 685 q 254 665 254 674 l 254 645 q 243 304 254 645 q 256 169 243 205 q 287 117 269 133 q 334 102 304 102 q 465 190 415 102 q 488 241 479 215 q 489 327 489 279 q 452 654 489 574 l 437 685 l 631 685 q 630 654 630 668 l 630 621 m 291 909 q 351 899 317 899 q 409 909 385 899 q 452 939 434 920 q 492 1038 492 980 l 576 1038 q 532 883 576 955 q 361 787 474 787 q 142 937 195 787 q 125 1038 125 987 l 216 1038 q 291 909 216 939 z "},"Ů":{"ha":813,"x_min":76,"x_max":774,"o":"m 612 348 l 616 608 q 595 958 616 882 q 573 1011 586 994 q 551 1038 559 1028 l 774 1038 l 760 1019 q 726 918 729 974 q 721 804 722 861 q 718 689 719 746 q 716 475 716 593 l 716 393 q 646 79 716 174 q 418 -14 576 -14 q 113 379 112 -14 l 114 887 q 76 1038 114 994 l 333 1038 q 293 901 293 989 q 292 795 293 849 l 290 578 q 289 467 289 524 q 301 209 289 263 q 331 123 313 154 q 452 54 372 54 q 604 235 575 54 q 612 348 612 288 m 433 1314 q 361 1225 361 1314 q 382 1161 361 1183 q 433 1139 404 1139 q 483 1161 462 1139 q 504 1225 504 1183 q 433 1314 504 1314 m 610 1225 q 557 1119 610 1158 q 433 1082 507 1082 q 308 1119 357 1082 q 255 1225 255 1158 q 308 1333 255 1294 q 433 1370 357 1370 q 595 1288 551 1370 q 610 1225 610 1261 z "},"ů":{"ha":755,"x_min":58,"x_max":693,"o":"m 630 621 l 620 318 q 652 64 620 133 q 693 0 664 39 l 505 0 q 484 117 489 46 q 281 -14 406 -14 q 151 50 196 -14 q 106 220 106 112 l 106 311 q 106 374 106 342 l 104 435 q 101 527 104 494 q 94 582 98 560 q 85 622 90 604 q 73 654 79 639 l 58 685 l 254 685 q 254 665 254 674 l 254 645 q 243 304 254 645 q 256 169 243 205 q 287 117 269 133 q 334 102 304 102 q 465 190 415 102 q 488 241 479 215 q 489 327 489 279 q 452 654 489 574 l 437 685 l 631 685 q 630 654 630 668 l 630 621 m 352 1037 q 279 932 279 1037 q 323 836 279 859 q 352 829 337 829 q 418 888 401 829 q 425 932 425 907 q 352 1037 425 1037 m 536 932 q 481 809 536 855 q 352 766 430 766 q 223 809 274 766 q 168 932 168 855 q 223 1057 168 1010 q 352 1100 274 1100 q 481 1057 430 1100 q 536 932 536 1010 z "},"Ű":{"ha":813,"x_min":76,"x_max":797,"o":"m 612 348 l 616 608 q 595 958 616 882 q 573 1011 586 994 q 551 1038 559 1028 l 774 1038 l 760 1019 q 726 918 729 974 q 721 804 722 861 q 718 689 719 746 q 716 475 716 593 l 716 393 q 646 79 716 174 q 418 -14 576 -14 q 113 379 112 -14 l 114 887 q 76 1038 114 994 l 333 1038 q 293 901 293 989 q 292 795 293 849 l 290 578 q 289 467 289 524 q 301 209 289 263 q 331 123 313 154 q 452 54 372 54 q 604 235 575 54 q 612 348 612 288 m 528 1351 q 377 1133 469 1224 q 340 1100 354 1110 l 262 1100 q 282 1137 271 1114 q 330 1237 315 1206 q 353 1291 330 1237 q 374 1351 374 1344 l 528 1351 m 797 1351 q 640 1133 740 1227 q 602 1100 616 1110 l 525 1100 q 545 1137 533 1114 q 592 1237 578 1206 q 615 1291 592 1237 q 637 1351 637 1344 l 797 1351 z "},"ű":{"ha":755,"x_min":58,"x_max":714,"o":"m 630 621 l 620 318 q 652 64 620 133 q 693 0 664 39 l 505 0 q 484 117 489 46 q 281 -14 406 -14 q 151 50 196 -14 q 106 220 106 112 l 106 311 q 106 374 106 342 l 104 435 q 101 527 104 494 q 94 582 98 560 q 85 622 90 604 q 73 654 79 639 l 58 685 l 254 685 q 254 665 254 674 l 254 645 q 243 304 254 645 q 256 169 243 205 q 287 117 269 133 q 334 102 304 102 q 465 190 415 102 q 488 241 479 215 q 489 327 489 279 q 452 654 489 574 l 437 685 l 631 685 q 630 654 630 668 l 630 621 m 452 1038 q 283 796 392 907 q 243 760 258 770 l 166 760 q 186 799 174 774 q 261 981 243 929 q 278 1038 278 1034 l 452 1038 m 714 1038 q 546 796 654 907 q 506 760 520 770 l 429 760 q 448 799 437 774 q 523 981 506 929 q 541 1038 541 1034 l 714 1038 z "},"Ų":{"ha":813,"x_min":76,"x_max":774,"o":"m 593 -245 q 646 -235 619 -245 q 642 -292 652 -266 q 549 -324 612 -315 q 507 -327 530 -327 q 455 -318 484 -327 q 406 -293 427 -310 q 356 -193 356 -255 q 381 -116 356 -154 q 422 -56 406 -78 q 454 -12 439 -34 q 418 -14 436 -14 q 113 379 112 -14 l 114 887 q 76 1038 114 994 l 333 1038 q 293 901 293 989 q 292 795 293 849 l 290 578 q 289 467 289 524 q 301 209 289 263 q 331 123 313 154 q 452 54 372 54 q 604 235 575 54 q 612 348 612 288 l 616 608 q 595 958 616 882 q 573 1011 586 994 q 551 1038 559 1028 l 774 1038 l 760 1019 q 726 918 729 974 q 721 804 722 861 q 718 689 719 746 q 716 475 716 593 l 716 393 q 687 161 716 249 q 595 31 657 73 q 563 -10 581 11 q 528 -52 545 -31 q 488 -144 488 -104 q 593 -245 488 -245 z "},"ų":{"ha":755,"x_min":58,"x_max":697,"o":"m 638 -245 q 691 -235 665 -245 q 687 -292 697 -266 q 594 -324 657 -315 q 552 -327 575 -327 q 501 -318 529 -327 q 450 -293 473 -310 q 401 -193 401 -255 q 475 -46 401 -142 q 507 0 493 -23 l 505 0 q 484 117 489 46 q 281 -14 406 -14 q 151 50 196 -14 q 106 220 106 112 l 106 311 q 106 374 106 342 l 104 435 q 101 527 104 494 q 94 582 98 560 q 85 622 90 604 q 73 654 79 639 l 58 685 l 254 685 q 254 665 254 674 l 254 645 l 243 304 q 256 169 243 205 q 287 117 269 133 q 334 102 304 102 q 465 190 415 102 q 488 241 479 215 q 489 327 489 279 q 452 654 489 574 l 437 685 l 631 685 q 630 654 630 668 l 630 621 l 620 318 q 652 64 620 133 q 693 0 664 39 l 616 0 l 589 -34 q 534 -144 534 -98 q 638 -245 534 -245 z "},"Ŵ":{"ha":1096,"x_min":-22,"x_max":1133,"o":"m 935 932 q 892 1038 935 998 l 1133 1038 q 1066 937 1092 1002 q 1048 890 1057 916 q 1028 819 1040 865 l 1004 713 q 975 581 989 652 q 887 164 897 208 q 877 80 877 120 q 895 -1 877 41 l 657 0 q 676 47 673 25 q 680 101 680 69 q 669 196 680 133 q 640 340 658 259 l 554 706 q 437 186 451 252 q 423 81 423 120 q 440 -1 423 41 l 203 0 q 225 96 225 36 q 136 563 225 197 q -22 1038 43 947 l 218 1038 q 206 966 206 1008 q 213 875 206 924 q 232 763 220 825 q 259 629 244 701 l 351 224 q 377 340 363 276 q 429 599 415 525 l 452 728 q 472 890 472 848 q 467 970 472 932 q 441 1038 462 1009 l 694 1038 q 666 915 666 984 q 699 706 666 863 l 777 338 l 806 215 l 863 486 q 890 631 877 559 l 913 762 q 935 932 935 892 m 741 1140 q 576 1245 656 1177 q 412 1140 488 1174 l 342 1140 q 372 1171 355 1152 q 471 1291 452 1267 l 499 1327 q 511 1343 509 1340 l 642 1343 q 654 1327 644 1340 q 810 1140 783 1166 l 741 1140 z "},"ŵ":{"ha":1005,"x_min":-12,"x_max":1010,"o":"m 629 685 q 601 545 601 638 q 614 474 601 522 q 661 321 647 365 l 712 174 q 758 315 744 268 q 825 566 825 538 q 823 609 825 594 q 815 636 820 623 q 783 685 807 654 l 1010 685 q 952 599 968 640 q 928 538 936 559 l 844 302 q 799 161 812 207 q 791 83 791 124 q 808 -1 791 41 l 557 0 q 577 48 574 26 q 580 93 580 71 q 573 146 580 115 q 555 220 566 178 q 496 404 532 306 q 417 181 431 235 q 404 84 404 126 q 422 -1 404 43 l 171 0 q 190 48 187 26 q 193 95 193 71 q 183 165 193 119 q 157 268 174 210 q 120 390 141 326 q 76 512 99 454 q -12 685 24 644 l 238 685 q 226 619 226 655 q 231 556 226 583 q 244 494 236 530 q 264 418 253 459 l 332 180 q 440 473 429 426 q 451 534 451 520 q 406 685 451 621 l 629 685 m 669 787 q 507 920 608 819 q 345 787 410 821 l 281 787 q 333 857 306 814 q 405 975 389 947 l 430 1018 q 441 1038 439 1034 l 574 1038 q 585 1018 575 1034 q 733 787 699 823 l 669 787 z "},"Ŷ":{"ha":586,"x_min":-45,"x_max":637,"o":"m 233 261 l 233 403 l 233 480 q 183 654 233 541 q 131 766 144 739 l 109 810 q -45 1038 21 994 l 229 1038 q 224 1003 224 1024 q 227 959 224 982 q 236 911 231 935 q 262 825 246 864 l 295 746 q 337 666 312 707 q 388 760 369 714 l 414 824 q 452 1011 452 922 q 450 1038 452 1026 l 637 1038 q 559 923 600 998 q 502 814 518 848 l 467 739 q 397 489 397 583 l 397 179 q 413 79 397 110 q 448 32 429 49 q 492 0 466 15 l 145 0 q 233 163 233 45 l 233 261 m 483 1140 q 318 1245 399 1177 q 155 1140 231 1174 l 85 1140 q 114 1171 97 1152 q 214 1291 195 1267 l 241 1327 q 253 1343 252 1340 l 385 1343 q 396 1327 386 1340 q 553 1140 526 1166 l 483 1140 z "},"ŷ":{"ha":693,"x_min":34,"x_max":607,"o":"m 449 224 l 450 375 q 442 560 450 517 q 430 621 435 604 q 420 653 426 638 l 407 685 l 607 685 l 604 654 q 598 559 600 621 l 595 456 q 592 234 592 337 q 579 58 592 131 q 546 -71 567 -16 q 498 -167 525 -127 q 441 -235 471 -208 q 326 -305 389 -283 q 299 -285 312 -300 q 284 -258 287 -271 q 380 -164 344 -227 q 444 94 431 -75 q 251 -14 366 -14 q 125 50 170 -14 q 82 220 82 112 l 82 311 q 81 374 82 342 l 81 435 q 77 527 80 494 q 70 582 74 560 q 61 622 66 604 q 49 654 56 639 l 34 685 l 241 685 q 223 318 223 588 q 235 172 223 208 q 263 118 246 135 q 308 102 281 102 q 356 110 335 102 q 393 133 376 119 q 449 204 427 159 l 449 224 m 475 278 l 471 262 l 475 278 m 489 787 q 326 920 427 819 q 165 787 230 821 l 101 787 q 153 857 125 814 q 224 975 209 947 l 250 1018 q 260 1038 258 1034 l 393 1038 q 404 1018 395 1034 q 553 787 518 823 l 489 787 z "},"Ÿ":{"ha":586,"x_min":-45,"x_max":637,"o":"m 233 261 l 233 403 l 233 480 q 183 654 233 541 q 131 766 144 739 l 109 810 q -45 1038 21 994 l 229 1038 q 224 1003 224 1024 q 227 959 224 982 q 236 911 231 935 q 262 825 246 864 l 295 746 q 337 666 312 707 q 388 760 369 714 l 414 824 q 452 1011 452 922 q 450 1038 452 1026 l 637 1038 q 559 923 600 998 q 502 814 518 848 l 467 739 q 397 489 397 583 l 397 179 q 413 79 397 110 q 448 32 429 49 q 492 0 466 15 l 145 0 q 233 163 233 45 l 233 261 m 259 1169 q 253 1160 259 1169 q 231 1137 248 1150 q 193 1124 214 1124 q 155 1137 172 1124 q 127 1169 138 1150 q 103 1238 103 1208 q 108 1281 103 1267 q 123 1305 113 1295 q 183 1329 147 1329 q 235 1323 218 1329 q 263 1305 252 1316 q 283 1259 283 1285 q 277 1211 283 1233 q 259 1169 271 1188 m 538 1169 q 533 1160 538 1169 q 510 1137 527 1150 q 472 1124 493 1124 q 434 1137 451 1124 q 406 1169 418 1150 q 382 1238 382 1208 q 387 1281 382 1267 q 403 1305 392 1295 q 461 1329 425 1329 q 514 1323 497 1329 q 543 1305 532 1316 q 563 1259 563 1285 q 556 1211 563 1233 q 538 1169 550 1188 z "},"Ź":{"ha":633,"x_min":7,"x_max":618,"o":"m 589 251 q 604 177 604 220 q 600 106 604 135 q 586 53 595 77 q 536 0 567 0 l 7 0 q 81 122 49 44 l 138 263 q 355 853 335 793 q 374 934 374 913 q 351 962 374 955 q 282 970 328 970 q 207 954 237 970 q 153 911 176 939 q 77 760 113 864 q 58 831 58 778 q 63 916 58 884 q 76 976 67 949 q 129 1038 95 1038 l 613 1038 q 550 914 580 987 l 498 783 q 359 403 387 482 q 278 168 290 205 q 266 115 266 130 q 342 68 266 68 q 484 109 429 68 q 589 251 538 149 m 618 1351 q 435 1176 552 1253 q 388 1147 406 1157 l 288 1147 q 315 1177 299 1158 q 382 1261 315 1177 q 444 1351 444 1340 l 618 1351 z "},"ź":{"ha":599,"x_min":21,"x_max":562,"o":"m 540 228 q 558 150 558 190 q 554 87 558 110 q 543 46 551 64 q 498 0 527 5 l 21 0 q 82 98 67 73 q 319 534 303 503 q 334 585 334 565 q 267 624 334 624 q 153 572 199 624 q 73 420 106 519 q 54 511 54 464 q 58 585 54 558 q 71 634 62 612 q 123 685 90 682 l 562 685 q 293 186 320 243 q 265 109 265 128 q 334 68 265 68 q 457 106 410 68 q 540 228 498 140 m 538 1038 q 370 796 479 907 q 330 760 345 770 l 253 760 q 273 799 261 774 q 348 981 330 929 q 365 1038 365 1034 l 538 1038 z "},"Ż":{"ha":633,"x_min":7,"x_max":613,"o":"m 589 251 q 604 177 604 220 q 600 106 604 135 q 586 53 595 77 q 536 0 567 0 l 7 0 q 81 122 49 44 l 138 263 q 355 853 335 793 q 374 934 374 913 q 351 962 374 955 q 282 970 328 970 q 207 954 237 970 q 153 911 176 939 q 77 760 113 864 q 58 831 58 778 q 63 916 58 884 q 76 976 67 949 q 129 1038 95 1038 l 613 1038 q 550 914 580 987 l 498 783 q 359 403 387 482 q 278 168 290 205 q 266 115 266 130 q 342 68 266 68 q 484 109 429 68 q 589 251 538 149 m 407 1162 q 401 1152 407 1162 q 377 1128 395 1142 q 337 1115 359 1115 q 297 1128 315 1115 q 267 1162 279 1142 q 242 1250 242 1204 q 293 1325 242 1306 q 338 1332 311 1332 q 428 1280 410 1332 q 433 1248 433 1266 q 427 1206 433 1230 q 407 1162 420 1183 z "},"ż":{"ha":599,"x_min":21,"x_max":562,"o":"m 540 228 q 558 150 558 190 q 554 87 558 110 q 543 46 551 64 q 498 0 527 5 l 21 0 q 82 98 67 73 q 319 534 303 503 q 334 585 334 565 q 267 624 334 624 q 153 572 199 624 q 73 420 106 519 q 54 511 54 464 q 58 585 54 558 q 71 634 62 612 q 123 685 90 682 l 562 685 q 293 186 320 243 q 265 109 265 128 q 334 68 265 68 q 457 106 410 68 q 540 228 498 140 m 397 867 q 390 856 397 867 q 363 830 383 845 q 319 814 344 814 q 274 830 294 814 q 241 867 254 845 q 213 965 213 913 q 270 1048 213 1027 q 319 1056 290 1056 q 420 999 400 1056 q 426 963 426 983 q 418 916 426 943 q 397 867 411 890 z "},"Ž":{"ha":633,"x_min":7,"x_max":613,"o":"m 589 251 q 604 177 604 220 q 600 106 604 135 q 586 53 595 77 q 536 0 567 0 l 7 0 q 81 122 49 44 l 138 263 q 355 853 335 793 q 374 934 374 913 q 351 962 374 955 q 282 970 328 970 q 207 954 237 970 q 153 911 176 939 q 77 760 113 864 q 58 831 58 778 q 63 916 58 884 q 76 976 67 949 q 129 1038 95 1038 l 613 1038 q 550 914 580 987 l 498 783 q 359 403 387 482 q 278 168 290 205 q 266 115 266 130 q 342 68 266 68 q 484 109 429 68 q 589 251 538 149 m 195 1343 q 360 1237 285 1299 q 524 1343 444 1308 l 593 1343 q 564 1312 581 1331 q 465 1192 484 1217 l 437 1156 q 425 1139 427 1142 l 294 1139 q 282 1156 292 1142 l 189 1272 l 155 1312 q 125 1343 138 1331 l 195 1343 z "},"ž":{"ha":599,"x_min":21,"x_max":562,"o":"m 540 228 q 558 150 558 190 q 554 87 558 110 q 543 46 551 64 q 498 0 527 5 l 21 0 q 82 98 67 73 q 319 534 303 503 q 334 585 334 565 q 267 624 334 624 q 153 572 199 624 q 73 420 106 519 q 54 511 54 464 q 58 585 54 558 q 71 634 62 612 q 123 685 90 682 l 562 685 q 293 186 320 243 q 265 109 265 128 q 334 68 265 68 q 457 106 410 68 q 540 228 498 140 m 157 1038 q 319 899 212 1009 q 481 1038 425 1008 l 545 1038 q 496 969 524 1016 q 422 845 437 873 l 397 800 q 386 780 387 783 l 253 780 q 242 800 251 783 q 189 893 208 863 l 155 951 q 94 1038 117 1012 l 157 1038 z "},"ƒ":{"ha":500,"x_min":2,"x_max":587,"o":"m 490 745 l 490 793 q 479 926 490 897 q 454 966 468 956 q 418 977 439 977 q 379 968 397 977 q 347 943 361 959 q 309 848 317 907 l 297 747 q 292 675 292 707 q 303 630 292 644 q 344 617 315 617 l 469 617 l 456 590 q 385 529 429 529 q 353 534 367 529 q 304 543 328 543 q 256 482 264 543 q 229 231 239 342 l 215 73 q 205 -122 201 -94 q 216 -167 210 -150 q 231 -199 222 -184 l 250 -231 l 2 -231 q 65 79 41 -137 l 100 395 q 109 462 106 440 q 115 518 115 503 q 105 536 115 534 q 58 587 61 547 q 56 610 58 598 l 99 610 q 122 617 117 610 q 149 846 136 637 q 212 994 155 938 q 366 1051 271 1051 q 418 1046 393 1051 q 488 1038 465 1038 q 573 1078 542 1038 q 587 1030 587 1059 q 584 977 587 1000 q 572 920 581 954 q 551 853 563 886 q 490 745 524 784 z "}}}
